<svg width="24" height="24" viewBox="0 0 24 24" fill="none" xmlns="http://www.w3.org/2000/svg">
<path d="M12 1.25C17.928 1.25 22.75 6.072 22.75 12C22.75 17.928 17.928 22.75 12 22.75C6.072 22.75 1.25 17.928 1.25 12C1.25 6.072 6.072 1.25 12 1.25ZM12 2.75C6.9 2.75 2.75 6.9 2.75 12C2.75 17.1 6.9 21.25 12 21.25C17.1 21.25 21.25 17.1 21.25 12C21.25 6.9 17.1 2.75 12 2.75ZM15.6406 7.3418C16.0036 7.14281 16.4602 7.2767 16.6592 7.63965C16.8582 8.00265 16.7234 8.4592 16.3604 8.6582C13.4264 10.2628 11.1165 15.2388 11.083 15.3115C10.967 15.5645 10.7194 15.733 10.4414 15.749C10.4275 15.749 10.4133 15.75 10.4004 15.75H10.3994C10.1366 15.7499 9.89176 15.6116 9.75684 15.3848C9.07382 14.2439 7.65422 13.4165 7.62793 13.4014C7.26896 13.1954 7.14469 12.7369 7.34961 12.3779C7.55561 12.0189 8.01307 11.8936 8.37207 12.0986C8.4265 12.1299 9.40491 12.6949 10.2656 13.6045C11.1797 11.9104 13.1558 8.70076 15.6406 7.3418Z" fill="#1EA477" style="fill:#1EA477;fill:color(display-p3 0.1178 0.6422 0.4674);fill-opacity:1;"/>
</svg>
