<svg width="20" height="20" viewBox="0 0 20 20" fill="none" xmlns="http://www.w3.org/2000/svg">
<path d="M13.2832 5.625C14.1749 5.625 15.4167 6.04199 16.25 7.29199C15.1668 7.95027 14.4503 8.84992 14.4502 10.208C14.4502 11.7663 15.317 13.1003 16.667 13.667C15.8003 16.1668 14.4083 18.1249 13.25 18.125C12.6917 18.125 12.183 17.9085 11.708 17.7002C11.2665 17.5086 10.8418 17.3253 10.417 17.3252C9.99199 17.3252 9.56667 17.5085 9.125 17.7002C8.65001 17.9085 8.14133 18.125 7.58301 18.125C5.91633 18.1245 3.33301 14.0828 3.33301 10.208C3.33317 6.87495 5.84992 5.62502 7.4082 5.625C8.28315 5.625 8.81656 5.84154 9.2832 6.0332C9.6582 6.19154 9.99199 6.3252 10.417 6.3252C10.8418 6.32512 11.0421 6.18316 11.417 6.0332C11.8835 5.84158 12.3918 5.62501 13.2832 5.625ZM12.917 1.875C12.917 3.54167 11.6667 5.20801 10 5.20801C10.0002 3.54145 11.2504 1.875 12.917 1.875Z" fill="#141B34" style="fill:#141B34;fill:color(display-p3 0.0774 0.1045 0.2042);fill-opacity:1;"/>
</svg>
