<svg width="18" height="18" viewBox="0 0 18 18" fill="none" xmlns="http://www.w3.org/2000/svg">
<path d="M12.3213 9.9375C14.0491 9.9375 15.4548 11.3435 15.4551 13.0713C15.4551 13.732 15.2494 14.3463 14.8984 14.8525L16.1484 16.1025C16.3681 16.3223 16.3682 16.6787 16.1484 16.8984C16.039 17.0079 15.8949 17.0634 15.751 17.0635C15.607 17.0635 15.462 17.0086 15.3525 16.8984L14.1025 15.6484C13.5963 15.9994 12.982 16.2051 12.3213 16.2051C10.5935 16.2048 9.1875 14.7991 9.1875 13.0713C9.18775 11.3437 10.5937 9.93775 12.3213 9.9375ZM8.25 0.9375C11.2305 0.9375 12.7263 0.937445 13.7695 1.98145C14.8127 3.02394 14.8125 4.52036 14.8125 7.5V8.25C14.8125 8.5605 14.5605 8.8125 14.25 8.8125C13.9395 8.8125 13.6875 8.5605 13.6875 8.25V7.5C13.6875 4.8309 13.6875 3.49062 12.9736 2.77734C12.2596 2.06259 10.92 2.0625 8.25 2.0625C5.58 2.0625 4.24037 2.06237 3.52637 2.77637C2.81237 3.49037 2.8125 4.83 2.8125 7.5V10.5C2.8125 13.17 2.81239 14.5096 3.52637 15.2236C4.24037 15.9376 5.58075 15.9375 8.25 15.9375C8.5605 15.9375 8.8125 16.1895 8.8125 16.5C8.8125 16.8105 8.5605 17.0625 8.25 17.0625C5.27025 17.0625 3.77372 17.0626 2.73047 16.0186C1.68733 14.9761 1.6875 13.4796 1.6875 10.5V7.5C1.6875 4.52036 1.68733 3.02394 2.73047 1.98145C3.77372 0.937445 5.2695 0.9375 8.25 0.9375ZM12.3213 11.0635C11.2138 11.0637 10.3126 11.9648 10.3125 13.0723C10.3125 14.1799 11.2138 15.0808 12.3213 15.0811C13.429 15.0811 14.3301 14.18 14.3301 13.0723C14.33 11.9646 13.429 11.0635 12.3213 11.0635ZM8.25 7.6875C8.5605 7.6875 8.8125 7.9395 8.8125 8.25C8.8125 8.5605 8.5605 8.8125 8.25 8.8125H5.25C4.9395 8.8125 4.6875 8.5605 4.6875 8.25C4.6875 7.9395 4.9395 7.6875 5.25 7.6875H8.25ZM11.25 4.6875C11.5605 4.6875 11.8125 4.9395 11.8125 5.25C11.8125 5.5605 11.5605 5.8125 11.25 5.8125H5.25C4.9395 5.8125 4.6875 5.5605 4.6875 5.25C4.6875 4.9395 4.9395 4.6875 5.25 4.6875H11.25Z" fill="#141415" style="fill:#141415;fill:color(display-p3 0.0784 0.0784 0.0816);fill-opacity:1;"/>
</svg>
