<svg width="1440" height="1024" viewBox="0 0 1440 1024" fill="none" xmlns="http://www.w3.org/2000/svg">
<g clip-path="url(#clip0_14138_17444)">
<rect width="1440" height="1024" fill="#F9F9FB" style="fill:#F9F9FB;fill:color(display-p3 0.9765 0.9765 0.9843);fill-opacity:1;"/>
<path d="M-59.625 -202.709C-22.7289 -224.011 22.7289 -224.011 59.625 -202.709L589.144 103.009H589.145C626.04 124.311 648.77 163.678 648.77 206.282V817.718C648.77 860.321 626.04 899.689 589.145 920.991H589.144L59.625 1226.71C23.0172 1247.85 -22.0194 1248.01 -58.7588 1227.21L-59.625 1226.71L-589.144 920.991H-589.145C-626.04 899.689 -648.769 860.321 -648.769 817.718V206.282C-648.769 163.678 -626.041 124.31 -589.145 103.008L-59.625 -202.709Z" stroke="#F0F0F4" style="stroke:#F0F0F4;stroke:color(display-p3 0.9425 0.9425 0.9575);stroke-opacity:1;" stroke-width="1.5"/>
<path d="M-59.625 -155.834C-22.7289 -177.136 22.7289 -177.136 59.625 -155.834L548.549 126.446C585.445 147.748 608.174 187.116 608.174 229.72V794.28C608.174 836.884 585.445 876.252 548.549 897.554L59.625 1179.83C23.0172 1200.97 -22.0194 1201.14 -58.7588 1180.33L-59.625 1179.83L-548.549 897.554C-585.445 876.252 -608.174 836.884 -608.174 794.28V229.72C-608.174 187.116 -585.445 147.748 -548.549 126.446L-59.625 -155.834Z" stroke="#F0F0F4" style="stroke:#F0F0F4;stroke:color(display-p3 0.9425 0.9425 0.9575);stroke-opacity:1;" stroke-width="1.5"/>
<path d="M-59.625 -108.959C-22.7289 -130.261 22.7289 -130.261 59.625 -108.959L507.954 149.884C544.85 171.186 567.579 210.553 567.579 253.157V770.843C567.579 813.114 545.204 852.2 508.816 873.614L507.954 874.116L59.625 1132.96C23.0172 1154.1 -22.0194 1154.26 -58.7588 1133.46L-59.625 1132.96L-507.954 874.116C-544.85 852.814 -567.579 813.447 -567.579 770.843V253.157C-567.579 210.553 -544.85 171.186 -507.954 149.884L-59.625 -108.959Z" stroke="#F0F0F4" style="stroke:#F0F0F4;stroke:color(display-p3 0.9425 0.9425 0.9575);stroke-opacity:1;" stroke-width="1.5"/>
<path d="M1380.38 -202.709C1417.27 -224.011 1462.73 -224.011 1499.62 -202.709L2029.14 103.009H2029.14C2066.04 124.311 2088.77 163.678 2088.77 206.282V817.718C2088.77 860.321 2066.04 899.689 2029.14 920.991H2029.14L1499.62 1226.71C1463.02 1247.85 1417.98 1248.01 1381.24 1227.21L1380.38 1226.71L850.856 920.991H850.855C813.96 899.689 791.231 860.321 791.231 817.718V206.282C791.231 163.678 813.959 124.31 850.855 103.008L1380.38 -202.709Z" stroke="#F0F0F4" style="stroke:#F0F0F4;stroke:color(display-p3 0.9425 0.9425 0.9575);stroke-opacity:1;" stroke-width="1.5"/>
<path d="M1380.38 -155.834C1417.27 -177.136 1462.73 -177.136 1499.62 -155.834L1988.55 126.446C2025.44 147.748 2048.17 187.116 2048.17 229.72V794.28C2048.17 836.884 2025.44 876.252 1988.55 897.554L1499.62 1179.83C1463.02 1200.97 1417.98 1201.14 1381.24 1180.33L1380.38 1179.83L891.451 897.554C854.555 876.252 831.826 836.884 831.826 794.28V229.72C831.826 187.116 854.555 147.748 891.451 126.446L1380.38 -155.834Z" stroke="#F0F0F4" style="stroke:#F0F0F4;stroke:color(display-p3 0.9425 0.9425 0.9575);stroke-opacity:1;" stroke-width="1.5"/>
<path d="M1380.38 -108.959C1417.27 -130.261 1462.73 -130.261 1499.62 -108.959L1947.95 149.884C1984.85 171.186 2007.58 210.553 2007.58 253.157V770.843C2007.58 813.114 1985.2 852.2 1948.82 873.614L1947.95 874.116L1499.62 1132.96C1463.02 1154.1 1417.98 1154.26 1381.24 1133.46L1380.38 1132.96L932.046 874.116C895.15 852.814 872.421 813.447 872.421 770.843V253.157C872.421 210.553 895.15 171.186 932.046 149.884L1380.38 -108.959Z" stroke="#F0F0F4" style="stroke:#F0F0F4;stroke:color(display-p3 0.9425 0.9425 0.9575);stroke-opacity:1;" stroke-width="1.5"/>
</g>
<defs>
<clipPath id="clip0_14138_17444">
<rect width="1440" height="1024" fill="white" style="fill:white;fill-opacity:1;"/>
</clipPath>
</defs>
</svg>
