<svg width="40" height="40" viewBox="0 0 40 40" fill="none" xmlns="http://www.w3.org/2000/svg">
<rect width="40" height="40" rx="8" fill="#F5F5FF" style="fill:#F5F5FF;fill:color(display-p3 0.9600 0.9600 1.0000);fill-opacity:1;"/>
<path d="M21.5479 11.25C23.3867 11.25 24.8312 11.2503 25.9697 11.3789C27.1317 11.5102 28.0741 11.7837 28.8574 12.4023C29.0919 12.5875 29.3092 12.792 29.5068 13.0137C30.173 13.7609 30.4706 14.6672 30.6123 15.7783C30.7499 16.8577 30.75 18.2235 30.75 19.9473V20.0527C30.75 21.7765 30.7499 23.1423 30.6123 24.2217C30.4706 25.3328 30.173 26.2391 29.5068 26.9863C29.3092 27.208 29.0919 27.4125 28.8574 27.5977C28.0741 28.2163 27.1317 28.4898 25.9697 28.6211C24.8312 28.7497 23.3867 28.75 21.5479 28.75H18.4521C16.6133 28.75 15.1688 28.7497 14.0303 28.6211C12.8683 28.4898 11.9259 28.2163 11.1426 27.5977C10.9081 27.4125 10.6908 27.208 10.4932 26.9863C9.82699 26.2391 9.52939 25.3328 9.3877 24.2217C9.2501 23.1423 9.24999 21.7765 9.25 20.0527V19.9473C9.24999 18.2235 9.2501 16.8577 9.3877 15.7783C9.52939 14.6672 9.82699 13.7609 10.4932 13.0137C10.6908 12.792 10.9081 12.5875 11.1426 12.4023C11.9259 11.7837 12.8683 11.5102 14.0303 11.3789C15.1688 11.2503 16.6133 11.25 18.4521 11.25H21.5479ZM10.7656 17.75C10.7514 18.3961 10.75 19.1378 10.75 20C10.75 21.7885 10.7518 23.0587 10.876 24.0322C10.9975 24.985 11.2257 25.5546 11.6123 25.9883C11.7514 26.1443 11.9054 26.2891 12.0723 26.4209C12.5435 26.793 13.1685 27.0144 14.1992 27.1309C15.2438 27.2488 16.6033 27.25 18.5 27.25H21.5C23.3967 27.25 24.7562 27.2488 25.8008 27.1309C26.8315 27.0144 27.4565 26.793 27.9277 26.4209C28.0946 26.2891 28.2486 26.1443 28.3877 25.9883C28.7743 25.5546 29.0025 24.985 29.124 24.0322C29.2482 23.0587 29.25 21.7885 29.25 20C29.25 19.1378 29.2486 18.3961 29.2344 17.75H10.7656ZM19.5 23.25C19.9142 23.25 20.25 23.5858 20.25 24C20.25 24.4142 19.9142 24.75 19.5 24.75H18C17.5858 24.75 17.25 24.4142 17.25 24C17.25 23.5858 17.5858 23.25 18 23.25H19.5ZM26 23.25C26.4142 23.25 26.75 23.5858 26.75 24C26.75 24.4142 26.4142 24.75 26 24.75H22.5C22.0858 24.75 21.75 24.4142 21.75 24C21.75 23.5858 22.0858 23.25 22.5 23.25H26ZM18.5 12.75C16.6033 12.75 15.2438 12.7512 14.1992 12.8691C13.1685 12.9856 12.5435 13.207 12.0723 13.5791C11.9054 13.7109 11.7514 13.8557 11.6123 14.0117C11.2257 14.4454 10.9975 15.015 10.876 15.9678C10.8643 16.0591 10.8553 16.1532 10.8457 16.25H29.1543C29.1447 16.1532 29.1357 16.0591 29.124 15.9678C29.0025 15.015 28.7743 14.4454 28.3877 14.0117C28.2486 13.8557 28.0946 13.7109 27.9277 13.5791C27.4565 13.207 26.8315 12.9856 25.8008 12.8691C24.7562 12.7512 23.3967 12.75 21.5 12.75H18.5Z" fill="#3638FC" style="fill:#3638FC;fill:color(display-p3 0.2118 0.2196 0.9882);fill-opacity:1;"/>
</svg>
