<svg width="40" height="40" viewBox="0 0 40 40" fill="none" xmlns="http://www.w3.org/2000/svg">
<rect width="40" height="40" rx="8" fill="#F5F5FF" style="fill:#F5F5FF;fill:color(display-p3 0.9600 0.9600 1.0000);fill-opacity:1;"/>
<path d="M26 9.25C26.4142 9.25 26.75 9.58579 26.75 10V10.6357C27.5546 10.8638 28.2339 11.234 28.7988 11.8447C29.5764 12.6856 29.9223 13.7479 30.0879 15.0791C30.2502 16.3839 30.25 18.0568 30.25 20.1904V20.8096C30.25 22.9432 30.2502 24.6161 30.0879 25.9209C29.9223 27.2521 29.5764 28.3144 28.7988 29.1553C28.0133 30.0045 27.0074 30.3903 25.749 30.5732C24.531 30.7503 22.9744 30.75 21.0107 30.75H18.9893C17.0256 30.75 15.469 30.7503 14.251 30.5732C12.9926 30.3903 11.9867 30.0045 11.2012 29.1553C10.4236 28.3144 10.0777 27.2521 9.91211 25.9209C9.74984 24.6161 9.74999 22.9431 9.75 20.8096V20.1904C9.74999 18.0569 9.74984 16.3839 9.91211 15.0791C10.0777 13.7479 10.4236 12.6856 11.2012 11.8447C11.7661 11.234 12.4454 10.8638 13.25 10.6357V10C13.25 9.58579 13.5858 9.25 14 9.25C14.4142 9.25 14.75 9.58579 14.75 10V10.3652C15.886 10.2493 17.2841 10.25 18.9893 10.25H21.0107C22.7159 10.25 24.114 10.2493 25.25 10.3652V10C25.25 9.58579 25.5858 9.25 26 9.25ZM28.709 16.7158C28.6423 16.7353 28.573 16.75 28.5 16.75H11.5C11.4267 16.75 11.357 16.7354 11.29 16.7158C11.2503 17.6796 11.25 18.8341 11.25 20.2432V20.7568C11.25 22.9551 11.251 24.5339 11.4004 25.7354C11.5478 26.9207 11.8286 27.6241 12.3027 28.1367C12.7692 28.641 13.3972 28.9334 14.4668 29.0889C15.5645 29.2484 17.0118 29.25 19.0498 29.25H20.9502C22.9882 29.25 24.4355 29.2484 25.5332 29.0889C26.6028 28.9334 27.2308 28.641 27.6973 28.1367C28.1714 27.6241 28.4522 26.9207 28.5996 25.7354C28.749 24.5339 28.75 22.9551 28.75 20.7568V20.2432C28.75 18.8341 28.7487 17.6796 28.709 16.7158ZM16.0088 24C16.5611 24 17.0088 24.4477 17.0088 25C17.0088 25.5523 16.5611 26 16.0088 26H16C15.4477 26 15 25.5523 15 25C15 24.4477 15.4477 24 16 24H16.0088ZM20.0049 24C20.557 24.0002 21.0049 24.4478 21.0049 25C21.0049 25.5522 20.557 25.9998 20.0049 26H19.9951C19.443 25.9998 18.9951 25.5522 18.9951 25C18.9951 24.4478 19.443 24.0002 19.9951 24H20.0049ZM16.0088 20C16.5611 20 17.0088 20.4477 17.0088 21C17.0088 21.5523 16.5611 22 16.0088 22H16C15.4477 22 15 21.5523 15 21C15 20.4477 15.4477 20 16 20H16.0088ZM20.0049 20C20.557 20.0002 21.0049 20.4478 21.0049 21C21.0049 21.5522 20.557 21.9998 20.0049 22H19.9951C19.443 21.9998 18.9951 21.5522 18.9951 21C18.9951 20.4478 19.443 20.0002 19.9951 20H20.0049ZM24 20C24.5523 20 25 20.4477 25 21C25 21.5523 24.5523 22 24 22H23.9912C23.4389 22 22.9912 21.5523 22.9912 21C22.9912 20.4477 23.4389 20 23.9912 20H24ZM19.0498 11.75C17.1822 11.75 15.811 11.7529 14.75 11.876V12C14.75 12.4142 14.4142 12.75 14 12.75C13.6579 12.75 13.3724 12.5201 13.2822 12.207C12.8736 12.3692 12.5627 12.5823 12.3027 12.8633C11.8297 13.3748 11.549 14.0762 11.4014 15.2568C11.4337 15.2526 11.4665 15.25 11.5 15.25H28.5C28.5331 15.25 28.5657 15.2527 28.5977 15.2568C28.45 14.0762 28.1703 13.3748 27.6973 12.8633C27.4372 12.5821 27.1259 12.3693 26.7168 12.207C26.6266 12.52 26.342 12.75 26 12.75C25.5858 12.75 25.25 12.4142 25.25 12V11.876C24.189 11.7529 22.8178 11.75 20.9502 11.75H19.0498Z" fill="#3638FC" style="fill:#3638FC;fill:color(display-p3 0.2118 0.2196 0.9882);fill-opacity:1;"/>
</svg>
