<svg width="12" height="15" viewBox="0 0 12 15" fill="none" xmlns="http://www.w3.org/2000/svg">
<path d="M5.54004 3.70741e-05C5.94208 -0.00029692 6.25976 -0.00057284 6.55762 0.104529C6.61914 0.126242 6.67942 0.151582 6.73828 0.179725C7.02327 0.316031 7.24811 0.540648 7.53223 0.825232C7.54842 0.841453 7.56445 0.858433 7.58106 0.875037L10.7393 4.03226C10.7585 4.05146 10.7771 4.07116 10.7959 4.08988C11.1253 4.41867 11.386 4.67889 11.5264 5.01762C11.6668 5.35658 11.6665 5.72571 11.666 6.19144V8.53812C11.666 9.76328 11.6666 10.7337 11.5645 11.4932C11.4594 12.2747 11.238 12.9074 10.7393 13.4063C10.2405 13.9051 9.60756 14.1264 8.82617 14.2315C8.06679 14.3336 7.09604 14.334 5.87109 14.334H5.79492C4.56997 14.334 3.59922 14.3336 2.83984 14.2315C2.05846 14.1264 1.42556 13.9051 0.926758 13.4063C0.428007 12.9074 0.206634 12.2747 0.101563 11.4932C-0.000544931 10.7337 -1.00929e-05 9.76328 4.76837e-07 8.53812V5.43851C-7.46822e-06 4.38429 -6.98969e-05 3.54909 0.0771489 2.88773C0.156412 2.20886 0.322608 1.6493 0.701172 1.17972C0.842851 1.004 1.003 0.843873 1.17871 0.702186C1.64826 0.323603 2.2079 0.157443 2.88672 0.0781621C3.54816 0.000934638 4.38408 2.91268e-05 5.43848 3.70741e-05H5.54004ZM5.4707 1.00004C4.37695 1.00004 3.59962 1.00166 3.00293 1.07133C2.4171 1.13973 2.06968 1.26847 1.80664 1.48051C1.68638 1.57747 1.57645 1.6874 1.47949 1.80765C1.26757 2.07066 1.13869 2.41829 1.07031 3.00394C1.00068 3.60055 1 4.37729 1 5.47074V8.50004C1 9.77125 1.00066 10.6753 1.09277 11.3604C1.18294 12.0307 1.35185 12.4172 1.63379 12.6993C1.91593 12.9814 2.30291 13.1501 2.97363 13.2403C3.65874 13.3324 4.5618 13.334 5.83301 13.334C7.10421 13.334 8.00727 13.3324 8.69238 13.2403C9.36311 13.1501 9.75009 12.9814 10.0322 12.6993C10.3142 12.4172 10.4831 12.0307 10.5732 11.3604C10.6654 10.6753 10.666 9.77125 10.666 8.50004V6.27152C10.666 5.97971 10.6642 5.79505 10.6553 5.66703H10.4629C9.55126 5.66704 8.81622 5.66758 8.23828 5.58988C7.63828 5.50919 7.13269 5.33585 6.73145 4.93461C6.33053 4.53348 6.15782 4.02845 6.07715 3.42875C5.99945 2.85086 5.99999 2.11567 6 1.20414V1.00883C5.88884 1.00174 5.72776 1.00004 5.4707 1.00004ZM8.5 10C8.77587 10.0002 8.9998 10.2242 9 10.5C9 10.7761 8.77599 10.9999 8.5 11H3.16602C2.89002 10.9999 2.66602 10.7761 2.66602 10.5C2.66621 10.2242 2.89014 10.0002 3.16602 10H8.5ZM5.83301 7.33402C6.10915 7.33402 6.33301 7.55788 6.33301 7.83402C6.33285 8.11003 6.10905 8.33402 5.83301 8.33402H3.16602C2.89012 8.33385 2.66617 8.10992 2.66602 7.83402C2.66602 7.55799 2.89002 7.3342 3.16602 7.33402H5.83301ZM7 1.70804C7.00244 2.38457 7.01423 2.89226 7.06836 3.29496C7.13413 3.78414 7.25494 4.04307 7.43945 4.22758C7.62396 4.41203 7.88298 4.53291 8.37207 4.59867C8.77474 4.65277 9.28259 4.66361 9.95898 4.66605L7 1.70804Z" fill="#1EA5DB" style="fill:#1EA5DB;fill:color(display-p3 0.1176 0.6471 0.8588);fill-opacity:1;"/>
</svg>
