<svg width="14" height="9" viewBox="0 0 14 9" fill="none" xmlns="http://www.w3.org/2000/svg">
<path d="M3.91504 0.164722C4.1347 -0.0549077 4.4903 -0.054907 4.70996 0.164722C4.92962 0.384382 4.9296 0.739972 4.70996 0.959644L1.9209 3.74968H12.5625C12.8731 3.74968 13.1249 4.00163 13.125 4.31218C13.125 4.62284 12.8732 4.87468 12.5625 4.87468H1.9209L4.70996 7.66472C4.92961 7.88438 4.92958 8.23997 4.70996 8.45964C4.49029 8.67931 4.13471 8.67932 3.91504 8.45964L0.165039 4.71062C0.113017 4.65869 0.072523 4.596 0.0439453 4.52703C0.036324 4.50861 0.0319475 4.48936 0.0263672 4.47039C0.0115353 4.41996 0 4.36741 0 4.31218C2.36292e-05 4.25655 0.0113001 4.20375 0.0263672 4.153C0.0319774 4.13405 0.0362974 4.11476 0.0439453 4.09636C0.0724653 4.02799 0.113445 3.96628 0.165039 3.91472L3.91504 0.164722Z" fill="#5A5AED" style="fill:#5A5AED;fill:color(display-p3 0.3510 0.3510 0.9276);fill-opacity:1;"/>
</svg>
