<svg width="18" height="18" viewBox="0 0 18 18" fill="none" xmlns="http://www.w3.org/2000/svg">
<path d="M9.12288 1.3125C9.61457 1.31248 10.0382 1.31214 10.3856 1.3584C10.7614 1.40849 11.1037 1.51856 11.408 1.77442C11.705 2.02417 11.8881 2.34791 12.036 2.71875C12.1653 3.04309 12.2842 3.45025 12.4237 3.9375H14.5135C15.6003 3.9375 16.2457 4.74224 16.5135 5.55664C16.7791 6.36445 16.7486 7.35858 16.3621 8.09375C16.3448 8.12678 16.3253 8.15888 16.3075 8.19141C16.3105 8.22045 16.313 8.25019 16.3114 8.28028L16.1971 10.4229V10.4277L16.1952 10.4639C16.1352 11.7841 16.0873 12.8314 15.9412 13.6494C15.7909 14.4916 15.5243 15.1699 14.9696 15.7002C14.4145 16.2306 13.7243 16.4671 12.8758 16.5791C12.052 16.6878 11.004 16.6875 9.68246 16.6875H8.31722C6.99577 16.6875 5.94761 16.6878 5.12386 16.5791C4.27541 16.4671 3.58514 16.2306 3.03011 15.7002C2.47534 15.1699 2.20882 14.4917 2.05843 13.6494C1.9124 12.8314 1.86452 11.7841 1.80453 10.4639L1.80257 10.4248L1.68831 8.28028C1.68671 8.25019 1.6892 8.22046 1.69222 8.19141C1.67432 8.15885 1.65492 8.12681 1.63753 8.09375C1.25099 7.35856 1.22051 6.36448 1.48617 5.55664C1.75399 4.74224 2.3994 3.9375 3.48617 3.9375H5.57699C5.71648 3.45029 5.83536 3.04307 5.96468 2.71875C6.11258 2.34796 6.29564 2.02414 6.59261 1.77442C6.89701 1.51862 7.23921 1.40846 7.61507 1.3584C7.9623 1.31216 8.38532 1.31248 8.87679 1.3125H9.12288ZM15.1073 9.71973C13.6321 11.0799 11.5517 11.7007 9.56234 11.7979V12.375C9.56234 12.6856 9.31047 12.9375 8.99984 12.9375C8.68918 12.9375 8.43734 12.6857 8.43734 12.375V11.7979C6.44774 11.7007 4.36665 11.0802 2.89144 9.71973L2.9266 10.3721C2.98889 11.7424 3.03443 12.7148 3.16585 13.4512C3.29447 14.1716 3.4928 14.587 3.80746 14.8877C4.1221 15.1883 4.54594 15.3681 5.27132 15.4639C6.01289 15.5617 6.98648 15.5625 8.35824 15.5625H9.64144C11.0132 15.5625 11.9868 15.5617 12.7284 15.4639C13.4538 15.3681 13.8776 15.1883 14.1922 14.8877C14.5069 14.587 14.7052 14.1716 14.8338 13.4512C14.9652 12.7148 15.0108 11.7424 15.0731 10.3721V10.3672L15.1073 9.71973ZM3.48617 5.0625C3.0746 5.0625 2.73952 5.34568 2.55453 5.90821C2.36752 6.47705 2.41107 7.1487 2.63265 7.57031C3.76658 9.72659 6.37993 10.6875 8.99984 10.6875C11.6197 10.6875 14.2321 9.72652 15.366 7.57031C15.5878 7.14872 15.6322 6.47717 15.4452 5.90821C15.2602 5.34568 14.9251 5.0625 14.5135 5.0625H3.48617ZM8.91195 2.4375C8.37537 2.4375 8.02782 2.43843 7.76351 2.47363C7.51962 2.50612 7.40456 2.5615 7.31624 2.63574C7.22055 2.71622 7.12484 2.8468 7.0096 3.13574C6.92695 3.34302 6.84733 3.60112 6.74886 3.9375H11.2518C11.1533 3.60107 11.0737 3.34304 10.991 3.13574C10.8759 2.84687 10.7801 2.71624 10.6844 2.63574C10.5961 2.56151 10.4808 2.50613 10.2371 2.47363C9.97276 2.43842 9.62458 2.4375 9.08773 2.4375H8.91195Z" fill="#141415" style="fill:#141415;fill:color(display-p3 0.0784 0.0784 0.0816);fill-opacity:1;"/>
</svg>
