<svg width="14" height="15" viewBox="0 0 14 15" fill="none" xmlns="http://www.w3.org/2000/svg">
<path d="M10.833 0C11.109 0 11.3328 0.224007 11.333 0.5V0.924805C11.8692 1.07682 12.3218 1.32265 12.6982 1.72949C13.2168 2.29015 13.4482 2.99899 13.5586 3.88672C13.6668 4.75657 13.666 5.87161 13.666 7.29395V7.70703C13.666 9.12938 13.6668 10.2444 13.5586 11.1143C13.4482 12.0019 13.2168 12.7099 12.6982 13.2705C12.1745 13.8367 11.504 14.0939 10.665 14.2158C9.85309 14.3338 8.81572 14.334 7.50684 14.334H6.15918C4.8503 14.334 3.81293 14.3338 3.00098 14.2158C2.162 14.0939 1.4915 13.8367 0.967774 13.2705C0.449209 12.7099 0.217833 12.0019 0.107422 11.1143C-0.000754875 10.2444 -6.91396e-06 9.12938 4.76837e-07 7.70703L4.76837e-07 7.29395C-6.91385e-06 5.87162 -0.000743564 4.75657 0.107422 3.88672C0.217822 2.99899 0.449167 2.29015 0.967774 1.72949C1.34425 1.32265 1.79684 1.07682 2.33301 0.924805L2.33301 0.5C2.33318 0.224007 2.55697 7.24041e-08 2.83301 0C3.10904 0 3.33283 0.224007 3.33301 0.5V0.744141C4.09038 0.666859 5.02237 0.666981 6.15918 0.666992L7.50684 0.666992C8.64364 0.666981 9.57564 0.666859 10.333 0.744141V0.5C10.3332 0.224007 10.557 2.01122e-07 10.833 0ZM12.6357 4.97852C12.5923 4.99084 12.5473 4.99997 12.5 5L1.16602 5C1.11834 4.99997 1.07297 4.99101 1.0293 4.97852C1.00283 5.62086 1 6.39017 1 7.3291V7.67188C1 9.13704 1.00102 10.1894 1.10059 10.9902C1.19886 11.7805 1.38509 12.25 1.70117 12.5918C2.01219 12.928 2.43136 13.1219 3.14453 13.2256C3.87625 13.3319 4.84077 13.334 6.19922 13.334H7.4668C8.82525 13.334 9.78977 13.3319 10.5215 13.2256C11.2347 13.1219 11.6538 12.928 11.9648 12.5918C12.2809 12.25 12.4672 11.7805 12.5654 10.9902C12.665 10.1894 12.666 9.13704 12.666 7.67187V7.3291C12.666 6.39015 12.6622 5.62087 12.6357 4.97852ZM4.17188 9.83398C4.53996 9.83398 4.83869 10.132 4.83887 10.5C4.83887 10.8682 4.54007 11.167 4.17188 11.167H4.16602C3.79798 11.1668 3.5 10.8681 3.5 10.5C3.50018 10.1321 3.79808 9.83416 4.16602 9.83398H4.17188ZM6.83594 9.83398C7.20402 9.83398 7.50275 10.132 7.50293 10.5C7.50293 10.8682 7.20413 11.167 6.83594 11.167H6.83008C6.46189 11.167 6.16309 10.8682 6.16309 10.5C6.16326 10.132 6.462 9.83398 6.83008 9.83398H6.83594ZM4.17188 7.16699C4.54007 7.16699 4.83887 7.46579 4.83887 7.83398C4.83869 8.20202 4.53996 8.5 4.17188 8.5H4.16602C3.79808 8.49982 3.50018 8.20192 3.5 7.83398C3.5 7.4659 3.79798 7.16717 4.16602 7.16699H4.17188ZM6.83594 7.16699C7.20413 7.16699 7.50293 7.46579 7.50293 7.83398C7.50275 8.20202 7.20402 8.5 6.83594 8.5H6.83008C6.462 8.5 6.16326 8.20202 6.16309 7.83398C6.16309 7.46579 6.46189 7.16699 6.83008 7.16699H6.83594ZM9.5 7.16699C9.86804 7.16717 10.166 7.4659 10.166 7.83398C10.1658 8.20192 9.86793 8.49982 9.5 8.5H9.49414C9.12606 8.5 8.82732 8.20202 8.82715 7.83398C8.82715 7.46579 9.12595 7.16699 9.49414 7.16699H9.5ZM6.19922 1.66699C4.9543 1.66699 4.04027 1.66896 3.33301 1.75098V1.83398C3.33283 2.10998 3.10904 2.33398 2.83301 2.33398C2.60495 2.33398 2.41459 2.1804 2.35449 1.97168C2.08206 2.07981 1.87445 2.22185 1.70117 2.40918C1.38562 2.75046 1.19895 3.21869 1.10059 4.00684C1.12209 4.004 1.14374 4.00001 1.16602 4L12.5 4C12.5219 4.00001 12.5433 4.00408 12.5645 4.00684C12.4661 3.21876 12.2804 2.75044 11.9648 2.40918C11.7914 2.22166 11.5834 2.07985 11.3105 1.97168C11.2504 2.18026 11.061 2.33398 10.833 2.33398C10.557 2.33398 10.3332 2.10998 10.333 1.83398V1.75098C9.62574 1.66896 8.71171 1.66699 7.4668 1.66699L6.19922 1.66699Z" fill="#7D7D82" style="fill:#7D7D82;fill:color(display-p3 0.4900 0.4900 0.5100);fill-opacity:1;"/>
</svg>
