<svg width="15" height="15" viewBox="0 0 15 15" fill="none" xmlns="http://www.w3.org/2000/svg">
<path d="M7.16699 0C11.125 2.25487e-07 14.334 3.20895 14.334 7.16699C14.334 11.125 11.125 14.334 7.16699 14.334C3.20895 14.334 2.2548e-07 11.125 0 7.16699C0 3.20895 3.20895 0 7.16699 0ZM7.16699 1C3.76124 1 1 3.76124 1 7.16699C1 10.5727 3.76124 13.334 7.16699 13.334C10.5727 13.334 13.334 10.5727 13.334 7.16699C13.334 3.76124 10.5727 1 7.16699 1ZM7.16699 4C7.44303 4 7.66682 4.22401 7.66699 4.5L7.66699 6.95996L8.85352 8.14648C9.04878 8.34175 9.04878 8.65825 8.85352 8.85352C8.65825 9.04878 8.34175 9.04878 8.14648 8.85352L6.81348 7.52051C6.71971 7.42674 6.66699 7.2996 6.66699 7.16699L6.66699 4.5C6.66717 4.22401 6.89096 4 7.16699 4Z" fill="#7D7D82" style="fill:#7D7D82;fill:color(display-p3 0.4900 0.4900 0.5100);fill-opacity:1;"/>
</svg>
