<svg width="16" height="16" viewBox="0 0 16 16" fill="none" xmlns="http://www.w3.org/2000/svg">
<path d="M6.36523 0.832031C7.43328 0.832023 8.2798 0.832005 8.94922 0.911133C9.63636 0.992387 10.2023 1.163 10.6748 1.55078C10.8351 1.68235 10.9817 1.82992 11.1133 1.99023C11.4809 2.43815 11.654 2.96968 11.7402 3.60938C11.8102 4.12875 11.8249 4.75402 11.8291 5.50684C12.2445 5.5155 12.6093 5.53447 12.9268 5.57715C13.5268 5.65783 14.0323 5.83017 14.4336 6.23145C14.8348 6.6327 15.0072 7.13829 15.0879 7.73828C15.1655 8.3162 15.166 9.05137 15.166 9.96289V10.7021C15.166 11.6138 15.1656 12.3488 15.0879 12.9268C15.0072 13.5268 14.8349 14.0323 14.4336 14.4336C14.0323 14.8349 13.5268 15.0072 12.9268 15.0879C12.3488 15.1656 11.6138 15.166 10.7021 15.166H9.96289C9.05137 15.166 8.3162 15.1655 7.73828 15.0879C7.13829 15.0072 6.6327 14.8348 6.23145 14.4336C5.83017 14.0323 5.65783 13.5268 5.57715 12.9268C5.53447 12.6093 5.5155 12.2445 5.50684 11.8291C4.75402 11.8249 4.12875 11.8102 3.60938 11.7402C2.96968 11.654 2.43815 11.4809 1.99023 11.1133C1.82992 10.9817 1.68235 10.8351 1.55078 10.6748C1.163 10.2023 0.992387 9.63636 0.911133 8.94922C0.832005 8.2798 0.832023 7.43328 0.832031 6.36523V6.2998C0.832023 5.23163 0.831999 4.3853 0.911133 3.71582C0.992361 3.02863 1.16305 2.46281 1.55078 1.99023C1.68237 1.82989 1.82989 1.68237 1.99023 1.55078C2.46281 1.16305 3.02863 0.992361 3.71582 0.911133C4.3853 0.831999 5.23163 0.832023 6.2998 0.832031H6.36523ZM9.99902 6.49902C9.04211 6.49902 8.37466 6.49969 7.87109 6.56738C7.38191 6.63315 7.12299 6.75397 6.93848 6.93848C6.75397 7.12299 6.63315 7.38191 6.56738 7.87109C6.49969 8.37466 6.49902 9.04211 6.49902 9.99902V10.666C6.49902 11.6228 6.49969 12.2904 6.56738 12.7939C6.63316 13.283 6.754 13.5421 6.93848 13.7266C7.12297 13.911 7.38208 14.0309 7.87109 14.0967C8.37466 14.1644 9.04208 14.166 9.99902 14.166H10.666C11.6228 14.166 12.2904 14.1644 12.7939 14.0967C13.2829 14.0309 13.5421 13.911 13.7266 13.7266C13.911 13.5421 14.0309 13.2829 14.0967 12.7939C14.1644 12.2904 14.166 11.6228 14.166 10.666V9.99902C14.166 9.04208 14.1644 8.37466 14.0967 7.87109C14.0309 7.38208 13.911 7.12297 13.7266 6.93848C13.5421 6.754 13.283 6.63316 12.7939 6.56738C12.2904 6.49969 11.6228 6.49902 10.666 6.49902H9.99902ZM6.33203 1.83203C5.22413 1.83203 4.43689 1.83292 3.83301 1.9043C3.24022 1.97439 2.88893 2.10682 2.62402 2.32422C2.51454 2.4141 2.4141 2.51454 2.32422 2.62402C2.10682 2.88893 1.97439 3.24022 1.9043 3.83301C1.83292 4.43689 1.83203 5.22413 1.83203 6.33203C1.83203 7.43984 1.83296 8.22717 1.9043 8.83105C1.97437 9.4239 2.10683 9.77511 2.32422 10.04C2.41421 10.1497 2.51438 10.2508 2.62402 10.3408C2.8753 10.547 3.20465 10.6765 3.74316 10.749C4.19582 10.81 4.75909 10.8247 5.49902 10.8291V9.96289C5.49901 9.05135 5.49949 8.3162 5.57715 7.73828C5.65783 7.13821 5.83017 6.63272 6.23145 6.23145C6.63272 5.83017 7.13821 5.65783 7.73828 5.57715C8.31621 5.49949 9.05135 5.49901 9.96289 5.49902H10.8291C10.8247 4.75909 10.81 4.19582 10.749 3.74316C10.6765 3.20465 10.547 2.8753 10.3408 2.62402C10.2508 2.51438 10.1497 2.41421 10.04 2.32422C9.77511 2.10683 9.4239 1.97437 8.83105 1.9043C8.22717 1.83296 7.43983 1.83203 6.33203 1.83203Z" fill="#141415" style="fill:#141415;fill:color(display-p3 0.0784 0.0784 0.0816);fill-opacity:1;"/>
</svg>
