<svg width="18" height="18" viewBox="0 0 18 18" fill="none" xmlns="http://www.w3.org/2000/svg">
<path fill-rule="evenodd" clip-rule="evenodd" d="M1.89648 7.94238C2.06659 7.68243 2.41583 7.60919 2.67578 7.7793C2.93549 7.9494 3.00777 8.29776 2.83789 8.55762C2.34746 9.30707 2.0625 10.2032 2.0625 11.167C2.06268 13.8016 4.19841 15.9373 6.83301 15.9375C7.7968 15.9375 8.69295 15.6526 9.44238 15.1621C9.70222 14.9922 10.0506 15.0645 10.2207 15.3242C10.3908 15.5842 10.3176 15.9334 10.0576 16.1035C9.13073 16.71 8.02206 17.0625 6.83301 17.0625C3.57709 17.0623 0.937677 14.4229 0.9375 11.167C0.9375 9.97795 1.29004 8.86926 1.89648 7.94238ZM10.5 0.9375C14.1244 0.9375 17.0625 3.87563 17.0625 7.5C17.0625 11.1244 14.1244 14.0625 10.5 14.0625C6.87563 14.0625 3.9375 11.1244 3.9375 7.5C3.9375 3.87563 6.87563 0.9375 10.5 0.9375ZM10.5 2.0625C7.49695 2.0625 5.0625 4.49695 5.0625 7.5C5.0625 10.5031 7.49695 12.9375 10.5 12.9375C13.5031 12.9375 15.9375 10.5031 15.9375 7.5C15.9375 4.49695 13.5031 2.0625 10.5 2.0625ZM10.6768 6.88379C10.69 6.88401 10.704 6.88455 10.7178 6.88477C10.8413 6.88668 10.9843 6.88851 11.1211 6.90234C11.4632 6.93701 11.8176 7.04936 12.1367 7.39355C12.4767 7.76039 12.622 8.35465 12.542 8.8877C12.4551 9.46565 12.0908 10.0495 11.3398 10.2871C11.2442 10.3174 11.1474 10.3421 11.0518 10.3613V10.5059C11.0518 10.8165 10.7999 11.0684 10.4893 11.0684C10.1788 11.0681 9.92676 10.8164 9.92676 10.5059V10.3447C9.78178 10.3101 9.6427 10.2633 9.51172 10.2051C8.99666 9.97603 8.53874 9.53536 8.44531 8.92773C8.39811 8.6207 8.60898 8.33336 8.91602 8.28613C9.22307 8.23893 9.51041 8.44978 9.55762 8.75684C9.57573 8.8742 9.68601 9.05102 9.96875 9.17676C10.1191 9.24361 10.3325 9.28913 10.4971 9.28906L10.5225 8.00488C10.5472 8.00559 10.5713 8.00635 10.5947 8.00684L10.5654 6.87988C10.6022 6.88088 10.6392 6.88316 10.6768 6.88379ZM10.6279 9.28613C10.7543 9.27822 10.8714 9.25548 11 9.21484C11.2822 9.12562 11.3968 8.93957 11.4297 8.7207C11.4693 8.457 11.3756 8.22733 11.3115 8.1582C11.2264 8.06643 11.1569 8.03756 11.0078 8.02246C10.9213 8.01371 10.8269 8.01199 10.6914 8.00977C10.6806 8.00959 10.6695 8.00898 10.6582 8.00879C10.6376 8.00844 10.6165 8.00728 10.5947 8.00684L10.6279 9.28613ZM10.5352 5.7207C10.3992 5.71985 10.2489 5.7521 10.0879 5.82715C9.78166 5.97001 9.64383 6.25417 9.6543 6.45312C9.65908 6.54201 9.69131 6.61754 9.75879 6.68066C9.82985 6.74709 9.97631 6.83342 10.2598 6.86328C10.3574 6.87357 10.4507 6.87705 10.5449 6.87988L10.5225 8.00488C10.4081 8.00161 10.2796 7.99696 10.1416 7.98242C9.67591 7.93333 9.28011 7.77388 8.99023 7.50293C8.69687 7.22867 8.54963 6.87362 8.53027 6.51367C8.49286 5.81513 8.92863 5.12655 9.6123 4.80762C9.71816 4.75827 9.82328 4.71724 9.92676 4.68555V4.50586C9.92676 4.19535 10.1788 3.94361 10.4893 3.94336L10.5352 5.7207ZM10.5654 6.87988C10.5586 6.8797 10.5517 6.88009 10.5449 6.87988L10.5537 6.43652L10.5654 6.87988ZM10.6035 3.95508C10.8596 4.00771 11.0518 4.2342 11.0518 4.50586V4.66504C11.7284 4.85836 12.2308 5.41486 12.376 6.02734C12.4473 6.32949 12.2602 6.6325 11.958 6.7041C11.6558 6.77561 11.3529 6.58836 11.2812 6.28613C11.2173 6.01676 10.9523 5.73975 10.5674 5.72266L10.6035 3.95508ZM10.5674 5.72266L10.5537 6.43652L10.5352 5.7207C10.546 5.72077 10.5567 5.72218 10.5674 5.72266Z" fill="#FFAB4B" style="fill:#FFAB4B;fill:color(display-p3 1.0000 0.6712 0.2955);fill-opacity:1;"/>
</svg>
