<svg width="16" height="16" viewBox="0 0 16 16" fill="none" xmlns="http://www.w3.org/2000/svg">
<path fill-rule="evenodd" clip-rule="evenodd" d="M6.90801 1.34376C7.6176 1.10823 8.38201 1.10823 9.0916 1.34376C9.7983 1.57834 10.3535 2.13433 10.9109 2.91602C11.4665 3.69512 12.0806 4.7814 12.8719 6.18165L12.9031 6.23634C13.6946 7.63682 14.3077 8.72359 14.6902 9.6045C15.0747 10.4897 15.2668 11.254 15.1141 11.9883C14.9602 12.7275 14.5805 13.4001 14.0281 13.9082C13.4771 14.4149 12.7266 14.6288 11.782 14.7315C10.8426 14.8336 9.61355 14.833 8.03203 14.833H7.96758C6.38605 14.833 5.15697 14.8336 4.21758 14.7315C3.27299 14.6288 2.5225 14.4149 1.97148 13.9082C1.41912 13.4001 1.03938 12.7275 0.885547 11.9883C0.732777 11.254 0.924939 10.4897 1.30938 9.6045C1.69195 8.72359 2.30501 7.63683 3.09648 6.23634L3.12773 6.18165C3.91906 4.7814 4.53309 3.69512 5.08867 2.91602C5.64611 2.13433 6.20131 1.57834 6.90801 1.34376ZM8.77715 2.292C8.27205 2.12434 7.72756 2.12434 7.22246 2.292C6.82521 2.42394 6.42616 2.76363 5.90313 3.49708C5.38187 4.22808 4.79327 5.26779 3.9832 6.70118C3.17304 8.13474 2.58553 9.17593 2.22637 10.0029C1.86668 10.8312 1.77652 11.3585 1.86504 11.7842C1.97678 12.3212 2.25146 12.8069 2.64824 13.1719C2.95987 13.4585 3.44597 13.6416 4.32598 13.7373C5.20487 13.8328 6.37918 13.833 7.9998 13.833C9.62043 13.833 10.7947 13.8328 11.6736 13.7373C12.5536 13.6416 13.0397 13.4585 13.3514 13.1719C13.7481 12.8069 14.0228 12.3212 14.1346 11.7842C14.2231 11.3585 14.1329 10.8312 13.7732 10.0029C13.4141 9.17593 12.8266 8.13474 12.0164 6.70118C11.2063 5.26779 10.6177 4.22807 10.0965 3.49708C9.57345 2.76363 9.17441 2.42393 8.77715 2.292ZM7.51738 7.50001C7.65397 7.49995 7.80184 7.49989 7.92656 7.51661C8.07272 7.53626 8.25963 7.58709 8.4168 7.74415C8.574 7.90135 8.62468 8.08817 8.64434 8.23438C8.66111 8.35914 8.66099 8.50688 8.66094 8.64356V11.333C8.66094 11.6092 8.43708 11.833 8.16094 11.833C7.88495 11.8328 7.66094 11.609 7.66094 11.333V8.50098C7.61471 8.50024 7.56083 8.50001 7.49492 8.50001C7.21878 8.50001 6.99492 8.27615 6.99492 8.00001C6.99493 7.72388 7.21879 7.50001 7.49492 7.50001C7.50237 7.50001 7.50986 7.50001 7.51738 7.50001ZM8.00078 5.33302C8.36888 5.33312 8.66679 5.63189 8.6668 6.00001C8.6668 6.36813 8.36888 6.66689 8.00078 6.667H7.99492C7.62673 6.667 7.32793 6.3682 7.32793 6.00001C7.32794 5.63182 7.62674 5.33302 7.99492 5.33302H8.00078Z" fill="#FF853E" style="fill:#FF853E;fill:color(display-p3 1.0000 0.5207 0.2432);fill-opacity:1;"/>
</svg>
