<svg width="16" height="16" viewBox="0 0 16 16" fill="none" xmlns="http://www.w3.org/2000/svg">
<path d="M5.36816 7.5C5.96708 7.49998 6.4668 7.5004 6.86328 7.55371C7.28167 7.61 7.65933 7.73355 7.96289 8.03711C8.26645 8.34067 8.39 8.71833 8.44629 9.13672C8.4996 9.5332 8.50002 10.0329 8.5 10.6318V12.0342C8.50002 12.633 8.49956 13.1328 8.44629 13.5293C8.39002 13.9478 8.26654 14.3262 7.96289 14.6299C7.65935 14.9333 7.28162 15.057 6.86328 15.1133C6.4668 15.1666 5.96708 15.167 5.36816 15.167H3.96582C3.367 15.167 2.86717 15.1665 2.4707 15.1133C2.05217 15.057 1.67376 14.9335 1.37012 14.6299C1.06647 14.3262 0.942988 13.9478 0.886719 13.5293C0.833468 13.1329 0.832988 12.6338 0.833008 12.0352V10.6318C0.832988 10.0329 0.833413 9.5332 0.886719 9.13672C0.942998 8.71839 1.06666 8.34065 1.37012 8.03711C1.67376 7.73346 2.05217 7.60998 2.4707 7.55371C2.86718 7.50044 3.36698 7.49998 3.96582 7.5H5.36816ZM12.6836 10.167C12.9799 10.167 13.2276 10.1668 13.4307 10.1807C13.6419 10.1951 13.8417 10.2265 14.0352 10.3066C14.4842 10.4928 14.8413 10.8497 15.0273 11.2988C15.1074 11.4923 15.1379 11.6921 15.1523 11.9033C15.1662 12.1063 15.167 12.3534 15.167 12.6494V12.6836C15.167 12.9799 15.1662 13.2276 15.1523 13.4307C15.1379 13.6419 15.1075 13.8417 15.0273 14.0352C14.8413 14.4843 14.4843 14.8413 14.0352 15.0273C13.8417 15.1075 13.6419 15.1379 13.4307 15.1523C13.2276 15.1662 12.9799 15.167 12.6836 15.167H12.6494C12.3534 15.167 12.1063 15.1662 11.9033 15.1523C11.6921 15.1379 11.4923 15.1074 11.2988 15.0273C10.8497 14.8413 10.4928 14.4842 10.3066 14.0352C10.2265 13.8417 10.1951 13.6419 10.1807 13.4307C10.1668 13.2276 10.167 12.9799 10.167 12.6836V12.6494C10.167 12.3534 10.1668 12.1063 10.1807 11.9033C10.1951 11.692 10.2265 11.4924 10.3066 11.2988C10.4927 10.8496 10.8496 10.4927 11.2988 10.3066C11.4924 10.2265 11.692 10.1951 11.9033 10.1807C12.1063 10.1668 12.3534 10.167 12.6494 10.167H12.6836ZM4 8.5C3.35733 8.5 2.92554 8.50065 2.60352 8.54395C2.29589 8.58531 2.16402 8.65727 2.07715 8.74414C1.99034 8.83102 1.91927 8.96306 1.87793 9.27051C1.83466 9.59251 1.83301 10.0245 1.83301 10.667V12C1.83301 12.6427 1.83463 13.0745 1.87793 13.3965C1.91929 13.704 1.99028 13.836 2.07715 13.9229C2.16402 14.0097 2.29595 14.0807 2.60352 14.1221C2.92554 14.1654 3.35733 14.167 4 14.167H5.33301C5.97554 14.167 6.40749 14.1653 6.72949 14.1221C7.03694 14.0807 7.16898 14.0097 7.25586 13.9229C7.34273 13.836 7.41469 13.7041 7.45605 13.3965C7.49935 13.0745 7.5 12.6427 7.5 12V10.667C7.5 10.0245 7.49931 9.5925 7.45605 9.27051C7.41469 8.96287 7.34274 8.83102 7.25586 8.74414C7.16898 8.65726 7.03713 8.58531 6.72949 8.54395C6.4075 8.50069 5.97548 8.5 5.33301 8.5H4ZM12.667 11.167C12.3495 11.167 12.1357 11.1665 11.9707 11.1777C11.8105 11.1887 11.7321 11.2092 11.6807 11.2305C11.4769 11.315 11.315 11.4769 11.2305 11.6807C11.2092 11.7321 11.1887 11.8105 11.1777 11.9707C11.1665 12.1357 11.167 12.3495 11.167 12.667C11.167 12.9843 11.1665 13.1974 11.1777 13.3623C11.1887 13.5227 11.2092 13.6009 11.2305 13.6523C11.315 13.8563 11.4767 14.0189 11.6807 14.1035C11.7321 14.1248 11.8105 14.1443 11.9707 14.1553C12.1357 14.1665 12.3495 14.167 12.667 14.167C12.9843 14.167 13.1974 14.1665 13.3623 14.1553C13.5227 14.1443 13.6009 14.1248 13.6523 14.1035C13.8565 14.0189 14.0189 13.8565 14.1035 13.6523C14.1248 13.6009 14.1443 13.5227 14.1553 13.3623C14.1665 13.1974 14.167 12.9843 14.167 12.667C14.167 12.3495 14.1665 12.1357 14.1553 11.9707C14.1443 11.8105 14.1248 11.7321 14.1035 11.6807C14.0189 11.4767 13.8563 11.315 13.6523 11.2305C13.6009 11.2092 13.5227 11.1887 13.3623 11.1777C13.1974 11.1665 12.9843 11.167 12.667 11.167ZM12.6836 0.833008C12.9799 0.833003 13.2276 0.833802 13.4307 0.847656C13.6419 0.862093 13.8417 0.892525 14.0352 0.972656C14.4843 1.15873 14.8413 1.51572 15.0273 1.96484C15.1075 2.1583 15.1379 2.3581 15.1523 2.56934C15.1662 2.77239 15.167 3.02014 15.167 3.31641V6.0166C15.167 6.31291 15.1662 6.5606 15.1523 6.76367C15.1379 6.97497 15.1075 7.17466 15.0273 7.36816C14.8413 7.8173 14.4843 8.17425 14.0352 8.36035C13.8417 8.44049 13.6419 8.47189 13.4307 8.48633C13.2276 8.50018 12.9799 8.50001 12.6836 8.5H12.6494C12.3534 8.50001 12.1063 8.50016 11.9033 8.48633C11.692 8.47191 11.4923 8.44044 11.2988 8.36035C10.8496 8.17429 10.4927 7.81735 10.3066 7.36816C10.2265 7.1746 10.1951 6.97503 10.1807 6.76367C10.1668 6.5606 10.167 6.31291 10.167 6.0166V3.31641C10.167 3.02014 10.1668 2.77239 10.1807 2.56934C10.1951 2.3581 10.2265 2.15831 10.3066 1.96484C10.4928 1.51579 10.8497 1.15868 11.2988 0.972656C11.4923 0.892601 11.6921 0.862069 11.9033 0.847656C12.1063 0.83382 12.3534 0.833003 12.6494 0.833008H12.6836ZM12.667 1.83301C12.3495 1.83301 12.1357 1.83347 11.9707 1.84473C11.8105 1.85568 11.7321 1.8752 11.6807 1.89648C11.4767 1.98106 11.315 2.14366 11.2305 2.34766C11.2092 2.39908 11.1887 2.47728 11.1777 2.6377C11.1665 2.80261 11.167 3.01572 11.167 3.33301V6C11.167 6.31733 11.1665 6.53037 11.1777 6.69531C11.1887 6.85574 11.2092 6.93392 11.2305 6.98535C11.315 7.18941 11.4767 7.3519 11.6807 7.43652C11.732 7.45781 11.8105 7.47732 11.9707 7.48828C12.1357 7.49954 12.3495 7.5 12.667 7.5C12.9843 7.5 13.1974 7.49953 13.3623 7.48828C13.5227 7.47733 13.6009 7.45782 13.6523 7.43652C13.8565 7.35193 14.019 7.18951 14.1035 6.98535C14.1248 6.93391 14.1443 6.8555 14.1553 6.69531C14.1665 6.53036 14.167 6.31734 14.167 6V3.33301C14.167 3.01572 14.1665 2.80261 14.1553 2.6377C14.1443 2.4773 14.1248 2.39908 14.1035 2.34766C14.0189 2.14347 13.8565 1.98106 13.6523 1.89648C13.6009 1.87519 13.5227 1.85568 13.3623 1.84473C13.1974 1.83347 12.9843 1.83301 12.667 1.83301ZM6.0166 0.833008C6.31291 0.833003 6.5606 0.833801 6.76367 0.847656C6.97497 0.86208 7.17466 0.892532 7.36816 0.972656C7.8173 1.1587 8.17425 1.51574 8.36035 1.96484C8.44049 2.15831 8.47189 2.35809 8.48633 2.56934C8.50018 2.77239 8.50001 3.02014 8.5 3.31641V3.35059C8.50001 3.64659 8.50016 3.89375 8.48633 4.09668C8.47191 4.30796 8.44044 4.50768 8.36035 4.70117C8.17429 5.15037 7.81735 5.50728 7.36816 5.69336C7.1746 5.77354 6.97503 5.80491 6.76367 5.81934C6.5606 5.83319 6.31291 5.83301 6.0166 5.83301H3.31641C3.02014 5.83301 2.77239 5.83319 2.56934 5.81934C2.3581 5.8049 2.1583 5.77349 1.96484 5.69336C1.51579 5.50725 1.15868 5.15027 0.972656 4.70117C0.892601 4.50772 0.862069 4.30792 0.847656 4.09668C0.833821 3.89374 0.833003 3.64661 0.833008 3.35059V3.31641C0.833003 3.02014 0.833802 2.77239 0.847656 2.56934C0.862093 2.3581 0.892525 2.1583 0.972656 1.96484C1.15873 1.51572 1.51572 1.15873 1.96484 0.972656C2.1583 0.892525 2.3581 0.862093 2.56934 0.847656C2.77239 0.833802 3.02014 0.833003 3.31641 0.833008H6.0166ZM3.33301 1.83301C3.01572 1.83301 2.80261 1.83347 2.6377 1.84473C2.4773 1.85568 2.39908 1.87519 2.34766 1.89648C2.14347 1.98106 1.98106 2.14347 1.89648 2.34766C1.87519 2.39908 1.85568 2.4773 1.84473 2.6377C1.83347 2.80261 1.83301 3.01572 1.83301 3.33301C1.83301 3.65048 1.83347 3.86432 1.84473 4.0293C1.85568 4.18948 1.8752 4.26795 1.89648 4.31934C1.98106 4.52332 2.14366 4.68496 2.34766 4.76953C2.39908 4.79083 2.47728 4.81131 2.6377 4.82227C2.80261 4.83352 3.01572 4.83301 3.33301 4.83301H6C6.31732 4.83301 6.53037 4.83351 6.69531 4.82227C6.85574 4.81132 6.93392 4.79083 6.98535 4.76953C7.18941 4.68501 7.3519 4.52334 7.43652 4.31934C7.45781 4.26795 7.47732 4.18946 7.48828 4.0293C7.49954 3.86432 7.5 3.65048 7.5 3.33301C7.5 3.01572 7.49953 2.80261 7.48828 2.6377C7.47733 2.47731 7.45782 2.39908 7.43652 2.34766C7.35193 2.14352 7.18951 1.98105 6.98535 1.89648C6.93391 1.87522 6.8555 1.85566 6.69531 1.84473C6.53036 1.83348 6.31734 1.83301 6 1.83301H3.33301Z" fill="#020381" style="fill:#020381;fill:color(display-p3 0.0078 0.0118 0.5059);fill-opacity:1;"/>
</svg>
