<svg width="36" height="36" viewBox="0 0 36 36" fill="none" xmlns="http://www.w3.org/2000/svg">
<rect width="36" height="36" rx="8" fill="#FFF7F5" style="fill:#FFF7F5;fill:color(display-p3 0.9984 0.9677 0.9616);fill-opacity:1;"/>
<path fill-rule="evenodd" clip-rule="evenodd" d="M18 9.9375C22.4528 9.9375 26.0625 13.5472 26.0625 18C26.0625 22.4528 22.4528 26.0625 18 26.0625C13.5472 26.0625 9.9375 22.4528 9.9375 18C9.9375 13.5472 13.5472 9.9375 18 9.9375ZM18 11.0625C14.1685 11.0625 11.0625 14.1685 11.0625 18C11.0625 21.8315 14.1685 24.9375 18 24.9375C21.8315 24.9375 24.9375 21.8315 24.9375 18C24.9375 14.1685 21.8315 11.0625 18 11.0625ZM17.457 16.6875C17.6108 16.6874 17.7776 16.6872 17.918 16.7061C18.0825 16.7282 18.2929 16.7851 18.4697 16.9619C18.6466 17.1388 18.7035 17.3492 18.7256 17.5137C18.7444 17.6541 18.7442 17.8208 18.7441 17.9746V21.75C18.7441 22.0607 18.4923 22.3125 18.1816 22.3125C17.871 22.3125 17.6191 22.0607 17.6191 21.75V18C17.6191 17.9257 17.619 17.8655 17.6182 17.8135C17.5661 17.8126 17.5059 17.8125 17.4316 17.8125C17.121 17.8125 16.8691 17.5607 16.8691 17.25C16.8691 16.9393 17.121 16.6875 17.4316 16.6875C17.4401 16.6875 17.4485 16.6875 17.457 16.6875ZM18.001 14.25C18.4151 14.2501 18.751 14.5858 18.751 15C18.751 15.4142 18.4151 15.7499 18.001 15.75H17.9941C17.5799 15.75 17.2441 15.4142 17.2441 15C17.2441 14.5858 17.5799 14.25 17.9941 14.25H18.001Z" fill="#FF694B" style="fill:#FF694B;fill:color(display-p3 1.0000 0.4129 0.2955);fill-opacity:1;"/>
</svg>
