<svg width="36" height="36" viewBox="0 0 36 36" fill="none" xmlns="http://www.w3.org/2000/svg">
<rect width="36" height="36" rx="8" fill="#FBF5FF" style="fill:#FBF5FF;fill:color(display-p3 0.9861 0.9616 0.9984);fill-opacity:1;"/>
<path fill-rule="evenodd" clip-rule="evenodd" d="M18.001 26.0625C22.4465 26.062 26.0625 22.4457 26.0625 18C26.0625 13.554 22.446 9.9375 18 9.9375C13.554 9.9375 9.9375 13.554 9.9375 18C9.9375 22.446 13.554 26.0625 18 26.0625H18.001ZM11.6611 15.1875C12.5742 13.1379 14.4511 11.6107 16.7139 11.1846C16.0836 12.0615 15.2715 13.436 14.8076 15.1875L11.6611 15.1875ZM21.1934 15.1875C20.7293 13.4355 19.9155 12.0615 19.2852 11.1846C21.5483 11.6105 23.4257 13.1376 24.3389 15.1875H21.1934ZM15.9834 15.1875C16.527 13.3712 17.4669 12.0211 18 11.3574C18.5331 12.0216 19.473 13.3714 20.0166 15.1875H15.9834ZM21.4307 19.6875C21.5149 19.152 21.5635 18.5886 21.5635 18C21.5635 17.4115 21.5149 16.848 21.4307 16.3125H24.7285C24.8641 16.853 24.9375 17.4181 24.9375 18C24.9375 18.5819 24.8641 19.147 24.7285 19.6875H21.4307ZM15.7139 19.6875C15.6185 19.154 15.5625 18.5901 15.5625 18C15.5625 17.41 15.6185 16.846 15.7139 16.3125H20.2861C20.3815 16.846 20.4375 17.4099 20.4375 18C20.4375 18.5901 20.3815 19.1539 20.2861 19.6875L15.7139 19.6875ZM11.2715 19.6875C11.1359 19.147 11.0625 18.5819 11.0625 18C11.0625 17.4181 11.1359 16.853 11.2715 16.3125H14.5703C14.4861 16.848 14.4375 17.4115 14.4375 18C14.4375 18.5886 14.4861 19.152 14.5703 19.6875H11.2715ZM16.7148 24.8164C14.4516 24.3906 12.5744 22.8625 11.6611 20.8125H14.8076C15.2718 22.5647 16.0845 23.9396 16.7148 24.8164ZM18 24.6426C17.467 23.9785 16.5271 22.6286 15.9834 20.8125L20.0166 20.8125C19.4729 22.6289 18.533 23.979 18 24.6426ZM19.2852 24.8164C19.9156 23.9396 20.7292 22.565 21.1934 20.8125H24.3389C23.4256 22.8625 21.5484 24.3906 19.2852 24.8164Z" fill="#C34BFF" style="fill:#C34BFF;fill:color(display-p3 0.7652 0.2955 1.0000);fill-opacity:1;"/>
</svg>
