<svg width="36" height="36" viewBox="0 0 36 36" fill="none" xmlns="http://www.w3.org/2000/svg">
<rect width="36" height="36" rx="8" fill="#EBFEF8" style="fill:#EBFEF8;fill:color(display-p3 0.9232 0.9968 0.9723);fill-opacity:1;"/>
<path fill-rule="evenodd" clip-rule="evenodd" d="M18 9.9375C22.446 9.9375 26.0625 13.554 26.0625 18C26.0625 22.446 22.446 26.0625 18 26.0625C13.554 26.0625 9.9375 22.446 9.9375 18C9.9375 13.554 13.554 9.9375 18 9.9375ZM18 11.0625C14.175 11.0625 11.0625 14.175 11.0625 18C11.0625 21.825 14.175 24.9375 18 24.9375C21.825 24.9375 24.9375 21.825 24.9375 18C24.9375 14.175 21.825 11.0625 18 11.0625ZM20.7305 14.5068C21.0026 14.3576 21.3448 14.4575 21.4941 14.7295C21.6434 15.0017 21.5427 15.3439 21.2705 15.4932C19.0648 16.6992 17.3298 20.4469 17.3125 20.4844C17.2255 20.674 17.0395 20.7995 16.8311 20.8115C16.8207 20.8115 16.8104 20.8125 16.8008 20.8125C16.6036 20.8125 16.4187 20.7092 16.3174 20.5391C15.8029 19.6796 14.7312 19.0568 14.7207 19.0508C14.4515 18.8963 14.359 18.5524 14.5127 18.2832C14.6673 18.0142 15.0102 17.9205 15.2793 18.0742C15.3232 18.0994 16.0551 18.5233 16.6992 19.2041C17.3847 17.9337 18.8669 15.5262 20.7305 14.5068Z" fill="#1EA477" style="fill:#1EA477;fill:color(display-p3 0.1178 0.6422 0.4674);fill-opacity:1;"/>
</svg>
