<svg width="36" height="36" viewBox="0 0 36 36" fill="none" xmlns="http://www.w3.org/2000/svg">
<rect width="36" height="36" rx="8" fill="#FEF2EB" style="fill:#FEF2EB;fill:color(display-p3 0.9968 0.9502 0.9232);fill-opacity:1;"/>
<path fill-rule="evenodd" clip-rule="evenodd" d="M16.7712 10.5117C17.5695 10.2467 18.4298 10.2467 19.2282 10.5117C20.0232 10.7757 20.648 11.4009 21.2751 12.2803C21.9 13.1567 22.59 14.379 23.4801 15.9541L23.5153 16.0166C24.4056 17.592 25.0966 18.8137 25.527 19.8047C25.9595 20.8005 26.1744 21.6604 26.0026 22.4863C25.8296 23.318 25.4033 24.0749 24.7819 24.6465C24.162 25.2167 23.3174 25.4567 22.2546 25.5723C21.1977 25.6872 19.815 25.6875 18.0358 25.6875H17.9635C16.1844 25.6875 14.8016 25.6872 13.7448 25.5723C12.6819 25.4567 11.8374 25.2167 11.2174 24.6465C10.596 24.0749 10.1698 23.318 9.99674 22.4863C9.82495 21.6604 10.0399 20.8005 10.4723 19.8047C10.9027 18.8137 11.5937 17.592 12.484 16.0166L12.5192 15.9541C13.4094 14.379 14.1003 13.1567 14.7253 12.2803C15.3523 11.4011 15.9763 10.7756 16.7712 10.5117ZM18.8737 11.5791C18.3055 11.3905 17.6939 11.3905 17.1256 11.5791C16.6787 11.7275 16.2288 12.1083 15.6403 12.9336C15.0538 13.756 14.3925 14.9264 13.4811 16.5391C12.5697 18.1518 11.9086 19.3226 11.5046 20.2529C11.0998 21.1849 10.9977 21.7789 11.0973 22.2578C11.2231 22.8619 11.5328 23.4078 11.9792 23.8184C12.3297 24.1408 12.876 24.3465 13.8659 24.4541C14.8547 24.5616 16.1761 24.5625 17.9997 24.5625C19.8232 24.5625 21.1446 24.5616 22.1335 24.4541C23.1233 24.3465 23.6696 24.1408 24.0202 23.8184C24.4665 23.4078 24.7763 22.8619 24.902 22.2578C25.0017 21.7789 24.8995 21.1849 24.4948 20.2529C24.0907 19.3226 23.4296 18.1518 22.5182 16.5391C21.6068 14.9264 20.9455 13.756 20.359 12.9336C19.7705 12.1083 19.3207 11.7275 18.8737 11.5791ZM17.4567 17.4375C17.6105 17.4375 17.7773 17.4372 17.9176 17.4561C18.0821 17.4782 18.2926 17.5351 18.4694 17.7119C18.6462 17.8888 18.7031 18.0992 18.7253 18.2637C18.7441 18.4041 18.7439 18.5708 18.7438 18.7246V21.75C18.7438 22.0607 18.492 22.3125 18.1813 22.3125C17.8707 22.3125 17.6188 22.0607 17.6188 21.75V18.75C17.6188 18.6758 17.6187 18.6156 17.6178 18.5635C17.5658 18.5627 17.5056 18.5625 17.4313 18.5625C17.1207 18.5625 16.8688 18.3107 16.8688 18C16.8688 17.6894 17.1207 17.4375 17.4313 17.4375C17.4397 17.4375 17.4482 17.4375 17.4567 17.4375ZM18.0006 15C18.4148 15.0001 18.7506 15.3358 18.7506 15.75C18.7506 16.1642 18.4148 16.5 18.0006 16.5H17.9938C17.5796 16.5 17.2438 16.1642 17.2438 15.75C17.2438 15.3358 17.5796 15 17.9938 15H18.0006Z" fill="#FF853E" style="fill:#FF853E;fill:color(display-p3 1.0000 0.5207 0.2432);fill-opacity:1;"/>
</svg>
