<svg width="36" height="36" viewBox="0 0 36 36" fill="none" xmlns="http://www.w3.org/2000/svg">
<rect width="36" height="36" rx="8" fill="#FFFAF5" style="fill:#FFFAF5;fill:color(display-p3 0.9984 0.9812 0.9616);fill-opacity:1;"/>
<path fill-rule="evenodd" clip-rule="evenodd" d="M10.8965 16.9424C11.0666 16.6824 11.4158 16.6092 11.6758 16.7793C11.9355 16.9494 12.0078 17.2978 11.8379 17.5576C11.3475 18.3071 11.0625 19.2032 11.0625 20.167C11.0627 22.8016 13.1984 24.9373 15.833 24.9375C16.7968 24.9375 17.6929 24.6526 18.4424 24.1621C18.7022 23.9922 19.0506 24.0645 19.2207 24.3242C19.3908 24.5842 19.3176 24.9334 19.0576 25.1035C18.1307 25.71 17.0221 26.0625 15.833 26.0625C12.5771 26.0623 9.93768 23.4229 9.9375 20.167C9.9375 18.9779 10.29 17.8693 10.8965 16.9424ZM19.5 9.9375C23.1244 9.9375 26.0625 12.8756 26.0625 16.5C26.0625 20.1244 23.1244 23.0625 19.5 23.0625C15.8756 23.0625 12.9375 20.1244 12.9375 16.5C12.9375 12.8756 15.8756 9.9375 19.5 9.9375ZM19.5 11.0625C16.497 11.0625 14.0625 13.497 14.0625 16.5C14.0625 19.5031 16.4969 21.9375 19.5 21.9375C22.5031 21.9375 24.9375 19.5031 24.9375 16.5C24.9375 13.4969 22.5031 11.0625 19.5 11.0625ZM19.6768 15.8838C19.69 15.884 19.704 15.8846 19.7178 15.8848C19.8413 15.8867 19.9843 15.8885 20.1211 15.9023C20.4632 15.937 20.8176 16.0494 21.1367 16.3936C21.4767 16.7604 21.622 17.3547 21.542 17.8877C21.4551 18.4656 21.0908 19.0495 20.3398 19.2871C20.2442 19.3174 20.1474 19.3421 20.0518 19.3613V19.5059C20.0518 19.8165 19.7999 20.0684 19.4893 20.0684C19.1788 20.0681 18.9268 19.8164 18.9268 19.5059V19.3447C18.7818 19.3101 18.6427 19.2633 18.5117 19.2051C17.9967 18.976 17.5387 18.5354 17.4453 17.9277C17.3981 17.6207 17.609 17.3334 17.916 17.2861C18.2231 17.2389 18.5104 17.4498 18.5576 17.7568C18.5757 17.8742 18.686 18.051 18.9688 18.1768C19.1191 18.2436 19.3325 18.2891 19.4971 18.2891L19.5225 17.0049C19.5472 17.0056 19.5713 17.0064 19.5947 17.0068L19.5654 15.8799C19.6022 15.8809 19.6392 15.8832 19.6768 15.8838ZM19.6279 18.2861C19.7543 18.2782 19.8714 18.2555 20 18.2148C20.2822 18.1256 20.3968 17.9396 20.4297 17.7207C20.4693 17.457 20.3756 17.2273 20.3115 17.1582C20.2264 17.0664 20.1569 17.0376 20.0078 17.0225C19.9213 17.0137 19.8269 17.012 19.6914 17.0098C19.6806 17.0096 19.6695 17.009 19.6582 17.0088C19.6376 17.0084 19.6165 17.0073 19.5947 17.0068L19.6279 18.2861ZM19.5352 14.7207C19.3992 14.7198 19.2489 14.7521 19.0879 14.8271C18.7817 14.97 18.6438 15.2542 18.6543 15.4531C18.6591 15.542 18.6913 15.6175 18.7588 15.6807C18.8299 15.7471 18.9763 15.8334 19.2598 15.8633C19.3574 15.8736 19.4507 15.8771 19.5449 15.8799L19.5225 17.0049C19.4081 17.0016 19.2796 16.997 19.1416 16.9824C18.6759 16.9333 18.2801 16.7739 17.9902 16.5029C17.6969 16.2287 17.5496 15.8736 17.5303 15.5137C17.4929 14.8151 17.9286 14.1265 18.6123 13.8076C18.7182 13.7583 18.8233 13.7172 18.9268 13.6855V13.5059C18.9268 13.1954 19.1788 12.9436 19.4893 12.9434L19.5352 14.7207ZM19.5654 15.8799C19.5586 15.8797 19.5517 15.8801 19.5449 15.8799L19.5537 15.4365L19.5654 15.8799ZM19.6035 12.9551C19.8596 13.0077 20.0518 13.2342 20.0518 13.5059V13.665C20.7284 13.8584 21.2308 14.4149 21.376 15.0273C21.4473 15.3295 21.2602 15.6325 20.958 15.7041C20.6558 15.7756 20.3529 15.5884 20.2812 15.2861C20.2173 15.0168 19.9523 14.7398 19.5674 14.7227L19.6035 12.9551ZM19.5674 14.7227L19.5537 15.4365L19.5352 14.7207C19.546 14.7208 19.5567 14.7222 19.5674 14.7227Z" fill="#FFAB4B" style="fill:#FFAB4B;fill:color(display-p3 1.0000 0.6712 0.2955);fill-opacity:1;"/>
</svg>
