<svg width="8" height="12" viewBox="0 0 8 12" fill="none" xmlns="http://www.w3.org/2000/svg">
<path d="M3.83366 11.6667C4.08269 11.6667 4.31374 11.5562 4.48722 11.4517C4.67443 11.3388 4.86772 11.187 5.05617 11.0206C5.43422 10.6866 5.84021 10.2508 6.20745 9.82786C6.57685 9.40246 6.917 8.97853 7.16418 8.66185C7.28798 8.50324 7.38893 8.37092 7.45914 8.27799C7.49425 8.2315 7.5217 8.19484 7.5405 8.16962L7.56209 8.14058L7.56779 8.13287L7.56976 8.1302C7.73354 7.90786 7.68628 7.59457 7.46394 7.4308C7.24162 7.26703 6.92863 7.31449 6.76485 7.5368L6.75858 7.54529L6.73873 7.57199C6.72113 7.5956 6.69497 7.63055 6.66123 7.67521C6.59373 7.76457 6.496 7.89266 6.37588 8.04655C6.13523 8.35486 5.80664 8.76426 5.4524 9.17219C5.09601 9.5826 4.72346 9.98014 4.39408 10.2711C4.37324 10.2895 4.35277 10.3074 4.33266 10.3246L4.33266 0.5C4.33266 0.223858 4.10881 2.93361e-07 3.83266 3.05432e-07C3.55652 3.17502e-07 3.33266 0.223858 3.33266 0.5L3.33266 10.3229C3.31319 10.3062 3.29338 10.2889 3.27322 10.2711C2.94384 9.98014 2.57129 9.5826 2.2149 9.17219C1.86066 8.76426 1.53207 8.35486 1.29142 8.04655C1.1713 7.89266 1.07357 7.76457 1.00607 7.67521C0.972331 7.63055 0.94617 7.5956 0.92857 7.57199L0.908722 7.54529L0.902447 7.5368C0.738667 7.31449 0.425681 7.26703 0.203357 7.4308C-0.0189776 7.59458 -0.0662378 7.90786 0.0975367 8.1302L0.0995102 8.13287L0.105213 8.14058L0.126802 8.16962C0.145599 8.19484 0.173047 8.23151 0.20816 8.27799C0.278367 8.37092 0.379325 8.50324 0.503122 8.66185C0.750305 8.97853 1.09045 9.40246 1.45985 9.82786C1.82709 10.2508 2.23308 10.6866 2.61113 11.0206C2.79958 11.187 2.99287 11.3388 3.18008 11.4517C3.35252 11.5556 3.58184 11.6653 3.82917 11.6667" fill="#FF853E" style="fill:#FF853E;fill:color(display-p3 1.0000 0.5207 0.2432);fill-opacity:1;"/>
</svg>
