<svg width="12" height="11" viewBox="0 0 12 11" fill="none" xmlns="http://www.w3.org/2000/svg">
<path d="M11.166 8C11.4422 8 11.666 8.22386 11.666 8.5C11.666 8.92449 11.6452 9.29966 11.5752 9.61816C11.504 9.94208 11.3756 10.2385 11.1406 10.4736C10.9054 10.7088 10.6083 10.837 10.2842 10.9082C9.96568 10.9782 9.5905 11 9.16602 11H2.5C2.07551 11 1.70034 10.9782 1.38184 10.9082C1.0577 10.837 0.760577 10.7088 0.525391 10.4736C0.290453 10.2385 0.16201 9.94208 0.0908203 9.61816C0.0208517 9.29966 0 8.92449 0 8.5C8.05839e-09 8.22386 0.223858 8 0.5 8C0.775993 8.00018 1 8.22397 1 8.5C1 8.90281 1.0209 9.1917 1.06738 9.40332C1.11254 9.6089 1.17455 9.70859 1.23242 9.7666C1.29039 9.82457 1.39072 9.88639 1.59668 9.93164C1.80828 9.9781 2.0973 10 2.5 10H9.16602C9.56871 10 9.85773 9.9781 10.0693 9.93164C10.2753 9.88639 10.3756 9.82457 10.4336 9.7666C10.4915 9.70859 10.5535 9.6089 10.5986 9.40332C10.6451 9.1917 10.666 8.90281 10.666 8.5C10.666 8.22397 10.89 8.00018 11.166 8ZM5.83301 0C6.10915 8.05326e-09 6.33301 0.223858 6.33301 0.5V6.1416C6.3343 6.14008 6.33562 6.13825 6.33691 6.13672C6.47729 5.97105 6.61462 5.79557 6.74316 5.63184C6.75315 5.61911 6.76356 5.60633 6.77344 5.59375C6.90158 5.4306 7.0369 5.25909 7.1416 5.15137C7.3341 4.95365 7.65072 4.94923 7.84863 5.1416C8.04634 5.33409 8.05075 5.65072 7.8584 5.84863C7.79926 5.90947 7.7017 6.03096 7.55957 6.21191C7.54943 6.22483 7.53877 6.23766 7.52832 6.25098C7.40161 6.4124 7.25276 6.60246 7.09961 6.7832C6.93557 6.97678 6.75188 7.17766 6.56836 7.33398C6.47633 7.41237 6.37234 7.49009 6.26074 7.5498C6.15314 7.60735 6.00502 7.66699 5.83301 7.66699C5.66099 7.66699 5.51287 7.60735 5.40527 7.5498C5.29368 7.49009 5.18969 7.41237 5.09766 7.33398C4.91413 7.17766 4.73045 6.97678 4.56641 6.7832C4.41325 6.60246 4.26441 6.4124 4.1377 6.25098C4.12725 6.23766 4.11659 6.22483 4.10645 6.21191C3.96432 6.03096 3.86675 5.90947 3.80762 5.84863C3.61527 5.65072 3.61968 5.33409 3.81738 5.1416C4.0153 4.94923 4.33192 4.95365 4.52441 5.15137C4.62912 5.25909 4.76443 5.4306 4.89258 5.59375C4.90246 5.60633 4.91286 5.61911 4.92285 5.63184C5.0514 5.79557 5.18872 5.97105 5.3291 6.13672C5.3304 6.13825 5.33171 6.14008 5.33301 6.1416V0.5C5.33301 0.223858 5.55687 0 5.83301 0Z" fill="#141415" style="fill:#141415;fill:color(display-p3 0.0784 0.0784 0.0816);fill-opacity:1;"/>
</svg>
