<svg width="20" height="20" viewBox="0 0 20 20" fill="none" xmlns="http://www.w3.org/2000/svg">
<path fill-rule="evenodd" clip-rule="evenodd" d="M10 3.54199C12.1419 3.54199 13.9781 4.48424 15.3994 5.59375C16.8218 6.70421 17.8736 8.01598 18.4619 8.84082C18.4765 8.86125 18.4919 8.88251 18.5068 8.90332C18.7177 9.19665 18.958 9.53165 18.958 10C18.958 10.4683 18.7177 10.8033 18.5068 11.0967C18.4919 11.1175 18.4765 11.1388 18.4619 11.1592C17.8736 11.984 16.8218 13.2958 15.3994 14.4062C13.9781 15.5158 12.1419 16.458 10 16.458C7.85807 16.458 6.0219 15.5158 4.60059 14.4062C3.17817 13.2958 2.12635 11.984 1.53809 11.1592C1.52352 11.1388 1.50813 11.1175 1.49316 11.0967C1.28225 10.8033 1.04199 10.4683 1.04199 10C1.04199 9.53165 1.28225 9.19665 1.49316 8.90332C1.50813 8.88251 1.52352 8.86125 1.53809 8.84082C2.12635 8.01598 3.17817 6.70421 4.60059 5.59375C6.0219 4.48424 7.85807 3.54199 10 3.54199ZM10 4.79199C8.23445 4.79199 6.6629 5.56908 5.36914 6.5791C4.07667 7.58813 3.10583 8.79592 2.55566 9.56738C2.41995 9.75768 2.35504 9.85072 2.31641 9.9248C2.29186 9.97196 2.29192 9.98539 2.29199 9.99805V10.002C2.29192 10.0146 2.29186 10.028 2.31641 10.0752C2.35504 10.1493 2.41995 10.2423 2.55566 10.4326C3.10583 11.2041 4.07667 12.4119 5.36914 13.4209C6.6629 14.4309 8.23445 15.208 10 15.208C11.7656 15.208 13.3371 14.4309 14.6309 13.4209C15.9233 12.4119 16.8942 11.2041 17.4443 10.4326C17.58 10.2423 17.645 10.1493 17.6836 10.0752C17.7081 10.028 17.7081 10.0146 17.708 10.002V9.99805C17.7081 9.98539 17.7081 9.97196 17.6836 9.9248C17.645 9.85072 17.58 9.75768 17.4443 9.56738C16.8942 8.79592 15.9233 7.58812 14.6309 6.5791C13.3371 5.56908 11.7655 4.79199 10 4.79199ZM10 6.875C11.7259 6.875 13.125 8.27411 13.125 10C13.125 11.7259 11.7259 13.125 10 13.125C8.27411 13.125 6.875 11.7259 6.875 10C6.875 8.27411 8.27411 6.875 10 6.875ZM10 8.125C8.96447 8.125 8.125 8.96447 8.125 10C8.125 11.0355 8.96447 11.875 10 11.875C11.0355 11.875 11.875 11.0355 11.875 10C11.875 8.96447 11.0355 8.125 10 8.125Z" fill="#A4A4A8" style="fill:#A4A4A8;fill:color(display-p3 0.6430 0.6430 0.6570);fill-opacity:1;"/>
</svg>
