<svg width="18" height="18" viewBox="0 0 18 18" fill="none" xmlns="http://www.w3.org/2000/svg">
<path d="M10.4727 0.937554C10.9966 0.937052 11.4116 0.936826 11.793 1.09478C12.1742 1.25271 12.4669 1.54631 12.8369 1.91705L14.958 4.03814C15.3288 4.40818 15.6223 4.70086 15.7803 5.08209C15.9382 5.46342 15.938 5.87845 15.9375 6.4024V9.79107C15.9375 10.8167 15.938 11.6438 15.8506 12.294C15.7598 12.9691 15.5647 13.5379 15.1133 13.9893C14.7143 14.3881 14.2239 14.5853 13.6494 14.6885C13.4386 16.0332 12.2789 17.0625 10.875 17.0626H7.08399C6.05831 17.0626 5.23127 17.0631 4.58106 16.9756C3.90601 16.8849 3.33814 16.6898 2.88672 16.2383C2.4353 15.7869 2.24018 15.2191 2.14941 14.544C2.06199 13.8938 2.06249 13.0668 2.0625 12.0411V6.00005C2.0625 4.59608 3.09172 3.43543 4.43652 3.22466C4.53985 2.65039 4.73792 2.16057 5.13672 1.76177C5.58811 1.31042 6.15608 1.11621 6.83106 1.02544C7.48128 0.938024 8.30829 0.937539 9.33399 0.937554H10.4727ZM4.33008 4.40337C3.66564 4.63008 3.1875 5.25886 3.1875 6.00005V12.0001C3.1875 13.0764 3.18854 13.8271 3.26465 14.3936C3.33864 14.9439 3.47407 15.2358 3.68164 15.4434C3.88921 15.651 4.18111 15.7864 4.73145 15.8604C5.29792 15.9365 6.04868 15.9376 7.125 15.9376H10.875C11.6164 15.9375 12.2441 15.4587 12.4707 14.794C12.0135 14.8099 11.4966 14.8126 10.916 14.8126H9.33399C8.30829 14.8126 7.48128 14.8131 6.83106 14.7256C6.15623 14.6349 5.58807 14.4404 5.13672 13.9893C4.68528 13.5379 4.49018 12.9691 4.39941 12.294C4.312 11.6438 4.31249 10.8167 4.3125 9.79107V5.95904C4.31249 5.37799 4.31419 4.86081 4.33008 4.40337ZM9.375 2.06255C8.29868 2.06255 7.54792 2.06359 6.98145 2.1397C6.43111 2.21369 6.13921 2.34912 5.93164 2.55669C5.72407 2.76427 5.58864 3.05617 5.51465 3.6065C5.43853 4.17297 5.4375 4.92373 5.4375 6.00005V9.75005C5.4375 10.8264 5.43853 11.5771 5.51465 12.1436C5.58864 12.6939 5.72407 12.9858 5.93164 13.1934C6.13921 13.401 6.43111 13.5364 6.98145 13.6104C7.54792 13.6865 8.29868 13.6876 9.375 13.6876H10.875C11.9513 13.6876 12.7021 13.6865 13.2686 13.6104C13.8189 13.5364 14.1108 13.401 14.3184 13.1934C14.5259 12.9858 14.6614 12.6939 14.7354 12.1436C14.8115 11.5771 14.8125 10.8264 14.8125 9.75005V6.49224C14.8125 6.37651 14.8114 6.27579 14.8105 6.18755H14.2109C13.5372 6.18758 12.9753 6.18793 12.5293 6.12798C12.0585 6.06468 11.6336 5.92466 11.292 5.58306C10.9504 5.24146 10.8104 4.8166 10.7471 4.34576C10.6871 3.89972 10.6875 3.33785 10.6875 2.66412V2.06451C10.5993 2.06367 10.4985 2.06255 10.3828 2.06255H9.375ZM12.75 10.6876C13.0607 10.6876 13.3125 10.9394 13.3125 11.2501C13.3125 11.5607 13.0607 11.8126 12.75 11.8126H7.5C7.18934 11.8126 6.9375 11.5607 6.9375 11.2501C6.9375 10.9394 7.18934 10.6876 7.5 10.6876H12.75ZM10.5 7.68755C10.8107 7.68755 11.0625 7.93939 11.0625 8.25005C11.0625 8.56071 10.8107 8.81255 10.5 8.81255H7.5C7.18934 8.81255 6.9375 8.56071 6.9375 8.25005C6.9375 7.93939 7.18934 7.68755 7.5 7.68755H10.5ZM11.8125 2.62505C11.8125 3.34806 11.8136 3.83407 11.8623 4.19634C11.9088 4.54221 11.9892 4.69043 12.0869 4.78814C12.1846 4.88585 12.3328 4.96621 12.6787 5.01275C13.041 5.06146 13.527 5.06255 14.25 5.06255H14.3887C14.3112 4.98231 14.2158 4.88677 14.0986 4.76959L12.1055 2.77642C11.9883 2.65924 11.8927 2.5639 11.8125 2.48638V2.62505Z" fill="#141415" style="fill:#141415;fill:color(display-p3 0.0784 0.0784 0.0816);fill-opacity:1;"/>
</svg>
