<svg width="18" height="17" viewBox="0 0 18 17" fill="none" xmlns="http://www.w3.org/2000/svg">
<path d="M2.72657 4.16699C2.90477 4.16698 3.0685 4.16642 3.20607 4.17578C3.35403 4.18588 3.51729 4.2089 3.68263 4.27734C4.03996 4.42536 4.32368 4.71005 4.47169 5.06738C4.54009 5.23263 4.56315 5.39507 4.57325 5.54297C4.58265 5.68072 4.58303 5.84491 4.58302 6.02344V6.05957C4.58303 6.23809 4.58265 6.40229 4.57325 6.54004C4.56315 6.68808 4.54021 6.85118 4.47169 7.0166C4.32365 7.37381 4.03987 7.65769 3.68263 7.80566C3.51725 7.87414 3.35407 7.89713 3.20607 7.90723C3.1189 7.91316 3.02123 7.91425 2.91603 7.91504V15.625C2.91603 15.9702 2.6362 16.25 2.29103 16.25C1.946 16.2498 1.66603 15.9701 1.66603 15.625V7.91504C1.56089 7.91424 1.46309 7.91317 1.37599 7.90723C1.22812 7.89713 1.06561 7.87403 0.900402 7.80566C0.543083 7.65766 0.258379 7.37391 0.110363 7.0166C0.0418434 6.85118 0.0189004 6.68808 0.00880001 6.54004C-0.00058956 6.4023 2.77172e-07 6.23807 1.09524e-05 6.05957V6.02344C2.75853e-07 5.84491 -0.000598324 5.68072 0.00880001 5.54297C0.0188961 5.39513 0.0420345 5.23256 0.110363 5.06738C0.258375 4.71005 0.543069 4.42536 0.900402 4.27734C1.06558 4.20902 1.22815 4.18588 1.37599 4.17578C1.51373 4.16638 1.67793 4.16698 1.85646 4.16699H2.72657ZM8.54103 13.333C8.8861 13.333 9.16585 13.613 9.16603 13.958V15.625C9.16603 15.9702 8.8862 16.25 8.54103 16.25C8.196 16.2498 7.91603 15.9701 7.91603 15.625V13.958C7.9162 13.6131 8.19611 13.3332 8.54103 13.333ZM15.2266 5.83301C15.4048 5.833 15.5685 5.83341 15.7061 5.84277C15.8541 5.85287 16.0173 5.87586 16.1826 5.94434C16.5399 6.09231 16.8236 6.3762 16.9717 6.7334C17.0402 6.89882 17.0632 7.06192 17.0733 7.20996C17.0826 7.34771 17.083 7.51191 17.083 7.69043V7.72656C17.083 7.90509 17.0827 8.06928 17.0733 8.20703C17.0632 8.35493 17.0401 8.51737 16.9717 8.68262C16.8237 9.03995 16.54 9.32464 16.1826 9.47266C16.0173 9.5411 15.854 9.56412 15.7061 9.57422C15.6189 9.58015 15.5212 9.58124 15.416 9.58203V15.625C15.416 15.9702 15.1362 16.25 14.791 16.25C14.446 16.2498 14.166 15.9701 14.166 15.625V9.58203C14.0609 9.58123 13.9631 9.58016 13.876 9.57422C13.7281 9.56412 13.5656 9.54098 13.4004 9.47266C13.0431 9.32464 12.7584 9.03995 12.6104 8.68262C12.542 8.51744 12.5189 8.35487 12.5088 8.20703C12.4994 8.06928 12.5 7.90509 12.5 7.72656V7.69043C12.5 7.51193 12.4994 7.3477 12.5088 7.20996C12.5189 7.06192 12.5418 6.89882 12.6104 6.7334C12.7584 6.37609 13.0431 6.09234 13.4004 5.94434C13.5656 5.87597 13.7281 5.85287 13.876 5.84277C14.0137 5.83338 14.1779 5.833 14.3565 5.83301H15.2266ZM8.54103 0C8.8862 -1.6597e-08 9.16603 0.279822 9.16603 0.625V8.33398C9.27123 8.33478 9.3689 8.33684 9.45607 8.34277C9.60407 8.35287 9.76725 8.37586 9.93263 8.44434C10.2899 8.59231 10.5736 8.8762 10.7217 9.2334C10.7902 9.39882 10.8132 9.56192 10.8233 9.70996C10.8326 9.84771 10.833 10.0119 10.833 10.1904V10.2266C10.833 10.4051 10.8327 10.5693 10.8233 10.707C10.8132 10.8549 10.7901 11.0174 10.7217 11.1826C10.5737 11.5399 10.29 11.8246 9.93263 11.9727C9.76729 12.0411 9.60403 12.0641 9.45607 12.0742C9.3185 12.0836 9.15477 12.083 8.97657 12.083H8.10646C7.92793 12.083 7.76373 12.0836 7.62599 12.0742C7.47815 12.0641 7.31558 12.041 7.1504 11.9727C6.79307 11.8246 6.50837 11.5399 6.36036 11.1826C6.29203 11.0174 6.2689 10.8549 6.2588 10.707C6.2494 10.5693 6.25 10.4051 6.25001 10.2266V10.1904C6.25 10.0119 6.24941 9.8477 6.2588 9.70996C6.2689 9.56192 6.29184 9.39882 6.36036 9.2334C6.50838 8.87609 6.79308 8.59234 7.1504 8.44434C7.31561 8.37597 7.47812 8.35287 7.62599 8.34277C7.71309 8.33683 7.81089 8.33478 7.91603 8.33398V0.625C7.91603 0.279931 8.196 0.000176226 8.54103 0ZM7.71095 9.58984C7.65584 9.59362 7.63229 9.599 7.62599 9.60059C7.57708 9.6216 7.53771 9.66013 7.51661 9.70898C7.51506 9.71511 7.50967 9.73923 7.50587 9.79492C7.49973 9.88488 7.50001 10.0055 7.50001 10.208C7.50001 10.4107 7.49973 10.5321 7.50587 10.6221C7.50963 10.677 7.515 10.7006 7.51661 10.707C7.53768 10.7561 7.57696 10.7953 7.62599 10.8164C7.6324 10.818 7.65604 10.8234 7.71095 10.8271C7.80095 10.8333 7.92232 10.833 8.12501 10.833H8.95802C9.16045 10.833 9.28114 10.8333 9.3711 10.8271C9.4268 10.8233 9.45091 10.818 9.45704 10.8164C9.50602 10.7953 9.54537 10.756 9.56642 10.707C9.56805 10.7005 9.57244 10.6767 9.57618 10.6221C9.58232 10.5321 9.58302 10.4107 9.58302 10.208C9.58302 10.0055 9.58232 9.88488 9.57618 9.79492C9.57238 9.73924 9.56797 9.71511 9.56642 9.70898C9.54536 9.66015 9.50588 9.62163 9.45704 9.60059C9.45091 9.59903 9.4268 9.59364 9.3711 9.58984C9.28113 9.58372 9.16046 9.58301 8.95802 9.58301H8.12501C7.92232 9.58301 7.80095 9.5837 7.71095 9.58984ZM13.9609 7.08984C13.9058 7.09362 13.8823 7.099 13.876 7.10059C13.8271 7.1216 13.7877 7.16013 13.7666 7.20898C13.7651 7.21511 13.7597 7.23923 13.7559 7.29492C13.7497 7.38488 13.75 7.50553 13.75 7.70801C13.75 7.9107 13.7497 8.03206 13.7559 8.12207C13.7596 8.17697 13.765 8.20061 13.7666 8.20703C13.7877 8.25606 13.827 8.29534 13.876 8.31641C13.8824 8.31802 13.906 8.32339 13.9609 8.32715C14.051 8.33329 14.1723 8.33301 14.375 8.33301H15.208C15.4104 8.33301 15.5311 8.33327 15.6211 8.32715C15.6768 8.32335 15.7009 8.31796 15.707 8.31641C15.756 8.29533 15.7954 8.25603 15.8164 8.20703C15.818 8.20051 15.8224 8.17672 15.8262 8.12207C15.8323 8.03206 15.833 7.9107 15.833 7.70801C15.833 7.50551 15.8323 7.38488 15.8262 7.29492C15.8224 7.23924 15.818 7.21511 15.8164 7.20898C15.7954 7.16015 15.7559 7.12163 15.707 7.10059C15.7009 7.09903 15.6768 7.09364 15.6211 7.08984C15.5311 7.08372 15.4105 7.08301 15.208 7.08301H14.375C14.1723 7.08301 14.051 7.0837 13.9609 7.08984ZM1.46095 5.42285C1.40604 5.42661 1.3824 5.43198 1.37599 5.43359C1.32696 5.45466 1.28768 5.49394 1.26661 5.54297C1.265 5.54938 1.25963 5.57302 1.25587 5.62793C1.24973 5.71794 1.25001 5.8393 1.25001 6.04199C1.25001 6.24447 1.24973 6.36512 1.25587 6.45508C1.25967 6.51077 1.26506 6.53489 1.26661 6.54102C1.28771 6.58987 1.32708 6.6284 1.37599 6.64941C1.38228 6.651 1.40583 6.65638 1.46095 6.66016C1.55095 6.6663 1.67232 6.66699 1.87501 6.66699H2.70802C2.91046 6.66699 3.03113 6.66628 3.1211 6.66016C3.1768 6.65636 3.20091 6.65097 3.20704 6.64941C3.25588 6.62836 3.29536 6.58985 3.31642 6.54102C3.31797 6.53489 3.32238 6.51076 3.32618 6.45508C3.33232 6.36512 3.33302 6.24449 3.33302 6.04199C3.33302 5.8393 3.33232 5.71794 3.32618 5.62793C3.32244 5.57327 3.31805 5.54949 3.31642 5.54297C3.29537 5.49397 3.25602 5.45467 3.20704 5.43359C3.20091 5.43204 3.1768 5.42665 3.1211 5.42285C3.03114 5.41673 2.91045 5.41699 2.70802 5.41699H1.87501C1.67232 5.41699 1.55095 5.41671 1.46095 5.42285ZM14.791 0C15.1362 -1.88603e-08 15.416 0.279822 15.416 0.625V3.95801C15.416 4.30319 15.1362 4.58301 14.791 4.58301C14.446 4.58283 14.166 4.30308 14.166 3.95801V0.625C14.166 0.279931 14.446 0.000176229 14.791 0ZM2.29103 0C2.6362 -2.26324e-08 2.91603 0.279822 2.91603 0.625V2.29199C2.91585 2.63702 2.6361 2.91699 2.29103 2.91699C1.94611 2.91682 1.6662 2.63691 1.66603 2.29199V0.625C1.66603 0.279931 1.946 0.000175975 2.29103 0Z" fill="#323234" style="fill:#323234;fill:color(display-p3 0.1980 0.1980 0.2020);fill-opacity:1;"/>
</svg>
