<svg width="20" height="20" viewBox="0 0 20 20" fill="none" xmlns="http://www.w3.org/2000/svg">
<path fill-rule="evenodd" clip-rule="evenodd" d="M10 18.958C14.9396 18.9575 18.957 14.9397 18.957 10C18.957 5.06 14.939 1.04199 9.99902 1.04199C5.05902 1.04199 1.04102 5.06 1.04102 10C1.04102 14.94 5.05902 18.958 9.99902 18.958H10ZM2.95508 6.875C3.96963 4.59737 6.05587 2.90016 8.57031 2.42676C7.86992 3.40109 6.96767 4.92852 6.45215 6.875H2.95508ZM13.5469 6.875C13.0311 4.92804 12.1272 3.40107 11.4268 2.42676C13.9416 2.89991 16.0283 4.59709 17.043 6.875H13.5469ZM7.75781 6.875C8.36185 4.85667 9.40672 3.35656 9.99902 2.61914C10.5913 3.35711 11.6362 4.85694 12.2402 6.875H7.75781ZM13.8115 11.875C13.9051 11.28 13.958 10.6539 13.958 10C13.958 9.34608 13.9041 8.71999 13.8105 8.125H17.4756C17.6263 8.72551 17.707 9.35346 17.707 10C17.707 10.6465 17.6263 11.2745 17.4756 11.875H13.8115ZM7.45801 11.875C7.35207 11.2822 7.29103 10.6556 7.29102 10C7.29102 9.34446 7.35211 8.71773 7.45801 8.125H12.54C12.6459 8.71771 12.707 9.34443 12.707 10C12.707 10.6556 12.646 11.2822 12.54 11.875H7.45801ZM2.52246 11.875C2.37178 11.2745 2.29102 10.6465 2.29102 10C2.29102 9.35346 2.37178 8.72551 2.52246 8.125H6.1875C6.09395 8.71996 6.04102 9.34613 6.04102 10C6.04103 10.654 6.09389 11.28 6.1875 11.875H2.52246ZM8.57129 17.5742C6.05635 17.1011 3.96978 15.403 2.95508 13.125H6.45215C6.96802 15.0721 7.87082 16.6 8.57129 17.5742ZM9.99902 17.3809C9.40679 16.643 8.36192 15.143 7.75781 13.125H12.2402C11.6361 15.1432 10.5913 16.6435 9.99902 17.3809ZM11.4277 17.5742C12.1282 16.6 13.0311 15.0722 13.5469 13.125H17.043C16.0284 15.4027 13.9423 17.1009 11.4277 17.5742Z" fill="#a4a4a8" />
</svg>
