<svg width="14" height="15" viewBox="0 0 14 15" fill="none" xmlns="http://www.w3.org/2000/svg">
<path d="M7.39514 4.91333e-06C7.60627 -2.12332e-05 7.80503 -0.000462425 7.97132 0.0185596C8.15642 0.0397563 8.35119 0.0886689 8.53284 0.219731C8.71458 0.350977 8.82247 0.521297 8.901 0.690435C8.97149 0.842311 9.03447 1.03079 9.1012 1.23145L9.10803 1.25293L9.32678 1.90625C9.38993 2.06543 9.5006 2.2011 9.64319 2.29493L9.84534 2.41114C10.014 2.49495 10.2064 2.51944 10.3903 2.4795L11.1901 2.25391L11.2135 2.24708C11.4322 2.18499 11.637 2.1266 11.8131 2.09864C12.0088 2.06761 12.2227 2.06435 12.444 2.1543C12.6654 2.24437 12.8165 2.39681 12.9352 2.55567C13.0419 2.69855 13.1478 2.88295 13.2614 3.08008L13.6149 3.69336C13.7213 3.878 13.8213 4.05134 13.8883 4.20606C13.9629 4.37831 14.0183 4.57265 13.9948 4.79688C13.9712 5.02127 13.877 5.20048 13.7682 5.35352C13.6705 5.49089 13.5366 5.63948 13.3942 5.79786L13.3785 5.81446V5.81543L12.7037 6.56934C12.6196 6.68356 12.5319 6.93145 12.5319 7.16602C12.5319 7.40106 12.6195 7.64952 12.7037 7.76368L13.3785 8.51856L13.3942 8.53516C13.5365 8.69346 13.6705 8.84218 13.7682 8.9795C13.8769 9.13239 13.9711 9.31109 13.9948 9.53516C14.0183 9.75955 13.9629 9.95462 13.8883 10.127C13.8213 10.2817 13.7213 10.455 13.6149 10.6397L13.2614 11.2529C13.1478 11.4501 13.0419 11.6345 12.9352 11.7773C12.8165 11.9362 12.6654 12.0886 12.444 12.1787C12.2227 12.2686 12.0088 12.2644 11.8131 12.2334C11.637 12.2054 11.4322 12.148 11.2135 12.0859L11.1901 12.0791L10.3903 11.8535C10.2062 11.8135 10.0131 11.8379 9.84436 11.9219L9.64319 12.0381C9.50069 12.1319 9.3899 12.2677 9.32678 12.4268L9.10901 13.0791L9.1012 13.1016C9.03444 13.3023 8.97153 13.4907 8.901 13.6426C8.82247 13.8117 8.71457 13.9811 8.53284 14.1123C8.35109 14.2436 8.15654 14.2933 7.97132 14.3145C7.80502 14.3335 7.60628 14.333 7.39514 14.333H6.6051C6.39397 14.333 6.19522 14.3335 6.02893 14.3145C5.8437 14.2933 5.64916 14.2436 5.46741 14.1123C5.28568 13.9811 5.17777 13.8117 5.09925 13.6426C5.02872 13.4907 4.9658 13.3023 4.89905 13.1016L4.89124 13.0791L4.67346 12.4268C4.61035 12.2677 4.49954 12.1319 4.35706 12.0381L4.15589 11.9219C3.98712 11.8379 3.79404 11.8135 3.60999 11.8535L2.81018 12.0791L2.78675 12.0859C2.56808 12.148 2.36322 12.2054 2.18714 12.2334C1.99147 12.2644 1.77759 12.2686 1.55628 12.1787C1.33481 12.0886 1.18371 11.9362 1.06507 11.7773C0.958368 11.6345 0.852475 11.4501 0.738894 11.2529L0.726199 11.2315L0.385378 10.6397C0.278945 10.455 0.17896 10.2817 0.111941 10.127C0.0373161 9.95462 -0.0180777 9.75955 0.00549541 9.53516C0.0291346 9.31109 0.123361 9.13239 0.232058 8.9795C0.329717 8.84218 0.463694 8.69347 0.606081 8.53516L0.621706 8.51856V8.51758L1.29651 7.76368C1.38077 7.64952 1.46839 7.40106 1.46839 7.16602C1.46833 6.93146 1.38069 6.68356 1.29651 6.56934L0.621706 5.81543V5.81446L0.606081 5.79786C0.463629 5.63948 0.329756 5.4909 0.232058 5.35352C0.123221 5.20048 0.0290695 5.02127 0.00549541 4.79688C-0.0180197 4.57264 0.0373696 4.37831 0.111941 4.20606C0.178938 4.05134 0.278952 3.87801 0.385378 3.69336C0.389266 3.68662 0.393193 3.67963 0.397097 3.67286L0.726199 3.10157C0.730354 3.09436 0.734758 3.08726 0.738894 3.08008C0.852463 2.88293 0.958388 2.69856 1.06507 2.55567C1.18371 2.39681 1.33482 2.24437 1.55628 2.1543C1.7776 2.06436 1.99146 2.0676 2.18714 2.09864C2.36322 2.1266 2.56807 2.18499 2.78675 2.24708C2.79454 2.24929 2.80235 2.25169 2.81018 2.25391L3.60999 2.4795C3.79388 2.51944 3.98625 2.49496 4.15491 2.41114L4.35706 2.29493C4.49963 2.2011 4.61032 2.06542 4.67346 1.90625L4.89124 1.25391C4.89365 1.24666 4.89665 1.23867 4.89905 1.23145C4.96578 1.03077 5.02875 0.84232 5.09925 0.690435C5.17778 0.521297 5.28567 0.350977 5.46741 0.219731C5.64906 0.0886736 5.84382 0.0397528 6.02893 0.0185596C6.19522 -0.000462425 6.39398 -2.12332e-05 6.6051 4.91333e-06L7.39514 4.91333e-06ZM6.62854 1C6.38591 1 6.24571 1.00004 6.14319 1.01172C6.09695 1.01701 6.0725 1.02359 6.06116 1.02735L6.05237 1.03125C6.05237 1.03125 6.04984 1.03363 6.04651 1.03809C6.03928 1.0478 6.02614 1.06899 6.00647 1.11133C5.96286 1.20527 5.91728 1.33842 5.84046 1.56934L5.61389 2.24512L5.60999 2.25586C5.46985 2.62088 5.21654 2.93174 4.88733 3.14258L4.87757 3.14844L4.63245 3.29004L4.62171 3.2959C4.23766 3.49316 3.79631 3.54814 3.37561 3.45118L3.36389 3.44825L2.53772 3.21583C2.28682 3.14463 2.14069 3.10439 2.03089 3.08692C1.98159 3.07909 1.95478 3.07836 1.94202 3.07911C1.9372 3.0794 1.93406 3.07993 1.93323 3.08008H1.93225C1.93225 3.08008 1.92976 3.08222 1.92542 3.08594C1.91572 3.09431 1.89604 3.1129 1.86585 3.15333C1.79914 3.24265 1.72288 3.37417 1.59241 3.60059L1.26331 4.17188C1.14095 4.38423 1.07041 4.50774 1.02893 4.60352C1.01041 4.64637 1.00406 4.67061 1.00159 4.68262C1.00059 4.68752 0.999691 4.69072 0.999636 4.69141V4.69239L1.00061 4.69336C1.00061 4.69336 1.00128 4.69696 1.00354 4.70215C1.00849 4.71343 1.02045 4.73541 1.04749 4.77344C1.10793 4.85843 1.20206 4.96434 1.36585 5.14649L1.36682 5.14747L2.06409 5.92774L2.07385 5.93946C2.32342 6.2554 2.46833 6.7412 2.46839 7.16602C2.46839 7.59095 2.32337 8.07652 2.07385 8.39258L2.06409 8.40528L1.36682 9.18458L1.36585 9.18555C1.20215 9.3676 1.10796 9.47363 1.04749 9.5586C1.0202 9.59696 1.00844 9.61965 1.00354 9.63086C1.00183 9.6348 1.00095 9.63758 1.00061 9.63868L0.999636 9.63965V9.64063C0.999636 9.64063 1.00045 9.64483 1.00159 9.6504C1.00412 9.66254 1.01048 9.68686 1.02893 9.7295C1.07042 9.8253 1.1409 9.9487 1.26331 10.1611L1.59241 10.7324C1.72259 10.9583 1.79923 11.0894 1.86585 11.1787C1.89604 11.2191 1.91572 11.2387 1.92542 11.2471C1.9293 11.2504 1.93188 11.2517 1.93225 11.252L1.93323 11.2529C1.93414 11.2531 1.93732 11.2536 1.94202 11.2539C1.95479 11.2547 1.98162 11.2539 2.03089 11.2461C2.14068 11.2286 2.28684 11.1884 2.53772 11.1172L3.36389 10.8838L3.37561 10.8818C3.79639 10.7848 4.2376 10.8398 4.62171 11.0371L4.63245 11.043L4.87757 11.1836L4.88733 11.1904C5.21656 11.4013 5.4699 11.7121 5.60999 12.0772L5.61389 12.0869L5.84046 12.7637C5.91725 12.9945 5.96287 13.1278 6.00647 13.2217C6.02608 13.2639 6.03929 13.2852 6.04651 13.2949C6.04976 13.2993 6.05237 13.3018 6.05237 13.3018L6.06116 13.3057C6.07253 13.3094 6.09702 13.315 6.14319 13.3203C6.24572 13.332 6.38585 13.333 6.62854 13.333H7.37171C7.61443 13.333 7.75453 13.332 7.85706 13.3203C7.90328 13.315 7.92774 13.3094 7.93909 13.3057C7.94433 13.3039 7.9469 13.3018 7.9469 13.3018H7.94788C7.94788 13.3018 7.95048 13.2993 7.95374 13.2949C7.96096 13.2852 7.97417 13.2639 7.99378 13.2217C8.03738 13.1278 8.083 12.9945 8.15979 12.7637V12.7627L8.38635 12.0869L8.39026 12.0772C8.53029 11.7122 8.78292 11.4013 9.11194 11.1904L9.12171 11.1836L9.36682 11.043L9.37854 11.0371C9.76265 10.8398 10.2039 10.7848 10.6246 10.8818L10.6364 10.8838L11.4625 11.1172C11.7134 11.1884 11.8596 11.2286 11.9694 11.2461C12.0187 11.2539 12.0455 11.2547 12.0582 11.2539C12.063 11.2536 12.0662 11.2531 12.067 11.2529L12.068 11.252C12.0684 11.2517 12.071 11.2503 12.0748 11.2471C12.0845 11.2387 12.1042 11.2191 12.1344 11.1787C12.201 11.0894 12.2777 10.9583 12.4078 10.7324L12.7369 10.1611C12.8594 9.9487 12.9298 9.8253 12.9713 9.7295C12.9898 9.68686 12.9961 9.66254 12.9987 9.6504C12.9998 9.64483 12.9996 9.64063 12.9996 9.64063V9.63868C12.9993 9.63759 12.9984 9.6348 12.9967 9.63086C12.9918 9.61965 12.98 9.59696 12.9528 9.5586C12.8923 9.47363 12.7981 9.36761 12.6344 9.18555L11.9362 8.40528L11.9264 8.39258C11.6769 8.07652 11.5319 7.59096 11.5319 7.16602C11.5319 6.7412 11.6768 6.2554 11.9264 5.93946L11.9362 5.92774L12.6334 5.14747L12.6344 5.14649C12.7982 4.96435 12.8923 4.85843 12.9528 4.77344C12.9798 4.7354 12.9918 4.71342 12.9967 4.70215C12.999 4.69696 12.9996 4.69336 12.9996 4.69336V4.69141C12.9996 4.69058 12.9996 4.68736 12.9987 4.68262C12.9962 4.67062 12.9898 4.64637 12.9713 4.60352C12.9298 4.50774 12.8593 4.38422 12.7369 4.17188L12.4078 3.60059C12.2774 3.37417 12.2011 3.24265 12.1344 3.15333C12.1042 3.1129 12.0845 3.09431 12.0748 3.08594C12.0705 3.0822 12.068 3.08008 12.068 3.08008H12.067C12.0662 3.07993 12.0631 3.0794 12.0582 3.07911C12.0455 3.07836 12.0187 3.07908 11.9694 3.08692C11.8596 3.10438 11.7134 3.14462 11.4625 3.21583L10.6364 3.44825L10.6246 3.45118C10.2039 3.54815 9.76259 3.49315 9.37854 3.2959L9.3678 3.29004L9.12268 3.14844L9.11292 3.14258C8.78372 2.93174 8.53039 2.62087 8.39026 2.25586L8.38635 2.24512L8.15979 1.56934C8.08297 1.33842 8.03739 1.20527 7.99378 1.11133C7.97411 1.06898 7.96097 1.04781 7.95374 1.03809C7.9504 1.03361 7.94788 1.03125 7.94788 1.03125L7.93909 1.02735C7.92774 1.02359 7.9033 1.01701 7.85706 1.01172C7.75454 1.00004 7.61437 1 7.37171 1L6.62854 1ZM6.97132 4.32813C8.53612 4.32813 9.80432 5.59634 9.80432 7.16114C9.80432 8.72594 8.53612 9.99415 6.97132 9.99415C5.40656 9.99408 4.13831 8.72591 4.13831 7.16114C4.13832 5.59638 5.40657 4.32819 6.97132 4.32813ZM6.97132 5.32813C5.95885 5.32819 5.13832 6.14866 5.13831 7.16114C5.13831 8.17362 5.95885 8.99408 6.97132 8.99415C7.98384 8.99415 8.80432 8.17366 8.80432 7.16114C8.80432 6.14862 7.98383 5.32813 6.97132 5.32813Z" fill="#141415" style="fill:#141415;fill:color(display-p3 0.0784 0.0784 0.0816);fill-opacity:1;"/>
</svg>
