<svg width="15" height="8" viewBox="0 0 15 8" fill="none" xmlns="http://www.w3.org/2000/svg">
<path d="M14.5 8C14.7761 8 15 7.77614 15 7.5V3C15 2.72386 14.7761 2.5 14.5 2.5C14.2239 2.5 14 2.72386 14 3V7H10C9.72386 7 9.5 7.22386 9.5 7.5C9.5 7.77614 9.72386 8 10 8H14.5ZM8.55 1.55L8.90355 1.19645C8.70829 1.00118 8.39171 1.00118 8.19645 1.19645L8.55 1.55ZM5.05 5.05L4.69645 5.40355C4.89171 5.59882 5.20829 5.59882 5.40355 5.40355L5.05 5.05ZM0.853553 0.146447C0.658291 -0.0488155 0.341709 -0.0488155 0.146447 0.146447C-0.0488155 0.341709 -0.0488155 0.658291 0.146447 0.853553L0.5 0.5L0.853553 0.146447ZM14.5 7.5L14.8536 7.14645L8.90355 1.19645L8.55 1.55L8.19645 1.90355L14.1464 7.85355L14.5 7.5ZM8.55 1.55L8.19645 1.19645L4.69645 4.69645L5.05 5.05L5.40355 5.40355L8.90355 1.90355L8.55 1.55ZM5.05 5.05L5.40355 4.69645L0.853553 0.146447L0.5 0.5L0.146447 0.853553L4.69645 5.40355L5.05 5.05Z" fill="#FF4E3E" style="fill:#FF4E3E;fill:color(display-p3 1.0000 0.3063 0.2432);fill-opacity:1;"/>
</svg>
