<svg width="15" height="8" viewBox="0 0 15 8" fill="none" xmlns="http://www.w3.org/2000/svg">
<path d="M15 0.5C15 0.223858 14.7761 0 14.5 0H10C9.72386 0 9.5 0.223858 9.5 0.5C9.5 0.776142 9.72386 1 10 1H14V5C14 5.27614 14.2239 5.5 14.5 5.5C14.7761 5.5 15 5.27614 15 5V0.5ZM8.55 6.45L8.19645 6.80355C8.39171 6.99882 8.70829 6.99882 8.90355 6.80355L8.55 6.45ZM5.05 2.95L5.40355 2.59645C5.20829 2.40118 4.89171 2.40118 4.69645 2.59645L5.05 2.95ZM0.146447 7.14645C-0.0488155 7.34171 -0.0488155 7.65829 0.146447 7.85355C0.341709 8.04882 0.658291 8.04882 0.853553 7.85355L0.5 7.5L0.146447 7.14645ZM14.5 0.5L14.1464 0.146447L8.19645 6.09645L8.55 6.45L8.90355 6.80355L14.8536 0.853553L14.5 0.5ZM8.55 6.45L8.90355 6.09645L5.40355 2.59645L5.05 2.95L4.69645 3.30355L8.19645 6.80355L8.55 6.45ZM5.05 2.95L4.69645 2.59645L0.146447 7.14645L0.5 7.5L0.853553 7.85355L5.40355 3.30355L5.05 2.95Z" fill="#00BC7D" style="fill:#00BC7D;fill:color(display-p3 0.0000 0.7373 0.4902);fill-opacity:1;"/>
</svg>
