<svg width="18" height="18" viewBox="0 0 18 18" fill="none" xmlns="http://www.w3.org/2000/svg">
<path d="M8.58984 2.08616e-07C10.4153 -1.11154e-05 11.8493 -0.000118266 12.9688 0.150391C14.1159 0.304633 15.0261 0.62762 15.7412 1.34277C16.4564 2.05793 16.7794 2.96804 16.9336 4.11523C17.0841 5.23471 17.084 6.66865 17.084 8.49414V8.58984C17.084 10.4153 17.0841 11.8493 16.9336 12.9688C16.7794 14.1159 16.4564 15.0261 15.7412 15.7412C15.0261 16.4564 14.1159 16.7794 12.9688 16.9336C11.8493 17.0841 10.4153 17.084 8.58984 17.084H8.49414C6.66865 17.084 5.23471 17.0841 4.11523 16.9336C2.96804 16.7794 2.05793 16.4564 1.34277 15.7412C0.62762 15.0261 0.304633 14.1159 0.150391 12.9688C-0.000118266 11.8493 -1.11154e-05 10.4153 2.08616e-07 8.58984V8.49414C-1.11154e-05 6.66865 -0.000118243 5.23471 0.150391 4.11523C0.304633 2.96804 0.627619 2.05793 1.34277 1.34277C2.05793 0.627619 2.96804 0.304633 4.11523 0.150391C5.23471 -0.000118243 6.66865 -1.11154e-05 8.49414 2.08616e-07H8.58984ZM8.54199 1.25C6.65854 1.25 5.30877 1.25167 4.28223 1.38965C3.27362 1.52525 2.67077 1.78236 2.22656 2.22656C1.78236 2.67077 1.52525 3.27362 1.38965 4.28223C1.25167 5.30877 1.25 6.65854 1.25 8.54199C1.25 10.4254 1.25167 11.7752 1.38965 12.8018C1.52525 13.8104 1.78236 14.4132 2.22656 14.8574C2.67077 15.3016 3.27362 15.5587 4.28223 15.6943C5.30877 15.8323 6.65854 15.834 8.54199 15.834C10.4254 15.834 11.7752 15.8323 12.8018 15.6943C13.8104 15.5587 14.4132 15.3016 14.8574 14.8574C15.3016 14.4132 15.5587 13.8104 15.6943 12.8018C15.8323 11.7752 15.834 10.4254 15.834 8.54199C15.834 6.65854 15.8323 5.30877 15.6943 4.28223C15.5587 3.27362 15.3016 2.67077 14.8574 2.22656C14.4132 1.78236 13.8104 1.52525 12.8018 1.38965C11.7752 1.25167 10.4254 1.25 8.54199 1.25ZM11.415 5.62012C11.6483 5.36567 12.0434 5.34781 12.2979 5.58105C12.5522 5.81424 12.569 6.20941 12.3359 6.46387L7.75293 11.4639C7.63776 11.5895 7.47606 11.6633 7.30566 11.667C7.13523 11.6707 6.97015 11.6049 6.84961 11.4844L4.7666 9.40039C4.52269 9.1563 4.52258 8.76062 4.7666 8.5166C5.01062 8.27258 5.4063 8.27269 5.65039 8.5166L7.27246 10.1387L11.415 5.62012Z" fill="#141415" style="fill:#141415;fill:color(display-p3 0.0784 0.0784 0.0816);fill-opacity:1;"/>
</svg>
