<svg width="15" height="18" viewBox="0 0 15 18" fill="none" xmlns="http://www.w3.org/2000/svg">
<path d="M7.29199 0C9.70824 5.63774e-08 11.667 1.95875 11.667 4.375V6.00781C13.0759 6.34431 14.1573 7.54007 14.3545 9.00391C14.478 9.92089 14.584 10.8849 14.584 11.875C14.584 12.865 14.4779 13.8283 14.3545 14.7451C14.1282 16.426 12.7356 17.7542 11.0205 17.833C9.8303 17.8877 8.62168 17.916 7.29199 17.916C5.9623 17.916 4.75368 17.8877 3.56348 17.833C1.84843 17.7542 0.4558 16.426 0.229492 14.7451C0.106054 13.8283 2.31971e-05 12.865 0 11.875C0 10.8849 0.10603 9.92089 0.229492 9.00391C0.42664 7.54007 1.50809 6.34431 2.91699 6.00781V4.375C2.91699 1.95875 4.87575 0 7.29199 0ZM7.29199 7.08301C5.9807 7.08301 4.79079 7.11122 3.62012 7.16504C2.52942 7.21533 1.61625 8.06812 1.46777 9.1709C1.34664 10.0706 1.25 10.9691 1.25 11.875C1.25002 12.7806 1.34667 13.6786 1.46777 14.5781C1.61625 15.6809 2.52942 16.5337 3.62012 16.584C4.79079 16.6378 5.9807 16.666 7.29199 16.666C8.60329 16.666 9.7932 16.6378 10.9639 16.584C12.0546 16.5337 12.9677 15.6809 13.1162 14.5781C13.2373 13.6786 13.334 12.7806 13.334 11.875C13.334 10.9691 13.2373 10.0706 13.1162 9.1709C12.9677 8.06812 12.0546 7.21533 10.9639 7.16504C9.7932 7.11122 8.60329 7.08301 7.29199 7.08301ZM5.21582 11.041C5.67606 11.041 6.0498 11.4148 6.0498 11.875C6.04963 12.3351 5.67595 12.708 5.21582 12.708H5.20898C4.74886 12.708 4.37518 12.3351 4.375 11.875C4.375 11.4148 4.74875 11.041 5.20898 11.041H5.21582ZM9.375 11.041C9.83524 11.041 10.209 11.4148 10.209 11.875C10.2088 12.3351 9.83513 12.708 9.375 12.708H9.36816C8.90803 12.708 8.53436 12.3351 8.53418 11.875C8.53418 11.4148 8.90793 11.041 9.36816 11.041H9.375ZM7.29199 1.25C5.5661 1.25 4.16699 2.64911 4.16699 4.375V5.8916C5.1643 5.8535 6.18627 5.83301 7.29199 5.83301C8.39771 5.83301 9.41968 5.8535 10.417 5.8916V4.375C10.417 2.64911 9.01788 1.25 7.29199 1.25Z" fill="#A4A4A8" style="fill:#A4A4A8;fill:color(display-p3 0.6430 0.6430 0.6570);fill-opacity:1;"/>
</svg>
