<svg width="18" height="16" viewBox="0 0 18 16" fill="none" xmlns="http://www.w3.org/2000/svg">
<path d="M6.525 0.0306625C8.15237 -0.010216 9.76383 -0.0102256 11.3912 0.0306625L11.44 0.0316391C12.7106 0.0635429 13.733 0.0891393 14.5523 0.231834C15.4103 0.381245 16.1078 0.667884 16.6969 1.25918C17.2834 1.84796 17.5679 2.53537 17.7145 3.3793C17.854 4.18294 17.8756 5.1807 17.902 6.4164L17.9029 6.46523C17.9206 7.29547 17.9206 8.12132 17.9029 8.95156L17.902 9.00039C17.8756 10.2358 17.8539 11.233 17.7145 12.0365C17.5679 12.8804 17.2832 13.5679 16.6969 14.1566C16.1078 14.7479 15.4102 15.0346 14.5523 15.184C13.733 15.3267 12.7106 15.3523 11.44 15.3842L11.3912 15.3861C9.76384 15.427 8.15236 15.427 6.525 15.3861L6.47617 15.3842C5.20566 15.3523 4.18324 15.3266 3.36386 15.184C2.50595 15.0346 1.80839 14.7479 1.21933 14.1566C0.632844 13.5679 0.347334 12.8805 0.200778 12.0365C0.061301 11.233 0.0405779 10.2357 0.0142547 9.00039L0.0132782 8.95156C-0.00442746 8.12132 -0.00442464 7.29547 0.0132782 6.46523L0.0142547 6.4164C0.0405842 5.18074 0.0612325 4.18293 0.200778 3.3793C0.347345 2.53529 0.632748 1.84799 1.21933 1.25918C1.80838 0.667913 2.50597 0.38124 3.36386 0.231834C4.18324 0.0891835 5.20567 0.0635391 6.47617 0.0316391L6.525 0.0306625ZM1.39218 3.85781C1.30558 4.51817 1.28658 5.35311 1.2623 6.4916C1.24498 7.30404 1.24498 8.11177 1.2623 8.92422C1.28994 10.2202 1.3108 11.1231 1.43222 11.8227C1.54855 12.4925 1.74905 12.9174 2.10508 13.2748C2.45856 13.6296 2.88837 13.8324 3.57773 13.9525C4.29543 14.0775 5.22569 14.1027 6.55625 14.1361C8.16276 14.1765 9.75344 14.1765 11.36 14.1361C12.6903 14.1027 13.6199 14.0775 14.3375 13.9525C15.0271 13.8324 15.4576 13.6297 15.8111 13.2748C16.1671 12.9174 16.3667 12.4925 16.483 11.8227C16.6044 11.1231 16.6253 10.2203 16.6529 8.92422C16.6703 8.11177 16.6703 7.30404 16.6529 6.4916C16.6287 5.35355 16.6086 4.51903 16.5221 3.85879L11.8395 6.51308C10.7618 7.1237 9.8856 7.49643 8.95859 7.49648C8.03152 7.49648 7.15546 7.12373 6.07773 6.51308L1.39218 3.85781ZM11.36 1.27969C9.75345 1.23932 8.16276 1.23933 6.55625 1.27969C5.22569 1.31311 4.29543 1.33829 3.57773 1.46328C2.88845 1.58335 2.45853 1.78635 2.10508 2.14101C1.96073 2.28591 1.84257 2.44264 1.74472 2.62148L6.69394 5.42519C7.74002 6.01791 8.37509 6.24648 8.95859 6.24648C9.54204 6.24643 10.1773 6.01785 11.2232 5.42519L16.1695 2.62246C16.0717 2.44359 15.9555 2.28593 15.8111 2.14101C15.4576 1.7862 15.027 1.58336 14.3375 1.46328C13.6199 1.33835 12.6902 1.31311 11.36 1.27969Z" fill="#A4A4A8" style="fill:#A4A4A8;fill:color(display-p3 0.6430 0.6430 0.6570);fill-opacity:1;"/>
</svg>
