<svg width="22" height="20" viewBox="0 0 22 20" fill="none" xmlns="http://www.w3.org/2000/svg">
<path d="M11.7949 0C13.6315 -8.28505e-06 15.0717 0.000280678 16.2139 0.124023C17.3792 0.250317 18.3236 0.512866 19.1299 1.09863C19.6178 1.45317 20.0468 1.8822 20.4014 2.37012C20.9871 3.17636 21.2497 4.12077 21.376 5.28613C21.4997 6.42826 21.5 7.86855 21.5 9.70508V9.79492C21.5 11.6314 21.4997 13.0717 21.376 14.2139C21.2497 15.3792 20.9871 16.3236 20.4014 17.1299C20.0468 17.6178 19.6178 18.0468 19.1299 18.4014C18.3236 18.9871 17.3792 19.2497 16.2139 19.376C15.0717 19.4997 13.6314 19.5 11.7949 19.5H9.70508C7.86855 19.5 6.42826 19.4997 5.28613 19.376C4.12077 19.2497 3.17636 18.9871 2.37012 18.4014C1.8822 18.0468 1.45317 17.6178 1.09863 17.1299C0.512867 16.3236 0.250317 15.3792 0.124023 14.2139C0.000280678 13.0717 -8.28505e-06 11.6315 0 9.79492V9.70508C-8.28505e-06 7.86854 0.000280678 6.42827 0.124023 5.28613C0.250317 4.12077 0.512867 3.17636 1.09863 2.37012C1.45317 1.8822 1.8822 1.45317 2.37012 1.09863C3.17636 0.512867 4.12077 0.250317 5.28613 0.124023C6.42827 0.000280678 7.86854 -8.28505e-06 9.70508 0H11.7949ZM9 1.50098V17.998C9.24033 17.9984 9.49013 18 9.75 18H11.75C13.6415 18 14.9998 17.9987 16.0518 17.8848C17.0896 17.7723 17.7401 17.5575 18.248 17.1885C18.6089 16.9263 18.9263 16.6088 19.1885 16.248C19.5575 15.7401 19.7723 15.0896 19.8848 14.0518C19.9987 12.9998 20 11.6415 20 9.75C20 7.85853 19.9987 6.50017 19.8848 5.44824C19.7723 4.4104 19.5575 3.75994 19.1885 3.25195C18.9263 2.89115 18.6089 2.57366 18.248 2.31152C17.7401 1.94248 17.0896 1.72768 16.0518 1.61523C14.9998 1.50128 13.6415 1.5 11.75 1.5H9.75C9.49013 1.5 9.24033 1.50065 9 1.50098ZM7.5 1.51172C6.69821 1.52469 6.02687 1.55255 5.44824 1.61523C4.4104 1.72768 3.75994 1.94248 3.25195 2.31152C2.89115 2.57366 2.57366 2.89115 2.31152 3.25195C1.94248 3.75994 1.72768 4.4104 1.61523 5.44824C1.50128 6.50017 1.5 7.85853 1.5 9.75C1.5 11.6415 1.50128 12.9998 1.61523 14.0518C1.72768 15.0896 1.94248 15.7401 2.31152 16.248C2.57366 16.6089 2.89115 16.9263 3.25195 17.1885C3.75994 17.5575 4.4104 17.7723 5.44824 17.8848C6.02686 17.9474 6.69821 17.9743 7.5 17.9873V1.51172ZM15.2607 7.18164C15.5745 6.91155 16.048 6.94711 16.3184 7.26074C16.5885 7.5745 16.5529 8.04803 16.2393 8.31836L15.0127 9.375C14.813 9.54708 14.6815 9.66226 14.5908 9.75C14.6815 9.83774 14.8131 9.95292 15.0127 10.125L16.2393 11.1816C16.5529 11.452 16.5884 11.9255 16.3184 12.2393C16.048 12.5529 15.5745 12.5885 15.2607 12.3184L14.0342 11.2607C14.0237 11.2517 14.0124 11.2434 14.002 11.2344C13.7715 11.0358 13.545 10.8396 13.3818 10.6553C13.2014 10.4514 13 10.1545 13 9.75C13 9.34547 13.2014 9.04861 13.3818 8.84473C13.5449 8.66053 13.7717 8.465 14.002 8.2666C14.0124 8.2576 14.0237 8.24827 14.0342 8.23926L15.2607 7.18164ZM5.25 8C5.66421 8 6 8.33579 6 8.75C6 9.16421 5.66421 9.5 5.25 9.5H3.75C3.33579 9.5 3 9.16421 3 8.75C3 8.33579 3.33579 8 3.75 8H5.25ZM5.25 4C5.66421 4 6 4.33579 6 4.75C6 5.16421 5.66421 5.5 5.25 5.5H3.75C3.33579 5.5 3 5.16421 3 4.75C3 4.33579 3.33579 4 3.75 4H5.25Z" fill="#C7C7D1" style="fill:#C7C7D1;fill:color(display-p3 0.7800 0.7800 0.8200);fill-opacity:1;"/>
</svg>
