<svg width="36" height="36" viewBox="0 0 36 36" fill="none" xmlns="http://www.w3.org/2000/svg">
<rect width="36" height="36" rx="8" fill="#F5F5FF" style="fill:#F5F5FF;fill:color(display-p3 0.9616 0.9622 0.9984);fill-opacity:1;"/>
<path fill-rule="evenodd" clip-rule="evenodd" d="M17.2503 9.9375C13.2117 9.9375 9.93779 13.2114 9.93779 17.25C9.93779 21.2886 13.2117 24.5625 17.2503 24.5625C19.0674 24.5625 20.7282 23.8978 22.0071 22.8008L25.1028 25.8975C25.3225 26.1171 25.6781 26.1171 25.8977 25.8975C26.1174 25.6778 26.1174 25.3222 25.8977 25.1025L22.802 22.0059C23.8986 20.727 24.5628 19.0666 24.5628 17.25C24.5628 13.2114 21.2889 9.9375 17.2503 9.9375ZM17.2503 11.0625C20.6675 11.0625 23.4378 13.8327 23.4378 17.25C23.4378 20.6673 20.6675 23.4375 17.2503 23.4375C13.833 23.4375 11.0628 20.6673 11.0628 17.25C11.0628 13.8327 13.833 11.0625 17.2503 11.0625ZM19.9114 17.9053C19.6018 17.8821 19.3323 18.1142 19.3089 18.4238C19.2747 18.8757 19.195 19.0221 19.1087 19.1084C19.0168 19.2003 18.8586 19.2825 18.347 19.3135C18.0369 19.3323 17.8008 19.5991 17.8196 19.9092C17.8385 20.2192 18.1053 20.4553 18.4153 20.4365C18.9783 20.4024 19.5038 20.3051 19.9046 19.9043C20.2844 19.5245 20.3903 19.034 20.43 18.5088C20.4534 18.199 20.2212 17.9287 19.9114 17.9053ZM14.5892 17.9053C14.2794 17.9287 14.0472 18.199 14.0706 18.5088C14.1103 19.034 14.2162 19.5245 14.596 19.9043C14.9968 20.3051 15.5223 20.4024 16.0852 20.4365C16.3953 20.4553 16.6621 20.2192 16.681 19.9092C16.6997 19.5991 16.4637 19.3323 16.1536 19.3135C15.642 19.2825 15.4838 19.2003 15.3919 19.1084C15.3056 19.0221 15.2258 18.8757 15.1917 18.4238C15.1683 18.1142 14.8988 17.8821 14.5892 17.9053ZM18.4153 14.0635C18.1053 14.0447 17.8385 14.2808 17.8196 14.5908C17.8008 14.9009 18.0369 15.1677 18.347 15.1865C18.8586 15.2175 19.0168 15.2997 19.1087 15.3916C19.2006 15.4835 19.2828 15.6417 19.3138 16.1533C19.3326 16.4634 19.5994 16.6995 19.9095 16.6807C20.2195 16.6618 20.4556 16.395 20.4368 16.085C20.4027 15.522 20.3054 14.9965 19.9046 14.5957C19.5038 14.1949 18.9783 14.0976 18.4153 14.0635ZM16.0852 14.0635C15.5223 14.0976 14.9968 14.1949 14.596 14.5957C14.1952 14.9965 14.0979 15.522 14.0638 16.085C14.045 16.395 14.2811 16.6618 14.5911 16.6807C14.9012 16.6995 15.168 16.4634 15.1868 16.1533C15.2178 15.6417 15.3 15.4835 15.3919 15.3916C15.4838 15.2997 15.642 15.2175 16.1536 15.1865C16.4637 15.1677 16.6997 14.9009 16.681 14.5908C16.6621 14.2808 16.3953 14.0447 16.0852 14.0635Z" fill="#3638FC" style="fill:#3638FC;fill:color(display-p3 0.2118 0.2196 0.9882);fill-opacity:1;"/>
</svg>
