<svg width="36" height="36" viewBox="0 0 36 36" fill="none" xmlns="http://www.w3.org/2000/svg">
<rect width="36" height="36" rx="8" fill="#F5F5FF" style="fill:#F5F5FF;fill:color(display-p3 0.9616 0.9622 0.9984);fill-opacity:1;"/>
<path fill-rule="evenodd" clip-rule="evenodd" d="M20.666 9.9375C21.6917 9.93749 22.5187 9.93699 23.1689 10.0244C23.844 10.1152 24.4119 10.3103 24.8633 10.7617C25.3147 11.2131 25.5098 11.781 25.6006 12.4561C25.688 13.1063 25.6875 13.9333 25.6875 14.959V18.041C25.6875 19.0667 25.688 19.8937 25.6006 20.5439C25.5098 21.219 25.3147 21.7869 24.8633 22.2383C24.4119 22.6897 23.844 22.8848 23.1689 22.9756C22.6136 23.0503 21.9294 23.0599 21.1025 23.0615L23.6016 25.0605C23.8441 25.2546 23.8835 25.609 23.6895 25.8516C23.4954 26.0941 23.141 26.1335 22.8984 25.9395L19.3027 23.0625H18.5625V25.5C18.5625 25.8107 18.3107 26.0625 18 26.0625C17.6893 26.0625 17.4375 25.8107 17.4375 25.5V23.0625H16.6973L13.1016 25.9395C12.859 26.1335 12.5046 26.0941 12.3105 25.8516C12.1165 25.609 12.1559 25.2546 12.3984 25.0605L14.8965 23.0615C14.0701 23.0599 13.3862 23.0502 12.8311 22.9756C12.156 22.8848 11.5881 22.6897 11.1367 22.2383C10.6853 21.7869 10.4902 21.219 10.3994 20.5439C10.312 19.8937 10.3125 19.0667 10.3125 18.041V14.959C10.3125 13.9333 10.312 13.1063 10.3994 12.4561C10.4902 11.781 10.6853 11.2131 11.1367 10.7617C11.5881 10.3103 12.156 10.1152 12.8311 10.0244C13.4813 9.93699 14.3083 9.93749 15.334 9.9375H20.666ZM15.375 11.0625C14.2987 11.0625 13.5479 11.0635 12.9814 11.1396C12.4311 11.2136 12.1392 11.3491 11.9316 11.5566C11.7241 11.7642 11.5886 12.0561 11.5146 12.6064C11.4385 13.1729 11.4375 13.9237 11.4375 15V18C11.4375 19.0763 11.4385 19.8271 11.5146 20.3936C11.5886 20.9439 11.7241 21.2358 11.9316 21.4434C12.1392 21.6509 12.4311 21.7864 12.9814 21.8604C13.5479 21.9365 14.2987 21.9375 15.375 21.9375H20.625C21.7013 21.9375 22.4521 21.9365 23.0186 21.8604C23.5689 21.7864 23.8608 21.6509 24.0684 21.4434C24.2759 21.2358 24.4114 20.9439 24.4854 20.3936C24.5615 19.8271 24.5625 19.0763 24.5625 18V15C24.5625 13.9237 24.5615 13.1729 24.4854 12.6064C24.4114 12.0561 24.2759 11.7642 24.0684 11.5566C23.8608 11.3491 23.5689 11.2136 23.0186 11.1396C22.4521 11.0635 21.7013 11.0625 20.625 11.0625H15.375ZM15 15.9375C15.3107 15.9375 15.5625 16.1893 15.5625 16.5V18.75C15.5625 19.0607 15.3107 19.3125 15 19.3125C14.6893 19.3125 14.4375 19.0607 14.4375 18.75V16.5C14.4375 16.1893 14.6893 15.9375 15 15.9375ZM18 13.6875C18.3107 13.6875 18.5625 13.9393 18.5625 14.25V18.75C18.5625 19.0607 18.3107 19.3125 18 19.3125C17.6893 19.3125 17.4375 19.0607 17.4375 18.75V14.25C17.4375 13.9393 17.6893 13.6875 18 13.6875ZM21 16.6875C21.3107 16.6875 21.5625 16.9393 21.5625 17.25V18.75C21.5625 19.0607 21.3107 19.3125 21 19.3125C20.6893 19.3125 20.4375 19.0607 20.4375 18.75V17.25C20.4375 16.9393 20.6893 16.6875 21 16.6875Z" fill="#3638FC" style="fill:#3638FC;fill:color(display-p3 0.2118 0.2196 0.9882);fill-opacity:1;"/>
</svg>
