<svg width="36" height="36" viewBox="0 0 36 36" fill="none" xmlns="http://www.w3.org/2000/svg">
<rect width="36" height="36" rx="8" fill="#F5F5FF" style="fill:#F5F5FF;fill:color(display-p3 0.9616 0.9622 0.9984);fill-opacity:1;"/>
<path fill-rule="evenodd" clip-rule="evenodd" d="M18.043 10.3125C19.6859 10.3125 20.9768 10.3128 21.9844 10.4482C23.0167 10.5871 23.8359 10.877 24.4795 11.5205C25.1231 12.1641 25.4129 12.9833 25.5518 14.0156C25.6872 15.023 25.6875 16.3135 25.6875 17.9561V18.043C25.6875 19.6859 25.6872 20.9768 25.5518 21.9844C25.4129 23.0167 25.123 23.8359 24.4795 24.4795C23.8359 25.1231 23.0167 25.4129 21.9844 25.5518C20.977 25.6872 19.6864 25.6875 18.0439 25.6875H17.9561C16.3135 25.6875 15.023 25.6872 14.0156 25.5518C12.9833 25.4129 12.1641 25.1231 11.5205 24.4795C10.877 23.8359 10.5871 23.0167 10.4482 21.9844C10.3128 20.9768 10.3125 19.6859 10.3125 18.043V17.957C10.3125 16.314 10.3128 15.0232 10.4482 14.0156C10.5871 12.9833 10.877 12.1641 11.5205 11.5205C12.1641 10.8769 12.9833 10.5871 14.0156 10.4482C15.0232 10.3128 16.314 10.3125 17.957 10.3125H18.043ZM18 11.4375C16.3048 11.4375 15.0899 11.4383 14.166 11.5625C13.2583 11.6845 12.7162 11.9166 12.3164 12.3164C11.9166 12.7162 11.6845 13.2583 11.5625 14.166C11.4383 15.0899 11.4375 16.3048 11.4375 18C11.4375 19.6952 11.4383 20.9101 11.5625 21.834C11.6845 22.7417 11.9166 23.2838 12.3164 23.6836C12.7162 24.0834 13.2583 24.3155 14.166 24.4375C15.0899 24.5617 16.3048 24.5625 18 24.5625C19.6952 24.5625 20.9101 24.5617 21.834 24.4375C22.7417 24.3155 23.2838 24.0834 23.6836 23.6836C24.0834 23.2838 24.3155 22.7417 24.4375 21.834C24.5617 20.9101 24.5625 19.6952 24.5625 18C24.5625 16.3048 24.5617 15.0899 24.4375 14.166C24.3155 13.2583 24.0834 12.7162 23.6836 12.3164C23.2838 11.9166 22.7417 11.6845 21.834 11.5625C20.9101 11.4383 19.6952 11.4375 18 11.4375ZM14.25 20.4375C14.5607 20.4375 14.8125 20.6893 14.8125 21V22.5C14.8125 22.8107 14.5607 23.0625 14.25 23.0625C13.9393 23.0625 13.6875 22.8107 13.6875 22.5V21C13.6875 20.6893 13.9393 20.4375 14.25 20.4375ZM18 19.6875C18.3107 19.6875 18.5625 19.9393 18.5625 20.25V22.5C18.5625 22.8107 18.3107 23.0625 18 23.0625C17.6893 23.0625 17.4375 22.8107 17.4375 22.5V20.25C17.4375 19.9393 17.6893 19.6875 18 19.6875ZM21.75 18.1875C22.0607 18.1875 22.3125 18.4393 22.3125 18.75V22.5C22.3125 22.8107 22.0607 23.0625 21.75 23.0625C21.4393 23.0625 21.1875 22.8107 21.1875 22.5V18.75C21.1875 18.4393 21.4393 18.1875 21.75 18.1875ZM20.8301 12.9326C21.0734 12.9017 21.3012 12.981 21.458 13.0684C21.4743 13.0775 21.4915 13.0869 21.5088 13.0977C21.5143 13.101 21.52 13.1048 21.5254 13.1084C21.6667 13.2002 21.8285 13.3489 21.9111 13.5645C21.9159 13.577 21.9199 13.5897 21.9238 13.6025L22.2959 14.8311C22.3859 15.1284 22.2182 15.4432 21.9209 15.5332C21.6236 15.6232 21.3097 15.4546 21.2197 15.1572L21.0986 14.7588C18.53 18.1865 15.0217 18.2292 13.4756 18.1777C13.1651 18.1674 12.9213 17.9072 12.9316 17.5967C12.942 17.2863 13.2023 17.0435 13.5127 17.0537C14.9398 17.1013 17.895 17.0597 20.1201 14.1855L19.584 14.2725C19.2773 14.3218 18.9879 14.1133 18.9385 13.8066C18.8891 13.4999 19.0986 13.2115 19.4053 13.1621L20.8115 12.9355C20.8176 12.9346 20.824 12.9334 20.8301 12.9326Z" fill="#3638FC" style="fill:#3638FC;fill:color(display-p3 0.2118 0.2196 0.9882);fill-opacity:1;"/>
</svg>
