<svg width="18" height="18" viewBox="0 0 18 18" fill="none" xmlns="http://www.w3.org/2000/svg">
<path fill-rule="evenodd" clip-rule="evenodd" d="M9 0.9375C9.36225 0.9375 9.76973 0.99972 10.1036 1.21825C10.4739 1.46069 10.6875 1.85312 10.6875 2.34375C10.6875 2.69188 10.5816 3.05203 10.4092 3.36323C12.7735 3.96488 14.5591 6.04601 14.6929 8.5887C14.6998 8.71808 14.7048 8.84197 14.7097 8.96137C14.7263 9.3675 14.7408 9.72112 14.8144 10.06C14.9024 10.4648 15.065 10.7831 15.3959 11.0313C15.9729 11.464 16.3125 12.1433 16.3125 12.8645C16.3125 13.9005 15.4971 14.8125 14.4 14.8125H11.7563C11.4956 16.0963 10.3607 17.0625 9 17.0625C7.63935 17.0625 6.50435 16.0963 6.24376 14.8125H3.6C2.50289 14.8125 1.6875 13.9005 1.6875 12.8645C1.6875 12.1948 1.98031 11.5613 2.48412 11.1277L2.6041 11.0313C2.93497 10.7831 3.09769 10.4648 3.18562 10.06C3.24449 9.78889 3.26552 9.50836 3.28009 9.19905L3.29029 8.96137C3.29517 8.84197 3.30024 8.71808 3.30705 8.5887C3.44088 6.04601 5.22643 3.96488 7.59082 3.36323C7.41844 3.05203 7.3125 2.69188 7.3125 2.34375C7.3125 1.85312 7.5261 1.46069 7.89645 1.21825C8.23027 0.99972 8.63775 0.9375 9 0.9375ZM10.5915 14.8125H7.40852C7.64017 15.4679 8.26522 15.9375 9 15.9375C9.73478 15.9375 10.3598 15.4679 10.5915 14.8125ZM9 4.3125C6.5663 4.3125 4.55841 6.21749 4.4305 8.6478C4.42546 8.74365 4.42144 8.84513 4.41726 8.95065C4.40064 9.37065 4.38149 9.85432 4.28499 10.2987C4.15697 10.8882 3.88365 11.4779 3.2791 11.9313C2.98537 12.1516 2.8125 12.4973 2.8125 12.8645C2.8125 13.3258 3.16981 13.6875 3.6 13.6875H14.4C14.8302 13.6875 15.1875 13.3258 15.1875 12.8645C15.1875 12.4973 15.0146 12.1516 14.7209 11.9313C14.1163 11.4779 13.843 10.8882 13.715 10.2987C13.6378 9.9432 13.6101 9.56255 13.5936 9.20947L13.5827 8.95058C13.5785 8.84498 13.5746 8.74358 13.5695 8.6478C13.4416 6.21749 11.4337 4.3125 9 4.3125ZM9 2.0625C8.74095 2.0625 8.58592 2.1115 8.51257 2.15951C8.48235 2.17931 8.46922 2.19648 8.4612 2.21166C8.4528 2.22769 8.4375 2.26579 8.4375 2.34375C8.4375 2.51795 8.5146 2.75413 8.65597 2.94431C8.80147 3.14012 8.93482 3.1875 9 3.1875C9.06518 3.1875 9.19853 3.14012 9.34403 2.94431C9.4854 2.75413 9.5625 2.51795 9.5625 2.34375C9.5625 2.26579 9.5472 2.22769 9.5388 2.21166C9.53078 2.19648 9.51765 2.17931 9.48743 2.15951C9.41408 2.1115 9.25905 2.0625 9 2.0625Z" fill="#141415" style="fill:#141415;fill:color(display-p3 0.0784 0.0784 0.0816);fill-opacity:1;"/>
</svg>
