<svg width="20" height="20" viewBox="0 0 20 20" fill="none" xmlns="http://www.w3.org/2000/svg">
<path d="M17.813 6.31948C18.0047 6.03284 18.3935 5.95497 18.6802 6.14663C18.9667 6.33832 19.0438 6.72623 18.853 7.01284C18.7972 7.09696 18.24 7.91606 17.27 8.88589L18.7749 10.3917C19.0191 10.6359 19.0191 11.0314 18.7749 11.2755C18.6532 11.3972 18.4935 11.4591 18.3335 11.4591H18.3325C18.1726 11.4591 18.0128 11.398 17.8911 11.2755L16.3481 9.73354C15.5402 10.4132 14.5545 11.0831 13.4185 11.5675L14.2856 13.0119C14.463 13.3077 14.3666 13.6918 14.0708 13.8693C13.9701 13.9292 13.8595 13.9581 13.7505 13.9582C13.538 13.9582 13.3309 13.8504 13.2134 13.6554L12.2134 11.9884C11.5186 12.1778 10.7794 12.2912 9.99951 12.2912C9.21922 12.2911 8.47978 12.1789 7.78467 11.9894L6.78565 13.6554C6.66814 13.8504 6.46101 13.9582 6.24854 13.9582C6.13951 13.9581 6.02895 13.93 5.92823 13.8693C5.63246 13.6918 5.53605 13.3077 5.71338 13.0119L6.57959 11.5675C5.44359 11.0829 4.45769 10.4132 3.64991 9.73354L2.10889 11.2755C1.98722 11.3972 1.82651 11.4591 1.66651 11.4591H1.66553C1.50567 11.459 1.34568 11.3979 1.22412 11.2755C0.980194 11.0314 0.980181 10.6359 1.22412 10.3917L2.72803 8.88686C1.75846 7.91729 1.20185 7.09792 1.146 7.01382C0.95445 6.72633 1.03237 6.33827 1.31983 6.14663C1.60726 5.95524 1.99442 6.03314 2.18604 6.32046C2.2177 6.36712 5.40127 11.042 9.99951 11.0421C14.5978 11.0421 17.7813 6.36698 17.813 6.31948Z" fill="#A4A4A8" style="fill:#A4A4A8;fill:color(display-p3 0.6430 0.6430 0.6570);fill-opacity:1;"/>
</svg>
