<svg width="40" height="40" viewBox="0 0 40 40" fill="none" xmlns="http://www.w3.org/2000/svg">
<rect width="40" height="40" rx="20" fill="#020381" style="fill:#020381;fill:color(display-p3 0.0078 0.0118 0.5059);fill-opacity:1;"/>
<path d="M15.6318 13.7031H20.1582C21.1309 13.7031 21.96 13.8496 22.6455 14.1426C23.3311 14.4355 23.8555 14.8691 24.2188 15.4434C24.5879 16.0117 24.7725 16.7148 24.7725 17.5527C24.7725 18.1914 24.6553 18.7539 24.4209 19.2402C24.1865 19.7266 23.8555 20.1367 23.4277 20.4707C23 20.7988 22.4902 21.0537 21.8984 21.2354L21.2305 21.5605H17.1611L17.1436 19.8115H20.1934C20.7207 19.8115 21.1602 19.7178 21.5117 19.5303C21.8633 19.3428 22.127 19.0879 22.3027 18.7656C22.4844 18.4375 22.5752 18.0684 22.5752 17.6582C22.5752 17.2129 22.4873 16.8262 22.3115 16.498C22.1416 16.1641 21.8779 15.9092 21.5205 15.7334C21.1631 15.5518 20.709 15.4609 20.1582 15.4609H17.8379V26.5H15.6318V13.7031ZM22.9355 26.5L19.9297 20.752L22.2412 20.7432L25.291 26.3857V26.5H22.9355Z" fill="white" style="fill:white;fill-opacity:1;"/>
</svg>
