<svg width="22" height="21" viewBox="0 0 22 21" fill="none" xmlns="http://www.w3.org/2000/svg">
<path fill-rule="evenodd" clip-rule="evenodd" d="M9.11215 0.26487C10.1764 -0.0882908 11.3233 -0.088289 12.3875 0.26487C13.4476 0.616732 14.2799 1.45176 15.1161 2.62424C15.9494 3.79288 16.8705 5.4223 18.0575 7.52268L18.1043 7.60471C19.2915 9.70533 20.2121 11.3351 20.786 12.6565C21.3626 13.9843 21.6499 15.1313 21.4207 16.2326C21.19 17.3413 20.6212 18.3495 19.7928 19.1115C18.9663 19.8718 17.8407 20.1928 16.4237 20.3469C15.0146 20.5001 13.1711 20.5002 10.7987 20.5002H10.701C8.32862 20.5002 6.48512 20.5001 5.07601 20.3469C3.65898 20.1928 2.53339 19.8718 1.70687 19.1115C0.878508 18.3495 0.309687 17.3413 0.0789441 16.2326C-0.15021 15.1313 0.137055 13.9843 0.71371 12.6565C1.28758 11.3351 2.2082 9.70533 3.39535 7.60471L3.44223 7.52268C4.62923 5.4223 5.55026 3.79288 6.38363 2.62424C7.21977 1.45176 8.05213 0.616732 9.11215 0.26487ZM11.9149 1.6887C11.1575 1.43739 10.3422 1.43739 9.5848 1.6887C8.98882 1.88653 8.38902 2.39498 7.60433 3.49534C6.82241 4.59188 5.93964 6.15173 4.72445 8.30198C3.50927 10.4522 2.62843 12.0137 2.08969 13.2541C1.55001 14.4968 1.41482 15.2883 1.54769 15.927C1.71533 16.7324 2.12738 17.4606 2.7225 18.008C3.1899 18.438 3.91829 18.7122 5.23812 18.8557C6.55655 18.999 8.31845 19.0002 10.7498 19.0002C13.1812 19.0002 14.9431 18.999 16.2616 18.8557C17.5814 18.7122 18.3098 18.438 18.7772 18.008C19.3723 17.4606 19.7844 16.7324 19.952 15.927C20.0849 15.2883 19.9497 14.4968 19.41 13.2541C18.8713 12.0137 17.9904 10.4522 16.7752 8.30198C15.56 6.15173 14.6773 4.59188 13.8954 3.49534C13.1107 2.39498 12.5109 1.88653 11.9149 1.6887ZM10.0262 9.50022C10.2313 9.50014 10.4533 9.50045 10.6405 9.52561C10.8598 9.5551 11.14 9.63064 11.3758 9.86643C11.6116 10.1022 11.6872 10.3825 11.7166 10.6018C11.7418 10.789 11.7421 11.0109 11.742 11.216V15.2502C11.742 15.6644 11.4062 16.0002 10.992 16.0002C10.5778 16.0002 10.242 15.6644 10.242 15.2502V11.2502C10.242 11.1512 10.2422 11.0706 10.2411 11.0012C10.1716 11.0001 10.0911 11.0002 9.99203 11.0002C9.57782 11.0002 9.24203 10.6644 9.24203 10.2502C9.24204 9.83602 9.57782 9.50022 9.99203 9.50022C10.0034 9.50022 10.0148 9.50023 10.0262 9.50022ZM10.7508 6.25022C11.3031 6.25022 11.7508 6.69794 11.7508 7.25022C11.7508 7.80251 11.3031 8.25022 10.7508 8.25022H10.742C10.1897 8.25022 9.74203 7.80251 9.74203 7.25022C9.74203 6.69794 10.1897 6.25022 10.742 6.25022H10.7508Z" fill="#FF853E" style="fill:#FF853E;fill:color(display-p3 1.0000 0.5207 0.2432);fill-opacity:1;"/>
</svg>
