<svg width="16" height="16" viewBox="0 0 16 16" fill="none" xmlns="http://www.w3.org/2000/svg">
<path fill-rule="evenodd" clip-rule="evenodd" d="M7.90133 2.17668C7.96611 2.1637 8.03281 2.16382 8.09762 2.17668C8.10736 2.17861 8.11641 2.18298 8.12594 2.18547C8.20905 2.20715 8.28835 2.24828 8.35348 2.3134L11.6865 5.64641C11.8817 5.84167 11.8817 6.15818 11.6865 6.35344C11.4912 6.54852 11.1747 6.54864 10.9795 6.35344L8.49996 3.87395V13.3329C8.49996 13.6091 8.2761 13.8329 7.99996 13.8329C7.72382 13.8329 7.49996 13.6091 7.49996 13.3329V3.87395L5.02047 6.35344C4.82526 6.54865 4.50871 6.54854 4.31344 6.35344C4.11818 6.15818 4.11818 5.84167 4.31344 5.64641L7.64645 2.3134C7.71134 2.2485 7.79022 2.20723 7.87301 2.18547C7.88253 2.18296 7.89159 2.17863 7.90133 2.17668Z" fill="#04D28D" style="fill:#04D28D;fill:color(display-p3 0.0173 0.8227 0.5542);fill-opacity:1;"/>
</svg>
