<svg width="15" height="15" viewBox="0 0 15 15" fill="none" xmlns="http://www.w3.org/2000/svg">
<path d="M7.16699 14.334C11.119 14.334 14.334 11.119 14.334 7.16699C14.334 3.21499 11.119 2.10089e-07 7.16699 0C3.21499 0 1.13125e-07 3.21499 0 7.16699C0 11.119 3.21499 14.334 7.16699 14.334ZM1.53223 4.66699C2.34394 2.84485 4.01275 1.48701 6.02441 1.1084C5.46407 1.88788 4.74155 3.10964 4.3291 4.66699H1.53223ZM10.0059 4.66699C9.5933 3.10948 8.86994 1.88788 8.30957 1.1084C10.3212 1.48701 11.99 2.84485 12.8018 4.66699H10.0059ZM5.37402 4.66699C5.85729 3.05223 6.69316 1.85161 7.16699 1.26172C7.64081 1.85205 8.47669 3.05245 8.95996 4.66699H5.37402ZM10.2158 8.66699C10.2907 8.19093 10.334 7.69021 10.334 7.16699C10.334 6.64384 10.2907 6.14301 10.2158 5.66699H13.1475C13.268 6.14745 13.334 6.64969 13.334 7.16699C13.334 7.68429 13.268 8.18653 13.1475 8.66699H10.2158ZM5.13574 8.66699C5.05096 8.1927 5.00001 7.69161 5 7.16699C5 6.64252 5.05004 6.14121 5.13477 5.66699H9.19922C9.28395 6.14119 9.33398 6.6425 9.33398 7.16699C9.33397 7.69153 9.28398 8.19273 9.19922 8.66699H5.13574ZM1.18555 8.66699C1.06501 8.1866 1 7.68421 1 7.16699C1 6.64978 1.06501 6.14738 1.18555 5.66699H4.11816C4.04331 6.14298 4 6.64387 4 7.16699C4.00001 7.69017 4.04327 8.19096 4.11816 8.66699H1.18555ZM6.02441 13.2266C4.01267 12.848 2.34396 11.4892 1.53223 9.66699H4.3291C4.74178 11.2247 5.46403 12.4472 6.02441 13.2266ZM7.16699 13.0713C6.69319 12.4809 5.85727 11.2813 5.37402 9.66699H8.95996C8.47672 11.2815 7.64081 12.4814 7.16699 13.0713ZM8.30957 13.2266C8.87 12.4472 9.59319 11.225 10.0059 9.66699H12.8018C11.99 11.4892 10.3213 12.848 8.30957 13.2266Z" fill="#C34BFF" style="fill:#C34BFF;fill:color(display-p3 0.7647 0.2941 1.0000);fill-opacity:1;"/>
</svg>
