<svg width="16" height="16" viewBox="0 0 16 16" fill="none" xmlns="http://www.w3.org/2000/svg">
<path fill-rule="evenodd" clip-rule="evenodd" d="M6.90801 1.34364C7.6176 1.10811 8.38201 1.10811 9.0916 1.34364C9.7983 1.57822 10.3535 2.13421 10.9109 2.9159C11.4665 3.695 12.0806 4.78128 12.8719 6.18153L12.9031 6.23621C13.6946 7.6367 14.3077 8.72347 14.6902 9.60438C15.0747 10.4896 15.2668 11.2539 15.1141 11.9882C14.9602 12.7274 14.5805 13.4 14.0281 13.9081C13.4771 14.4148 12.7266 14.6286 11.782 14.7313C10.8426 14.8334 9.61355 14.8329 8.03203 14.8329H7.96758C6.38605 14.8329 5.15697 14.8334 4.21758 14.7313C3.27299 14.6286 2.5225 14.4148 1.97148 13.9081C1.41912 13.4 1.03938 12.7274 0.885547 11.9882C0.732777 11.2539 0.924939 10.4896 1.30938 9.60438C1.69195 8.72347 2.30501 7.6367 3.09648 6.23621L3.12773 6.18153C3.91906 4.78128 4.53309 3.695 5.08867 2.9159C5.64611 2.13421 6.20131 1.57822 6.90801 1.34364ZM8.77715 2.29188C8.27205 2.12422 7.72756 2.12422 7.22246 2.29188C6.82521 2.42381 6.42616 2.76351 5.90313 3.49696C5.38187 4.22795 4.79327 5.26767 3.9832 6.70106C3.17304 8.13462 2.58553 9.17581 2.22637 10.0028C1.86668 10.8311 1.77652 11.3584 1.86504 11.7841C1.97678 12.3211 2.25146 12.8068 2.64824 13.1718C2.95987 13.4584 3.44597 13.6415 4.32598 13.7372C5.20487 13.8327 6.37918 13.8329 7.9998 13.8329C9.62043 13.8329 10.7947 13.8327 11.6736 13.7372C12.5536 13.6415 13.0397 13.4584 13.3514 13.1718C13.7481 12.8068 14.0228 12.3211 14.1346 11.7841C14.2231 11.3584 14.1329 10.8311 13.7732 10.0028C13.4141 9.17581 12.8266 8.13462 12.0164 6.70106C11.2063 5.26767 10.6177 4.22795 10.0965 3.49696C9.57345 2.76351 9.17441 2.42381 8.77715 2.29188ZM7.51738 7.49989C7.65397 7.49983 7.80184 7.49976 7.92656 7.51649C8.07272 7.53614 8.25963 7.58696 8.4168 7.74403C8.574 7.90123 8.62468 8.08805 8.64434 8.23426C8.66111 8.35901 8.66099 8.50676 8.66094 8.64344V11.3329C8.66094 11.609 8.43708 11.8329 8.16094 11.8329C7.88495 11.8327 7.66094 11.6089 7.66094 11.3329V8.50086C7.61471 8.50012 7.56083 8.49989 7.49492 8.49989C7.21878 8.49989 6.99492 8.27603 6.99492 7.99989C6.99493 7.72375 7.21879 7.49989 7.49492 7.49989C7.50237 7.49989 7.50986 7.49989 7.51738 7.49989ZM8.00078 5.33289C8.36888 5.333 8.66679 5.63177 8.6668 5.99989C8.6668 6.36801 8.36888 6.66677 8.00078 6.66688H7.99492C7.62673 6.66688 7.32793 6.36808 7.32793 5.99989C7.32794 5.6317 7.62674 5.33289 7.99492 5.33289H8.00078Z" fill="#FF853E" style="fill:#FF853E;fill:color(display-p3 1.0000 0.5207 0.2432);fill-opacity:1;"/>
</svg>
