<svg width="18" height="18" viewBox="0 0 18 18" fill="none" xmlns="http://www.w3.org/2000/svg">
<path d="M1.47141 11.4385C1.78155 11.4231 2.04562 11.6616 2.06125 11.9717C2.1426 13.6074 2.38594 14.4436 2.95969 15.0157C3.62134 15.675 4.62417 15.8891 6.74973 15.9375C7.06027 15.9446 7.30655 16.2022 7.29954 16.5127C7.29246 16.8233 7.03492 17.0696 6.72434 17.0625C4.64041 17.0151 3.1841 16.8274 2.16575 15.8125C1.26962 14.9193 1.02116 13.6958 0.938208 12.0283C0.922784 11.7182 1.16134 11.4541 1.47141 11.4385ZM16.5281 11.4385C16.8381 11.4541 17.0767 11.7182 17.0613 12.0283C16.9783 13.6959 16.7299 14.9193 15.8337 15.8125C14.8153 16.8274 13.3591 17.0151 11.2751 17.0625C10.9645 17.0696 10.707 16.8233 10.6999 16.5127C10.6929 16.2022 10.9392 15.9446 11.2497 15.9375C13.3753 15.8891 14.3781 15.675 15.0398 15.0157C15.6135 14.4436 15.8569 13.6074 15.9382 11.9717C15.9538 11.6616 16.2179 11.4231 16.5281 11.4385ZM8.62473 4.68753C10.7994 4.68753 12.5622 6.45039 12.5622 8.62503C12.5622 9.50947 12.2704 10.3261 11.7781 10.9834L13.1472 12.3526C13.3669 12.5722 13.3669 12.9278 13.1472 13.1475C12.9275 13.3672 12.5719 13.3672 12.3523 13.1475L10.9831 11.7783C10.3258 12.2707 9.50918 12.5625 8.62473 12.5625C6.45009 12.5625 4.68723 10.7997 4.68723 8.62503C4.68723 6.45039 6.4501 4.68753 8.62473 4.68753ZM8.62473 5.81253C7.07142 5.81253 5.81223 7.07171 5.81223 8.62503C5.81223 10.1783 7.07141 11.4375 8.62473 11.4375C10.1781 11.4375 11.4372 10.1783 11.4372 8.62503C11.4372 7.07171 10.1781 5.81253 8.62473 5.81253ZM6.72434 0.937527C7.03492 0.93045 7.29246 1.17675 7.29954 1.48733C7.30655 1.79786 7.06028 2.05545 6.74973 2.06253C4.62416 2.11099 3.62134 2.32504 2.95969 2.9844C2.38594 3.55641 2.1426 4.39267 2.06125 6.02835C2.04562 6.33844 1.78156 6.57697 1.47141 6.56155C1.16134 6.54591 0.922784 6.28185 0.938208 5.97171C1.02116 4.30426 1.26962 3.08075 2.16575 2.18753C3.1841 1.1727 4.64043 0.98502 6.72434 0.937527ZM11.2751 0.937527C13.3591 0.985019 14.8153 1.1727 15.8337 2.18753C16.7299 3.08075 16.9783 4.30424 17.0613 5.97171C17.0767 6.28186 16.8381 6.54593 16.5281 6.56155C16.2179 6.57697 15.9538 6.33843 15.9382 6.02835C15.8569 4.39265 15.6135 3.55641 15.0398 2.9844C14.3781 2.32503 13.3753 2.11098 11.2497 2.06253C10.9392 2.05545 10.6929 1.79786 10.6999 1.48733C10.707 1.17675 10.9645 0.93045 11.2751 0.937527Z" fill="#141415" style="fill:#141415;fill:color(display-p3 0.0784 0.0784 0.0816);fill-opacity:1;"/>
</svg>
