<svg width="36" height="36" viewBox="0 0 36 36" fill="none" xmlns="http://www.w3.org/2000/svg">
<rect width="36" height="36" rx="8" fill="#EBFEF8" style="fill:#EBFEF8;fill:color(display-p3 0.9216 0.9961 0.9725);fill-opacity:1;"/>
<path fill-rule="evenodd" clip-rule="evenodd" d="M18 9.9375C22.4528 9.9375 26.0625 13.5472 26.0625 18C26.0625 22.4528 22.4528 26.0625 18 26.0625C13.5472 26.0625 9.9375 22.4528 9.9375 18C9.9375 13.5472 13.5472 9.9375 18 9.9375ZM18 11.0625C14.1685 11.0625 11.0625 14.1685 11.0625 18C11.0625 21.8315 14.1685 24.9375 18 24.9375C21.8315 24.9375 24.9375 21.8315 24.9375 18C24.9375 14.1685 21.8315 11.0625 18 11.0625ZM20.585 15.3701C20.7948 15.1412 21.1509 15.1253 21.3799 15.335C21.6088 15.5448 21.6247 15.9009 21.415 16.1299L17.29 20.6299C17.1865 20.7429 17.0409 20.809 16.8877 20.8125C16.7343 20.8158 16.586 20.7559 16.4775 20.6475L14.6025 18.7725C14.3829 18.5528 14.3829 18.1972 14.6025 17.9775C14.8222 17.7579 15.1778 17.7579 15.3975 17.9775L16.8574 19.4365L20.585 15.3701Z" fill="#1EA477" style="fill:#1EA477;fill:color(display-p3 0.1178 0.6422 0.4674);fill-opacity:1;"/>
</svg>
