<svg width="36" height="36" viewBox="0 0 36 36" fill="none" xmlns="http://www.w3.org/2000/svg">
<rect width="36" height="36" rx="8" fill="#EBEFFE" style="fill:#EBEFFE;fill:color(display-p3 0.9216 0.9373 0.9961);fill-opacity:1;"/>
<path fill-rule="evenodd" clip-rule="evenodd" d="M18 9.9375C22.4528 9.9375 26.0625 13.5472 26.0625 18C26.0625 22.4528 22.4528 26.0625 18 26.0625C13.5472 26.0625 9.9375 22.4528 9.9375 18C9.9375 13.5472 13.5472 9.9375 18 9.9375ZM18 11.0625C14.1685 11.0625 11.0625 14.1685 11.0625 18C11.0625 21.8315 14.1685 24.9375 18 24.9375C21.8315 24.9375 24.9375 21.8315 24.9375 18C24.9375 14.1685 21.8315 11.0625 18 11.0625ZM18 14.4375C18.3107 14.4375 18.5625 14.6893 18.5625 15V17.7666L19.8975 19.1025C20.1171 19.3222 20.1171 19.6778 19.8975 19.8975C19.6778 20.1171 19.3222 20.1171 19.1025 19.8975L17.6025 18.3975C17.497 18.292 17.4375 18.1492 17.4375 18V15C17.4375 14.6893 17.6893 14.4375 18 14.4375Z" fill="#365EFF" style="fill:#365EFF;fill:color(display-p3 0.2123 0.3699 1.0000);fill-opacity:1;"/>
</svg>
