<svg width="36" height="36" viewBox="0 0 36 36" fill="none" xmlns="http://www.w3.org/2000/svg">
<rect width="36" height="36" rx="8" fill="#FBF5FF" style="fill:#FBF5FF;fill:color(display-p3 0.9861 0.9616 0.9984);fill-opacity:1;"/>
<path fill-rule="evenodd" clip-rule="evenodd" d="M13.5 23.4375C13.8107 23.4375 14.0625 23.6893 14.0625 24C14.0625 24.3107 13.8107 24.5625 13.5 24.5625H11.25C10.9393 24.5625 10.6875 24.3107 10.6875 24C10.6875 23.6893 10.9393 23.4375 11.25 23.4375H13.5ZM19.125 23.4375C19.4357 23.4375 19.6875 23.6893 19.6875 24C19.6875 24.3107 19.4357 24.5625 19.125 24.5625H16.875C16.5643 24.5625 16.3125 24.3107 16.3125 24C16.3125 23.6893 16.5643 23.4375 16.875 23.4375H19.125ZM24.75 23.4375C25.0607 23.4375 25.3125 23.6893 25.3125 24C25.3125 24.3107 25.0607 24.5625 24.75 24.5625H22.5C22.1893 24.5625 21.9375 24.3107 21.9375 24C21.9375 23.6893 22.1893 23.4375 22.5 23.4375H24.75ZM13.5 20.4375C13.8107 20.4375 14.0625 20.6893 14.0625 21C14.0625 21.3107 13.8107 21.5625 13.5 21.5625H11.25C10.9393 21.5625 10.6875 21.3107 10.6875 21C10.6875 20.6893 10.9393 20.4375 11.25 20.4375H13.5ZM19.125 20.4375C19.4357 20.4375 19.6875 20.6893 19.6875 21C19.6875 21.3107 19.4357 21.5625 19.125 21.5625H16.875C16.5643 21.5625 16.3125 21.3107 16.3125 21C16.3125 20.6893 16.5643 20.4375 16.875 20.4375H19.125ZM24.75 20.4375C25.0607 20.4375 25.3125 20.6893 25.3125 21C25.3125 21.3107 25.0607 21.5625 24.75 21.5625H22.5C22.1893 21.5625 21.9375 21.3107 21.9375 21C21.9375 20.6893 22.1893 20.4375 22.5 20.4375H24.75ZM13.5 17.4375C13.8107 17.4375 14.0625 17.6893 14.0625 18C14.0625 18.3107 13.8107 18.5625 13.5 18.5625H11.25C10.9393 18.5625 10.6875 18.3107 10.6875 18C10.6875 17.6893 10.9393 17.4375 11.25 17.4375H13.5ZM19.125 17.4375C19.4357 17.4375 19.6875 17.6893 19.6875 18C19.6875 18.3107 19.4357 18.5625 19.125 18.5625H16.875C16.5643 18.5625 16.3125 18.3107 16.3125 18C16.3125 17.6893 16.5643 17.4375 16.875 17.4375H19.125ZM24.75 17.4375C25.0607 17.4375 25.3125 17.6893 25.3125 18C25.3125 18.3107 25.0607 18.5625 24.75 18.5625H22.5C22.1893 18.5625 21.9375 18.3107 21.9375 18C21.9375 17.6893 22.1893 17.4375 22.5 17.4375H24.75ZM13.5 14.4375C13.8107 14.4375 14.0625 14.6893 14.0625 15C14.0625 15.3107 13.8107 15.5625 13.5 15.5625H11.25C10.9393 15.5625 10.6875 15.3107 10.6875 15C10.6875 14.6893 10.9393 14.4375 11.25 14.4375H13.5ZM24.75 14.4375C25.0607 14.4375 25.3125 14.6893 25.3125 15C25.3125 15.3107 25.0607 15.5625 24.75 15.5625H22.5C22.1893 15.5625 21.9375 15.3107 21.9375 15C21.9375 14.6893 22.1893 14.4375 22.5 14.4375H24.75ZM13.5 11.4375C13.8107 11.4375 14.0625 11.6893 14.0625 12C14.0625 12.3107 13.8107 12.5625 13.5 12.5625H11.25C10.9393 12.5625 10.6875 12.3107 10.6875 12C10.6875 11.6893 10.9393 11.4375 11.25 11.4375H13.5Z" fill="#C34BFF" style="fill:#C34BFF;fill:color(display-p3 0.7652 0.2955 1.0000);fill-opacity:1;"/>
</svg>
