<svg width="18" height="18" viewBox="0 0 18 18" fill="none" xmlns="http://www.w3.org/2000/svg">
<path d="M9.13188 0.942668C9.50926 0.971064 9.81527 1.14103 10.0948 1.35966C10.3578 1.56547 10.649 1.85718 10.9893 2.19755L11.0127 2.22099C11.355 2.56327 11.4331 2.62937 11.5157 2.66728C11.5301 2.67388 11.5448 2.68032 11.5596 2.68583C11.6448 2.71744 11.7465 2.72587 12.2305 2.72587H12.3506C12.8839 2.72584 13.3399 2.72573 13.7041 2.7747C14.093 2.82701 14.4604 2.94413 14.7579 3.2415C15.0555 3.5391 15.1733 3.90716 15.2256 4.29618C15.2746 4.66046 15.2745 5.11646 15.2745 5.6497V5.76884C15.2745 6.25317 15.2829 6.35454 15.3145 6.43974C15.32 6.45452 15.3255 6.46935 15.3321 6.48368C15.37 6.56627 15.436 6.64424 15.7784 6.98661L15.8028 7.01005C16.143 7.35028 16.4339 7.6416 16.6397 7.90458C16.8585 8.18425 17.0294 8.49075 17.0577 8.86845C17.0642 8.95607 17.0642 9.0445 17.0577 9.13212C17.0293 9.50962 16.8584 9.81545 16.6397 10.095C16.4339 10.358 16.1431 10.6492 15.8028 10.9895L15.7784 11.013C15.4359 11.3555 15.37 11.4333 15.3321 11.5159C15.3255 11.5302 15.32 11.5451 15.3145 11.5599C15.2829 11.645 15.2745 11.7467 15.2745 12.2308V12.3509C15.2745 12.8841 15.2746 13.3401 15.2256 13.7044C15.1733 14.0933 15.0554 14.4605 14.7579 14.7581C14.4603 15.0556 14.0931 15.1736 13.7041 15.2259C13.3399 15.2748 12.8839 15.2747 12.3506 15.2747H12.2305C11.7465 15.2747 11.6448 15.2831 11.5596 15.3147C11.5448 15.3202 11.53 15.3257 11.5157 15.3323C11.4331 15.3702 11.3552 15.4361 11.0127 15.7786L10.9893 15.803C10.649 16.1433 10.3578 16.4341 10.0948 16.6399C9.8152 16.8587 9.50938 17.0295 9.13188 17.0579C9.04426 17.0645 8.95582 17.0645 8.8682 17.0579C8.4905 17.0296 8.18401 16.8587 7.90434 16.6399C7.64136 16.4341 7.35003 16.1433 7.00981 15.803L6.98637 15.7786C6.64399 15.4362 6.56603 15.3702 6.48344 15.3323C6.46911 15.3258 6.45428 15.3202 6.43949 15.3147C6.3543 15.2831 6.25293 15.2747 5.7686 15.2747H5.64945C5.11621 15.2747 4.66022 15.2748 4.29594 15.2259C3.90692 15.1736 3.53885 15.0557 3.24125 14.7581C2.94388 14.4606 2.82676 14.0932 2.77445 13.7044C2.72548 13.3401 2.7256 12.8841 2.72563 12.3509V12.2308C2.72562 11.7467 2.71719 11.645 2.68559 11.5599C2.68008 11.545 2.67363 11.5303 2.66703 11.5159C2.62912 11.4334 2.56303 11.3553 2.22074 11.013L2.19731 10.9895C1.85693 10.6492 1.56522 10.3581 1.35942 10.095C1.14079 9.81552 0.97082 9.50951 0.942424 9.13212C0.935857 9.04449 0.935861 8.95608 0.942424 8.86845C0.970728 8.49075 1.14061 8.18425 1.35942 7.90458C1.56522 7.64154 1.85695 7.35038 2.19731 7.01005L2.22074 6.98661C2.56331 6.64405 2.62914 6.56629 2.66703 6.48368C2.67363 6.46929 2.68008 6.45458 2.68559 6.43974C2.71713 6.35458 2.72563 6.25284 2.72563 5.76884V5.6497C2.7256 5.11642 2.72551 4.66047 2.77445 4.29618C2.82676 3.90716 2.94365 3.5391 3.24125 3.2415C3.53885 2.9439 3.90692 2.827 4.29594 2.7747C4.66023 2.72575 5.11618 2.72584 5.64945 2.72587H5.7686C6.2526 2.72587 6.35433 2.71738 6.43949 2.68583C6.45433 2.68033 6.46905 2.67387 6.48344 2.66728C6.56605 2.62938 6.6438 2.56355 6.98637 2.22099L7.00981 2.19755C7.35014 1.85719 7.64129 1.56546 7.90434 1.35966C8.18401 1.14085 8.4905 0.970973 8.8682 0.942668C8.95584 0.936105 9.04425 0.936101 9.13188 0.942668ZM8.95219 2.06474C8.88606 2.0697 8.78968 2.09617 8.5977 2.24638C8.39525 2.40482 8.15291 2.64624 7.78227 3.01689C7.76486 3.0343 7.74759 3.05153 7.73051 3.06864C7.46888 3.33094 7.24294 3.55669 6.95317 3.68974C6.91323 3.70806 6.87229 3.72523 6.8311 3.74052C6.53201 3.85149 6.21245 3.85134 5.84184 3.85087H5.68656C5.10533 3.85087 4.72577 3.85126 4.44535 3.88896C4.18117 3.92449 4.09088 3.98367 4.03715 4.03739C3.98342 4.09112 3.92424 4.18142 3.88871 4.4456C3.85101 4.72602 3.85063 5.10557 3.85063 5.68681V5.84208C3.85109 6.2127 3.85125 6.53226 3.74028 6.83134C3.72499 6.87253 3.70781 6.91348 3.68949 6.95341C3.55645 7.24319 3.33069 7.46912 3.0684 7.73075C3.05128 7.74783 3.03405 7.7651 3.01664 7.78251C2.646 8.15316 2.40457 8.39549 2.24613 8.59794C2.09593 8.78993 2.06945 8.8863 2.06449 8.95243C2.06213 8.98398 2.06215 9.01561 2.06449 9.04716C2.06945 9.11329 2.09592 9.20966 2.24613 9.40165C2.40457 9.60416 2.64583 9.84725 3.01664 10.2181C3.03396 10.2354 3.05137 10.2528 3.0684 10.2698C3.3307 10.5315 3.55652 10.7573 3.68949 11.0472C3.70775 11.087 3.72503 11.1272 3.74028 11.1683C3.85126 11.4674 3.85109 11.7878 3.85063 12.1585V12.3128C3.85063 12.8939 3.85105 13.2736 3.88871 13.554C3.92424 13.8183 3.98342 13.9094 4.03715 13.9632C4.09091 14.0168 4.18165 14.0752 4.44535 14.1106C4.72577 14.1483 5.10533 14.1497 5.68656 14.1497H5.84184C6.21246 14.1492 6.53201 14.1491 6.8311 14.2601C6.87223 14.2753 6.91328 14.2916 6.95317 14.3099C7.24302 14.4429 7.46882 14.6696 7.73051 14.9319C7.7475 14.949 7.76495 14.9664 7.78227 14.9837C8.15292 15.3543 8.39524 15.5958 8.5977 15.7542C8.7897 15.9044 8.88606 15.9309 8.95219 15.9358C8.98372 15.9382 9.01539 15.9382 9.04692 15.9358C9.11302 15.9309 9.20959 15.9042 9.40141 15.7542C9.60391 15.5958 9.84701 15.3545 10.2178 14.9837C10.2352 14.9663 10.2525 14.949 10.2696 14.9319C10.5313 14.6695 10.7569 14.4429 11.0469 14.3099C11.0866 14.2917 11.1271 14.2753 11.168 14.2601C11.4671 14.1491 11.7876 14.1492 12.1582 14.1497H12.3125C12.8937 14.1497 13.2733 14.1483 13.5538 14.1106C13.818 14.0751 13.9092 14.0169 13.9629 13.9632C14.0167 13.9094 14.0749 13.8183 14.1104 13.554C14.1481 13.2736 14.1495 12.894 14.1495 12.3128V12.1585C14.149 11.7878 14.1488 11.4674 14.2598 11.1683C14.275 11.1273 14.2914 11.0868 14.3096 11.0472C14.4426 10.7572 14.6693 10.5316 14.9317 10.2698C14.9488 10.2527 14.966 10.2355 14.9834 10.2181C15.3542 9.84725 15.5955 9.60416 15.7539 9.40165C15.904 9.20983 15.9306 9.11326 15.9356 9.04716C15.9379 9.01563 15.9379 8.98396 15.9356 8.95243C15.9306 8.8863 15.9042 8.78994 15.7539 8.59794C15.5955 8.39549 15.3541 8.15317 14.9834 7.78251C14.9661 7.76519 14.9487 7.74774 14.9317 7.73075C14.6693 7.46908 14.4426 7.24326 14.3096 6.95341C14.2913 6.91353 14.2751 6.87247 14.2598 6.83134C14.1488 6.53226 14.149 6.2127 14.1495 5.84208V5.68681C14.1495 5.10557 14.1481 4.72602 14.1104 4.4456C14.0749 4.1819 14.0166 4.09115 13.9629 4.03739C13.9092 3.98366 13.818 3.92449 13.5538 3.88896C13.2733 3.85129 12.8937 3.85087 12.3125 3.85087H12.1582C11.7876 3.85134 11.4671 3.8515 11.168 3.74052C11.127 3.72528 11.0867 3.70799 11.0469 3.68974C10.757 3.55676 10.5312 3.33095 10.2696 3.06864C10.2526 3.05161 10.2351 3.03421 10.2178 3.01689C9.84701 2.64608 9.60391 2.40481 9.40141 2.24638C9.20941 2.09617 9.11305 2.06969 9.04692 2.06474C9.01536 2.06239 8.98374 2.06237 8.95219 2.06474ZM9.00004 5.81278C10.7603 5.81293 12.1875 7.23997 12.1875 9.00028C12.1874 10.7605 10.7602 12.1876 9.00004 12.1878C7.23972 12.1878 5.81268 10.7606 5.81254 9.00028C5.81254 7.23988 7.23963 5.81278 9.00004 5.81278ZM9.00004 6.93778C7.86095 6.93778 6.93754 7.8612 6.93754 9.00028C6.93768 10.1392 7.86104 11.0628 9.00004 11.0628C10.1389 11.0626 11.0624 10.1392 11.0625 9.00028C11.0625 7.86129 10.139 6.93793 9.00004 6.93778Z" fill="#141415" style="fill:#141415;fill:color(display-p3 0.0784 0.0784 0.0816);fill-opacity:1;"/>
</svg>
