<svg width="13" height="13" viewBox="0 0 13 13" fill="none" xmlns="http://www.w3.org/2000/svg">
<path d="M6 0.00976562C6.22777 0.0561027 6.39868 0.257516 6.39941 0.499023C6.39941 0.775002 6.17703 0.999965 5.90039 1C3.50572 1.00467 2.38811 1.07576 1.73145 1.73242C0.999088 2.46516 0.999023 3.81304 0.999023 6.5C0.999023 9.18733 0.999445 10.5349 1.73145 11.2676C2.46345 11.9996 3.81171 12 6.49902 12C9.18636 12 10.5339 11.9996 11.2666 11.2676C11.9232 10.6109 11.9944 9.49343 11.999 7.09961C11.999 6.82361 12.223 6.59961 12.499 6.59961H12.5C12.7758 6.59979 12.999 6.82472 12.999 7.10059C12.9944 9.56392 12.9443 11.0046 11.9736 11.9746C10.9483 12.9993 9.46169 12.999 6.49902 12.999L6.5 13C3.53749 13 2.05005 12.9998 1.02539 11.9746C5.73452e-05 10.9493 0 9.46267 0 6.5C0 3.53733 5.73843e-05 2.05006 1.02539 1.02539C1.99539 0.0548811 3.43622 0.00466641 5.89941 0L6 0.00976562ZM10.1621 0.181641C10.338 -0.0309361 10.6526 -0.061183 10.8652 0.115234C10.9206 0.16123 12.2319 1.24852 12.7646 1.87988C12.9047 2.04619 12.9863 2.24517 12.998 2.44824V2.54297C12.9886 2.7508 12.9082 2.95091 12.7656 3.12012C12.2322 3.75214 10.9206 4.83877 10.8652 4.88477C10.6527 5.06064 10.3381 5.03171 10.1621 4.81934C9.98613 4.6067 10.0149 4.29125 10.2275 4.11523C10.2369 4.10723 10.9209 3.53996 11.4756 3.01465C9.32896 3.00998 8.21802 3.03302 7.5127 3.54102C7.2648 3.71896 7.04873 3.93473 6.87012 4.18262C6.33345 4.92528 6.33301 6.12031 6.33301 8.50098C6.33276 8.77677 6.10886 9.00098 5.83301 9.00098V9C5.55705 9 5.33308 8.77594 5.33301 8.5C5.33301 5.9049 5.33279 4.60131 6.05859 3.59668C6.30126 3.26135 6.59435 2.96918 6.92969 2.72852C7.89229 2.03589 9.12816 2.00999 11.5059 2.01465C10.9466 1.48136 10.2375 0.892765 10.2275 0.884766C10.0152 0.70873 9.98624 0.394206 10.1621 0.181641Z" fill="#141415" style="fill:#141415;fill:color(display-p3 0.0784 0.0784 0.0816);fill-opacity:1;"/>
</svg>
