<svg width="18" height="18" viewBox="0 0 18 18" fill="none" xmlns="http://www.w3.org/2000/svg">
<path fill-rule="evenodd" clip-rule="evenodd" d="M8.58312 2.17598C8.33721 2.26874 8.0174 2.41047 7.56151 2.61284C6.88273 2.91415 6.03224 3.24467 5.0658 3.51939C4.36963 3.71728 3.88586 3.85541 3.53561 3.99123C3.18165 4.12848 3.05655 4.23069 3.00193 4.303C2.93948 4.38568 2.88051 4.52162 2.84726 4.83556C2.81324 5.15665 2.8125 5.58276 2.8125 6.21022L2.8125 8.38751C2.8125 10.3145 3.67645 11.8721 4.79916 13.0883C5.92574 14.3088 7.28843 15.1567 8.20801 15.6421C8.67987 15.8911 8.78836 15.9375 9 15.9375C9.21165 15.9375 9.32013 15.8911 9.79199 15.6421C10.7116 15.1567 12.0743 14.3088 13.2008 13.0883C14.3236 11.8721 15.1875 10.3145 15.1875 8.38751V6.21022C15.1875 5.58276 15.1868 5.15665 15.1527 4.83556C15.1195 4.52162 15.0605 4.38568 14.9981 4.303C14.9435 4.23069 14.8184 4.12848 14.4644 3.99123C14.1141 3.85541 13.6304 3.71728 12.9342 3.51939C11.9678 3.24467 11.1173 2.91415 10.4385 2.61284C9.9826 2.41047 9.66279 2.26874 9.41688 2.17598C9.16409 2.08062 9.05197 2.0625 9 2.0625C8.94803 2.0625 8.83591 2.08062 8.58312 2.17598ZM8.18607 1.12338C8.46234 1.01916 8.734 0.9375 9 0.9375C9.266 0.9375 9.53766 1.01916 9.81394 1.12338C10.0936 1.22886 10.4428 1.3839 10.8784 1.57725L10.8949 1.5846C11.5351 1.86879 12.3355 2.17962 13.2418 2.43726L13.2699 2.44525C13.9313 2.63326 14.4661 2.78525 14.8711 2.94233C15.2782 3.10018 15.6473 3.296 15.8958 3.62493C16.1364 3.9435 16.229 4.31568 16.2715 4.71706C16.3125 5.10447 16.3125 5.59058 16.3125 6.17913V8.38751C16.3125 10.6794 15.2779 12.4968 14.0275 13.8514C12.7809 15.2018 11.2959 16.1204 10.3171 16.637C10.3012 16.6454 10.2855 16.6537 10.2698 16.662C9.85295 16.8824 9.51221 17.0625 9 17.0625C8.48779 17.0625 8.14705 16.8824 7.73018 16.662C7.71454 16.6537 7.69879 16.6454 7.68292 16.637C6.70412 16.1204 5.21908 15.2018 3.97252 13.8514C2.72209 12.4968 1.6875 10.6794 1.6875 8.38751L1.6875 6.17914C1.68749 5.59059 1.68748 5.10448 1.72852 4.71706C1.77103 4.31568 1.86361 3.9435 2.10424 3.62493C2.3527 3.296 2.72178 3.10018 3.12887 2.94233C3.53394 2.78526 4.06867 2.63326 4.73007 2.44525L4.75819 2.43726C5.66452 2.17962 6.46485 1.86879 7.10506 1.58459L7.12158 1.57726C7.55715 1.38391 7.90642 1.22886 8.18607 1.12338Z" fill="#141B34" style="fill:#141B34;fill:color(display-p3 0.0774 0.1045 0.2042);fill-opacity:1;"/>
</svg>
