<svg width="18" height="18" viewBox="0 0 18 18" fill="none" xmlns="http://www.w3.org/2000/svg">
<path d="M8.125 0C3.63769 0 -7.15256e-07 3.63769 -7.15256e-07 8.125C0.000175313 12.6122 3.63779 16.25 8.125 16.25C10.1438 16.2499 11.9892 15.5117 13.4102 14.293L16.8496 17.7334C17.0937 17.9773 17.4894 17.9774 17.7334 17.7334C17.9774 17.4894 17.9773 17.0937 17.7334 16.8496L14.2939 13.4092C15.5121 11.9884 16.2499 10.1433 16.25 8.125C16.25 3.6378 12.6122 0.000176378 8.125 0ZM8.125 1.25C11.9218 1.25018 15 4.32815 15 8.125C14.9998 11.9217 11.9217 14.9998 8.125 15C4.32815 15 1.25018 11.9218 1.25 8.125C1.25 4.32804 4.32804 1.25 8.125 1.25Z" fill="#A4A4A8" style="fill:#A4A4A8;fill:color(display-p3 0.6430 0.6430 0.6570);fill-opacity:1;"/>
</svg>
