<svg width="42" height="42" viewBox="0 0 42 42" fill="none" xmlns="http://www.w3.org/2000/svg">
<path d="M18.6559 0.811166C19.9538 -0.270404 21.8384 -0.270373 23.1364 0.811166L27.4391 4.39613H33.8961C35.8291 4.39613 37.3961 5.96315 37.3961 7.89613V14.3532L40.9811 18.6559C42.0627 19.9538 42.0627 21.8384 40.9811 23.1364L37.3961 27.4391V33.8961C37.3961 35.8291 35.8291 37.3961 33.8961 37.3961H27.4391L23.1364 40.9811C21.8384 42.0627 19.9538 42.0627 18.6559 40.9811L14.3532 37.3961H7.89613C5.96316 37.3961 4.39613 35.8291 4.39613 33.8961V27.4391L0.811166 23.1364C-0.270373 21.8384 -0.270404 19.9538 0.811166 18.6559L4.39613 14.3532V7.89613C4.39615 5.96317 5.96317 4.39615 7.89613 4.39613H14.3532L18.6559 0.811166ZM21.2164 3.11585C21.031 2.96133 20.7612 2.96133 20.5758 3.11585L15.8561 7.04847C15.5865 7.27301 15.2469 7.39613 14.8961 7.39613H7.89613C7.62003 7.39615 7.39615 7.62003 7.39613 7.89613V14.8961C7.39613 15.2469 7.27301 15.5865 7.04847 15.8561L3.11585 20.5758C2.96133 20.7612 2.96133 21.031 3.11585 21.2164L7.04847 25.9362C7.27303 26.2057 7.39611 26.5453 7.39613 26.8961V33.8961C7.39613 34.1723 7.62001 34.3961 7.89613 34.3961H14.8961C15.2469 34.3961 15.5866 34.5193 15.8561 34.7438L20.5758 38.6764C20.7612 38.8309 21.031 38.8309 21.2164 38.6764L25.9362 34.7438C26.2057 34.5192 26.5453 34.3961 26.8961 34.3961H33.8961C34.1723 34.3961 34.3961 34.1723 34.3961 33.8961V26.8961C34.3961 26.5453 34.5192 26.2057 34.7438 25.9362L38.6764 21.2164C38.8309 21.031 38.8309 20.7612 38.6764 20.5758L34.7438 15.8561C34.5193 15.5866 34.3961 15.2469 34.3961 14.8961V7.89613C34.3961 7.62001 34.1723 7.39613 33.8961 7.39613H26.8961C26.5453 7.39611 26.2057 7.27303 25.9362 7.04847L21.2164 3.11585ZM26.2057 14.5602C26.9404 14.1777 27.8465 14.4632 28.2291 15.1979C28.6115 15.9326 28.3261 16.8387 27.5914 17.2213C25.5334 18.2932 23.6057 20.5322 22.1354 22.6764C21.4182 23.7223 20.8426 24.696 20.4469 25.4078C20.2495 25.7631 19.9523 26.3418 19.8512 26.5387C19.6147 27.0307 19.1287 27.3573 18.5836 27.3883C18.0382 27.4192 17.5187 27.1508 17.2282 26.6881C16.7689 25.9569 16.0341 25.2832 15.3463 24.7653C15.0131 24.5144 14.3968 24.1277 14.1823 23.9938C13.4547 23.5982 13.1854 22.6884 13.5807 21.9606C13.9761 21.2326 14.8869 20.9627 15.6149 21.358L15.6285 21.3659C15.7211 21.4195 15.9555 21.5562 16.0856 21.6373C16.3586 21.8077 16.7343 22.055 17.151 22.3688C17.4783 22.6153 17.8467 22.9143 18.2184 23.2604C18.6061 22.5964 19.0915 21.8103 19.6608 20.9801C21.1905 18.7493 23.4638 15.9883 26.2057 14.5602Z" fill="#1EA477" style="fill:#1EA477;fill:color(display-p3 0.1178 0.6422 0.4674);fill-opacity:1;"/>
</svg>
