<svg width="8" height="12" viewBox="0 0 8 12" fill="none" xmlns="http://www.w3.org/2000/svg">
<path d="M3.83364 0C3.58461 1.73116e-06 3.35356 0.110436 3.18008 0.215013C2.99287 0.327864 2.79958 0.479629 2.61113 0.646122C2.23308 0.980118 1.82709 1.41591 1.45985 1.83882C1.09045 2.26422 0.750304 2.68815 0.503122 3.00483C0.379324 3.16344 0.278367 3.29576 0.20816 3.38869C0.173047 3.43517 0.145599 3.47184 0.126802 3.49705L0.105212 3.5261L0.09951 3.53381L0.0975366 3.53648C-0.0662379 3.75881 -0.0189777 4.0721 0.203357 4.23588C0.425681 4.39965 0.738667 4.35219 0.902447 4.12988L0.908722 4.12139L0.92857 4.09469C0.94617 4.07108 0.972331 4.03613 1.00607 3.99147C1.07357 3.90211 1.1713 3.77402 1.29142 3.62013C1.53207 3.31182 1.86066 2.90242 2.2149 2.49449C2.57129 2.08408 2.94384 1.68654 3.27322 1.39554C3.29406 1.37714 3.31453 1.35932 3.33464 1.34211L3.33464 11.1667C3.33464 11.4428 3.55849 11.6667 3.83464 11.6667C4.11078 11.6667 4.33464 11.4428 4.33464 11.1667L4.33464 1.3438C4.35411 1.36049 4.37392 1.37774 4.39408 1.39554C4.72346 1.68654 5.09601 2.08408 5.4524 2.49449C5.80664 2.90242 6.13523 3.31182 6.37588 3.62013C6.496 3.77402 6.59373 3.90211 6.66123 3.99147C6.69497 4.03613 6.72113 4.07108 6.73873 4.09469L6.75858 4.12139L6.76485 4.12988C6.92863 4.35219 7.24162 4.39965 7.46394 4.23588C7.68628 4.0721 7.73354 3.75881 7.56976 3.53648L7.56779 3.53381L7.56209 3.5261L7.5405 3.49705C7.5217 3.47184 7.49425 3.43517 7.45914 3.38869C7.38893 3.29576 7.28798 3.16344 7.16418 3.00483C6.917 2.68815 6.57685 2.26422 6.20745 1.83882C5.84021 1.41591 5.43422 0.980118 5.05617 0.646122C4.86772 0.479629 4.67443 0.327864 4.48722 0.215013C4.31478 0.111065 4.08546 0.00132889 3.83813 1.19715e-05" fill="#00BC7D" style="fill:#00BC7D;fill:color(display-p3 0.0000 0.7373 0.4902);fill-opacity:1;"/>
</svg>
