<svg width="14" height="11" viewBox="0 0 14 11" fill="none" xmlns="http://www.w3.org/2000/svg">
<path d="M6.90858 0C8.46066 0.000106423 9.86189 0.74218 10.973 1.60547C12.0899 2.4732 12.9657 3.50357 13.4769 4.1709C13.9305 4.763 13.9305 5.57098 13.4769 6.16309C12.9657 6.83041 12.0899 7.86078 10.973 8.72852C9.86189 9.5918 8.46066 10.3339 6.90858 10.334C5.35638 10.334 3.95438 9.59187 2.84315 8.72852C1.72653 7.86093 0.851465 6.83038 0.340224 6.16309C-0.113408 5.57096 -0.113408 4.76303 0.340224 4.1709C0.851465 3.5036 1.72653 2.47306 2.84315 1.60547C3.95438 0.742118 5.35638 0 6.90858 0ZM6.90858 1C5.67298 1 4.48607 1.59632 3.45741 2.39551C2.43446 3.19028 1.61837 4.14729 1.13417 4.7793C0.955442 5.01259 0.955442 5.32139 1.13417 5.55469C1.61837 6.1867 2.43446 7.14371 3.45741 7.93848C4.48607 8.73767 5.67298 9.33398 6.90858 9.33398C8.1441 9.33388 9.33117 8.73762 10.3598 7.93848C11.3826 7.14369 12.1989 6.18663 12.683 5.55469C12.8616 5.32146 12.8616 5.01252 12.683 4.7793C12.1989 4.14736 11.3826 3.19029 10.3598 2.39551C9.33117 1.59636 8.1441 1.00011 6.90858 1ZM6.90858 2.66699C8.28927 2.66702 9.40858 3.7863 9.40858 5.16699C9.40858 6.54768 8.28927 7.66696 6.90858 7.66699C5.52787 7.66699 4.40858 6.5477 4.40858 5.16699C4.40858 3.78628 5.52787 2.66699 6.90858 2.66699ZM6.90858 3.66699C6.08016 3.66699 5.40858 4.33856 5.40858 5.16699C5.40858 5.99542 6.08016 6.66699 6.90858 6.66699C7.73698 6.66696 8.40858 5.9954 8.40858 5.16699C8.40858 4.33858 7.73698 3.66702 6.90858 3.66699Z" fill="#141415" style="fill:#141415;fill:color(display-p3 0.0784 0.0784 0.0816);fill-opacity:1;"/>
</svg>
