<svg width="18" height="18" viewBox="0 0 18 18" fill="none" xmlns="http://www.w3.org/2000/svg">
<path fill-rule="evenodd" clip-rule="evenodd" d="M10.5 2.0625C12.2604 2.0625 13.6875 3.48959 13.6875 5.25C13.6875 5.31772 13.6854 5.38488 13.6813 5.45145C13.2033 5.43241 12.6582 5.43242 12.0412 5.43243L7.31762 5.43243C7.31422 5.37209 7.3125 5.31127 7.3125 5.25C7.3125 4.53759 7.54621 3.87977 7.94115 3.34902C7.94716 3.34144 7.95298 3.33369 7.9586 3.32579C8.54065 2.55825 9.46243 2.0625 10.5 2.0625ZM7.23073 2.4375C8.02159 1.51904 9.19288 0.9375 10.5 0.9375C12.8817 0.9375 14.8125 2.86827 14.8125 5.25C14.8125 5.35445 14.8088 5.4581 14.8014 5.56082C15.3646 5.66548 15.846 5.86361 16.2388 6.2566C16.6902 6.70821 16.8844 7.2768 16.9751 7.95213C17.0625 8.60264 17.0625 9.42975 17.0625 10.456V12.039C17.0625 13.0652 17.0625 13.8923 16.9751 14.5428C16.8844 15.2181 16.6902 15.7867 16.2388 16.2383C15.7874 16.69 15.219 16.8843 14.5438 16.9751C13.8936 17.0625 13.0669 17.0625 12.0412 17.0625H7.45766H7.45763C6.07934 17.0625 4.98762 17.0625 4.1332 16.9476C3.25383 16.8293 2.5421 16.5801 1.98084 16.0185C1.41961 15.4571 1.17056 14.7451 1.05235 13.8654C0.937479 13.0106 0.937489 11.9184 0.9375 10.5394V10.5394V8.95408V8.95408C0.937489 7.57506 0.937479 6.48284 1.05235 5.62806C1.17056 4.74839 1.41961 4.03643 1.98084 3.47493C2.87352 2.58182 4.17124 2.46391 5.99186 2.43756L6 2.4375H7.23073ZM6.53017 3.5625H6.00409C4.10826 3.59015 3.2981 3.74841 2.77652 4.27023C2.45907 4.58784 2.26878 5.02288 2.16732 5.77789C2.06369 6.54905 2.0625 7.56559 2.0625 8.99638V10.4971C2.0625 11.9279 2.06369 12.9444 2.16732 13.7156C2.26878 14.4706 2.45907 14.9056 2.77652 15.2232C3.09394 15.5408 3.52866 15.7311 4.28317 15.8326C5.0539 15.9363 6.06988 15.9375 7.5 15.9375H12C13.0766 15.9375 13.8274 15.9363 14.3939 15.8601C14.9442 15.7861 15.2356 15.6507 15.4431 15.443C15.6508 15.2353 15.7861 14.9436 15.8601 14.393C15.9363 13.8261 15.9375 13.0749 15.9375 11.9978V10.4971C15.9375 9.42004 15.9363 8.66879 15.8601 8.10196C15.7861 7.55129 15.6508 7.25963 15.4431 7.05191C15.2356 6.84422 14.9442 6.70884 14.3939 6.63482C13.8274 6.55862 13.0766 6.55743 12 6.55743H5.25C4.93934 6.55743 4.6875 6.30559 4.6875 5.99493C4.6875 5.68427 4.93934 5.43243 5.25 5.43243H6.1913C6.18877 5.37191 6.1875 5.31109 6.1875 5.25C6.1875 4.65115 6.30956 4.08081 6.53017 3.5625ZM13.125 9.9375C13.4357 9.9375 13.6875 10.1893 13.6875 10.5C13.6875 10.8107 13.4357 11.0625 13.125 11.0625C12.8143 11.0625 12.5625 10.8107 12.5625 10.5C12.5625 10.1893 12.8143 9.9375 13.125 9.9375ZM14.8125 10.5C14.8125 9.56802 14.057 8.8125 13.125 8.8125C12.193 8.8125 11.4375 9.56802 11.4375 10.5C11.4375 11.432 12.193 12.1875 13.125 12.1875C14.057 12.1875 14.8125 11.432 14.8125 10.5Z" fill="#141415" style="fill:#141415;fill:color(display-p3 0.0784 0.0784 0.0816);fill-opacity:1;"/>
</svg>
