<svg width="18" height="18" viewBox="0 0 18 18" fill="none" xmlns="http://www.w3.org/2000/svg">
<path d="M2.25 1.6875C2.56066 1.6875 2.8125 1.93934 2.8125 2.25V10.5C2.8125 11.7533 2.81343 12.637 2.90332 13.3057C2.99105 13.958 3.15453 14.3206 3.41699 14.583C3.67945 14.8455 4.04204 15.009 4.69434 15.0967C5.36297 15.1866 6.24666 15.1875 7.5 15.1875H15.75C16.0607 15.1875 16.3125 15.4393 16.3125 15.75C16.3125 16.0607 16.0607 16.3125 15.75 16.3125H7.45801C6.25623 16.3125 5.29718 16.3121 4.54492 16.2109C3.76772 16.1064 3.12745 15.8853 2.62109 15.3789C2.11474 14.8726 1.89355 14.2323 1.78906 13.4551C1.68794 12.7028 1.68749 11.7438 1.6875 10.542V2.25C1.6875 1.93934 1.93934 1.6875 2.25 1.6875ZM15 9.9375C15.3107 9.9375 15.5625 10.1893 15.5625 10.5V12.75C15.5625 13.0607 15.3107 13.3125 15 13.3125C14.6893 13.3125 14.4375 13.0607 14.4375 12.75V10.5C14.4375 10.1893 14.6893 9.9375 15 9.9375ZM9 7.6875C9.31066 7.6875 9.5625 7.93934 9.5625 8.25V10.5C9.5625 10.8107 9.31066 11.0625 9 11.0625C8.68934 11.0625 8.4375 10.8107 8.4375 10.5V8.25C8.4375 7.93934 8.68934 7.6875 9 7.6875ZM12 5.4375C12.3107 5.4375 12.5625 5.68934 12.5625 6V10.5C12.5625 10.8107 12.3107 11.0625 12 11.0625C11.6893 11.0625 11.4375 10.8107 11.4375 10.5V6C11.4375 5.68934 11.6893 5.4375 12 5.4375ZM6 3.1875C6.31066 3.1875 6.5625 3.43934 6.5625 3.75V8.25C6.5625 8.56066 6.31066 8.8125 6 8.8125C5.68934 8.8125 5.4375 8.56066 5.4375 8.25V3.75C5.4375 3.43934 5.68934 3.1875 6 3.1875Z" fill="#141415" style="fill:#141415;fill:color(display-p3 0.0784 0.0784 0.0816);fill-opacity:1;"/>
</svg>
