<svg width="16" height="16" viewBox="0 0 16 16" fill="none" xmlns="http://www.w3.org/2000/svg">
<path d="M8 15.167C11.952 15.167 15.167 11.952 15.167 8C15.167 4.048 11.952 0.833008 8 0.833008C4.048 0.833008 0.833008 4.048 0.833008 8C0.833008 11.952 4.048 15.167 8 15.167ZM2.36523 5.5C3.17695 3.67786 4.84575 2.32001 6.85742 1.94141C6.29708 2.72088 5.57456 3.94265 5.16211 5.5H2.36523ZM10.8389 5.5C10.4263 3.94249 9.70295 2.72089 9.14258 1.94141C11.1542 2.32002 12.8231 3.67786 13.6348 5.5H10.8389ZM6.20703 5.5C6.69029 3.88524 7.52617 2.68462 8 2.09473C8.47382 2.68506 9.3097 3.88545 9.79297 5.5H6.20703ZM11.0488 9.5C11.1237 9.02393 11.167 8.52322 11.167 8C11.167 7.47684 11.1237 6.97601 11.0488 6.5H13.9805C14.101 6.98046 14.167 7.4827 14.167 8C14.167 8.5173 14.101 9.01954 13.9805 9.5H11.0488ZM5.96875 9.5C5.88397 9.0257 5.83302 8.52462 5.83301 8C5.83301 7.47553 5.88305 6.97421 5.96777 6.5H10.0322C10.117 6.9742 10.167 7.47551 10.167 8C10.167 8.52453 10.117 9.02574 10.0322 9.5H5.96875ZM2.01855 9.5C1.89802 9.01961 1.83301 8.51721 1.83301 8C1.83301 7.48279 1.89802 6.98039 2.01855 6.5H4.95117C4.87632 6.97598 4.83301 7.47688 4.83301 8C4.83302 8.52318 4.87628 9.02397 4.95117 9.5H2.01855ZM6.85742 14.0596C4.84567 13.681 3.17697 12.3222 2.36523 10.5H5.16211C5.57479 12.0577 6.29704 13.2802 6.85742 14.0596ZM8 13.9043C7.5262 13.314 6.69028 12.1143 6.20703 10.5H9.79297C9.30973 12.1145 8.47381 13.3144 8 13.9043ZM9.14258 14.0596C9.70301 13.2802 10.4262 12.058 10.8389 10.5H13.6348C12.823 12.3222 11.1543 13.681 9.14258 14.0596Z" fill="#C34BFF" style="fill:#C34BFF;fill:color(display-p3 0.7647 0.2941 1.0000);fill-opacity:1;"/>
</svg>
