<svg width="12" height="12" viewBox="0 0 12 12" fill="none" xmlns="http://www.w3.org/2000/svg">
<path d="M5.16211 0C5.40347 0 5.59881 0.195211 5.59961 0.436523C5.59961 0.678018 5.40516 0.874991 5.16309 0.875C3.06834 0.879083 2.08962 0.941042 1.51562 1.51562C0.874826 2.15677 0.875 3.33701 0.875 5.6875C0.875 8.03833 0.875125 9.21829 1.51562 9.85938C2.15609 10.4998 3.33598 10.5 5.68652 10.5C8.03736 10.5 9.21731 10.4999 9.8584 9.85938C10.4329 9.28478 10.494 8.30656 10.498 6.21191C10.4981 5.97049 10.6942 5.77551 10.9355 5.77539H10.9365C11.178 5.77539 11.3739 5.97147 11.374 6.21289C11.3699 8.36772 11.3257 9.62821 10.4775 10.4775C9.58037 11.3747 8.27983 11.375 5.6875 11.375C3.09575 11.375 1.79404 11.3747 0.897461 10.4775C0.000294318 9.58037 0 8.27983 0 5.6875C0 3.09517 0.00029432 1.79404 0.897461 0.897461C1.7456 0.0481537 3.00584 0.00408565 5.16113 0H5.16211ZM8.03223 0.0332031C10.568 -0.00296354 10.8413 0.270969 10.9883 0.417969C11.1347 0.564973 11.4073 0.838014 11.3711 3.37598C11.3676 3.61745 11.1704 3.81242 10.9277 3.80664C10.6863 3.80314 10.4927 3.60531 10.4961 3.36328C10.5083 2.4912 10.4817 1.9326 10.4473 1.5791L5.44336 6.61328C5.35762 6.69899 5.24537 6.74219 5.13281 6.74219L5.0498 6.73438C4.96739 6.71846 4.88857 6.67871 4.82422 6.61523C4.65273 6.4449 4.65194 6.16759 4.82227 5.99609L9.83203 0.958008C9.47969 0.923012 8.92043 0.895954 8.04492 0.908203H8.03906C7.80053 0.908203 7.60515 0.716632 7.60156 0.477539C7.59806 0.236147 7.79088 0.0368762 8.03223 0.0332031Z" fill="#7D7D82" style="fill:#7D7D82;fill:color(display-p3 0.4900 0.4900 0.5100);fill-opacity:1;"/>
</svg>
