<svg width="18" height="18" viewBox="0 0 18 18" fill="none" xmlns="http://www.w3.org/2000/svg">
<path fill-rule="evenodd" clip-rule="evenodd" d="M8.40765 1.86981L8.4078 4.3537C8.4078 4.66842 8.66708 4.93364 8.99948 4.93361C9.33315 4.93359 9.59228 4.66801 9.59235 4.35437L9.59288 1.87044C9.5931 1.02793 10.6099 0.633928 11.1904 1.21097L11.4868 1.50377C12.5093 2.5132 13.1425 3.13835 13.5113 3.62698C13.7243 3.90925 13.8719 4.17368 13.9595 4.46716C14.0456 4.75604 14.0625 5.0377 14.0625 5.32929C14.0625 6.06446 13.7032 6.71228 13.2127 7.32988C12.8404 7.79873 12.3505 8.30003 11.7932 8.85323C11.8058 8.89988 11.8125 8.949 11.8125 8.99963V14.3735C11.8125 15.888 10.5229 17.0621 9 17.0621C7.47713 17.0621 6.1875 15.888 6.1875 14.3735V8.99963C6.1875 8.949 6.1942 8.89988 6.20675 8.85323C5.64962 8.30018 5.15972 7.7988 4.78731 7.32983C4.2969 6.71226 3.9375 6.06426 3.9375 5.32902C3.9375 5.03742 3.95448 4.75576 4.04068 4.46689C4.12825 4.17341 4.27595 3.90899 4.489 3.62671C4.8578 3.13806 5.49105 2.51287 6.51359 1.50334L6.81035 1.21025C7.39065 0.63359 8.40765 1.0269 8.40765 1.86981ZM7.3125 9.8337V14.3735C7.3125 15.2075 8.0376 15.9371 9 15.9371C9.9624 15.9371 10.6875 15.2075 10.6875 14.3735V9.83415C9.65872 10.4722 8.34128 10.4714 7.3125 9.8337ZM10.7178 2.32551L10.7173 4.35461C10.7171 5.30192 9.94185 6.05854 8.99955 6.05861C8.26658 6.05867 7.63643 5.60081 7.39163 4.95284C7.32128 4.76672 7.2828 4.56491 7.2828 4.35375L7.28265 2.32503C7.05298 2.55192 6.84704 2.75548 6.66223 2.93938L6.40055 3.20093C5.90759 3.69635 5.59314 4.03125 5.38695 4.30443C5.22851 4.51436 5.15723 4.65947 5.1187 4.78858C5.0788 4.92229 5.0625 5.07626 5.0625 5.32911C5.0625 5.68276 5.23231 6.08116 5.66832 6.63023C6.07548 7.14296 6.65123 7.7115 7.38105 8.43218L7.54245 8.59163C8.3469 9.38558 9.65385 9.38595 10.4569 8.5923L10.6183 8.43278L10.8328 8.22092C11.4621 7.59848 11.9653 7.09171 12.3317 6.63025C12.7677 6.08123 12.9375 5.68292 12.9375 5.3292C12.9375 5.07635 12.9212 4.92239 12.8814 4.78869C12.8429 4.65961 12.7717 4.51454 12.6133 4.30466C12.3041 3.89494 11.7513 3.34641 10.7178 2.32551ZM8.46975 13.7237C8.17688 14.0166 8.17688 14.4915 8.46975 14.7844C8.7627 15.0773 9.23753 15.0773 9.53048 14.7844L9.5352 14.7796C9.82808 14.4867 9.82808 14.0119 9.5352 13.7189C9.24233 13.4261 8.76742 13.4261 8.47455 13.7189L8.46975 13.7237Z" fill="#141415" style="fill:#141415;fill:color(display-p3 0.0784 0.0784 0.0816);fill-opacity:1;"/>
</svg>
